{
.appVersion = "1141";
classes = (
{
code = "ka-deva qa-deva k_ra-deva k_na-deva q_ra-deva";
name = "iiLetters-alt1";
},
{
code = "cha-deva ha-deva da-deva n_ha-deva m_ha-deva";
name = "iiLetters-alt3";
},
{
code = "ttha-deva ss_ttha-deva ra-deva rra-deva\012\012lla-deva llla-deva";
name = "iiLetters-alt4";
},
{
code = "k_ta-deva\012pha-deva fa-deva ph_ra-deva f_ra-deva f_za-deva f_fa-deva\012";
name = "iiLetters-alt5";
},
{
code = "iiMatra-deva\012iiMatra_reph_anusvara-deva\012iiMatra_reph_candraBindu-deva\012iiMatra_reph-deva";
name = iiMatra;
},
{
code = "iiMatra-deva.alt1\012iiMatra_reph_anusvara-deva.alt1\012iiMatra_reph_candraBindu-deva.alt1\012iiMatra_reph-deva.alt1";
name = "iiMatra-alt1";
},
{
code = "iiMatra-deva.alt2\012iiMatra_reph_anusvara-deva.alt2\012iiMatra_reph_candraBindu-deva.alt2\012iiMatra_reph-deva.alt2";
name = "iiMatra-alt2";
},
{
code = "iiMatra-deva.alt3\012iiMatra_reph_anusvara-deva.alt3\012iiMatra_reph_candraBindu-deva.alt3\012iiMatra_reph-deva.alt3";
name = "iiMatra-alt3";
},
{
code = "iiMatra-deva.alt4\012iiMatra_reph_anusvara-deva.alt4\012iiMatra_reph_candraBindu-deva.alt4\012iiMatra_reph-deva.alt4";
name = "iiMatra-alt4";
},
{
code = "iiMatra-deva.alt5\012iiMatra_reph_anusvara-deva.alt5\012iiMatra_reph_candraBindu-deva.alt5\012iiMatra_reph-deva.alt5";
name = "iiMatra-alt5";
},
{
code = "ka-deva tta-deva ttha-deva ddha-deva da-deva qa-deva rha-deva ha-deva\012\012k_na-deva k_ra-deva q_ra-deva\012tt_tta-deva tt_ttha-deva tt_ra-deva tt_va-deva\012tth_ttha-deva\012ddh_ddha-deva\012d_ga-deva d_na-deva d_ba-deva d_ra-deva d_va-deva\012h_ra-deva";
name = "iLetters-alt1";
},
{
code = "ja-deva za-deva la-deva\012ny_ca-deva ny_ja-deva ny_ra-deva\012l_ra-deva";
name = "iLetters-alt2";
},
{
code = "gha-deva tha-deva dha-deva\012gh_na-deva gh_ra-deva\012th_ra-deva\012dh_ra-deva\012d_ya-deva\012\012lla-deva llla-deva";
name = "iLetters-alt3";
},
{
code = "ra-deva rra-deva";
name = "iLetters-alt4";
},
{

glyphs = (
{
glyphname = .notdef;
lastChange = "2014-11-24 05:17:59 +0000";
layers = (
{
layerId = "CFA4B904-E3F1-48B6-A7F6-47DC1FF2A3E1";
paths = (
{
closed = 1;
nodes = (
"101 456 LINE",
"13 0 LINE",
"320 0 LINE",
"408 456 LINE"
);
},
{
closed = 1;
nodes = (
"276 45 LINE",
"74 45 LINE",
"145 411 LINE",
"347 411 LINE"
);
}
);
width = 407;
}
);
},
{
glyphname = A;
lastChange = "2014-11-24 05:17:59 +0000";
layers = (
{
anchors = (
{
name = top.cap;
position = "{322, 550}";
}
);
background = {
paths = (
{
closed = 1;
nodes = (
"369 0 LINE",
"348 161 LINE",
"138 161 LINE",
"55 0 LINE",
"-12 0 LINE",
"283 550 LINE",
"363 550 LINE",
"445 0 LINE"
);
},
{
closed = 1;
nodes = (
"168 218 LINE",
"340 218 LINE",
"305 481 LINE"
);
}
);
};
layerId = "CFA4B904-E3F1-48B6-A7F6-47DC1FF2A3E1";
paths = (
{
closed = 1;
nodes = (
"369 0 LINE",
"348 161 LINE",
"138 161 LINE",
"55 0 LINE",
"-21 0 LINE",
"274 550 LINE",
"359 550 LINE",
"441 0 LINE"
);
},
{
closed = 1;
nodes = (
"168 218 LINE",
"340 218 LINE",
"305 481 LINE"
);
}
);
width = 493;
}
);
unicode = 0041;
},
{
glyphname = Aogonek;
lastChange = "2014-11-24 05:17:59 +0000";
layers = (
{
anchors = (
{
name = top.cap;
position = "{322, 550}";
}
);
background = {
paths = (
{
closed = 1;
nodes = (
"363 161 LINE",
"384 16 LINE",
"350 -3 LINE SMOOTH",
"295 -35 OFFCURVE",
"255 -80 OFFCURVE",
"246 -124 CURVE SMOOTH",
"235 -179 OFFCURVE",
"264 -210 OFFCURVE",
"312 -210 CURVE SMOOTH",
"341 -210 OFFCURVE",
"381 -198 OFFCURVE",
"419 -173 CURVE",
"402 -135 LINE",
"375 -150 OFFCURVE",
"353 -159 OFFCURVE",
"331 -159 CURVE SMOOTH",
"310 -159 OFFCURVE",
"297 -149 OFFCURVE",
"302 -123 CURVE SMOOTH",
"308 -95 OFFCURVE",
"333 -68 OFFCURVE",
"375 -40 CURVE SMOOTH",
"451 10 LINE",
"364 550 LINE",
"289 550 LINE",
"-14 0 LINE",
"50 0 LINE",
"136 161 LINE"
);
},
{
closed = 1;
nodes = (
"167 218 LINE",
"314 486 LINE",
"353 218 LINE"
);
}
);
};
layerId = "CFA4B904-E3F1-48B6-A7F6-47DC1FF2A3E1";
paths = (
{
closed = 1;
nodes = (
"340 218 LINE",
"168 218 LINE",
"305 481 LINE"
);
},
{
closed = 1;
nodes = (
"261 -45 OFFCURVE",
"233 -92 OFFCURVE",
"233 -146 CURVE SMOOTH",
"233 -187 OFFCURVE",
"260 -210 OFFCURVE",
"301 -210 CURVE SMOOTH",
"330 -210 OFFCURVE",
"370 -198 OFFCURVE",
"408 -173 CURVE",
"391 -135 LINE",
"364 -150 OFFCURVE",
"342 -159 OFFCURVE",
"320 -159 CURVE SMOOTH",
"299 -159 OFFCURVE",
"286 -149 OFFCURVE",
"291 -123 CURVE SMOOTH",
"297 -95 OFFCURVE",
"322 -68 OFFCURVE",
"364 -40 CURVE SMOOTH",
"440 10 LINE",
"359 550 LINE",
"274 550 LINE",
"-21 0 LINE",
"55 0 LINE",
"138 161 LINE",
"348 161 LINE",
"368 13 LINE"
);
}
);
width = 494;
}
);
unicode = 0104;
},
{
glyphname = Aring;
lastChange = "2014-11-24 05:17:59 +0000";
layers = (
{
background = {
paths = (
{
closed = 1;
nodes = (
"230 589 OFFCURVE",
"251 553 OFFCURVE",
"283 537 CURVE",
"-15 0 LINE",
"49 0 LINE",
"135 161 LINE",
"362 161 LINE",
"387 0 LINE",
"452 0 LINE",
"367 537 LINE",
"406 553 OFFCURVE",
"435 586 OFFCURVE",
"442 622 CURVE SMOOTH",
"453 679 OFFCURVE",
"413 727 OFFCURVE",
"355 727 CURVE SMOOTH",
"300 727 OFFCURVE",
"248 683 OFFCURVE",
"238 632 CURVE SMOOTH"
);
},
{
closed = 1;
nodes = (
"352 218 LINE",
"166 218 LINE",
"313 486 LINE"
);
},
{
closed = 1;
nodes = (
"391 598 OFFCURVE",
"358 570 OFFCURVE",
"323 570 CURVE SMOOTH",
"291 570 OFFCURVE",
"275 593 OFFCURVE",
"281 622 CURVE SMOOTH",
"288 658 OFFCURVE",
"317 684 OFFCURVE",
"354 684 CURVE SMOOTH",
"384 684 OFFCURVE",
"404 660 OFFCURVE",
"398 632 CURVE SMOOTH"
);
}
);
};
layerId = "CFA4B904-E3F1-48B6-A7F6-47DC1FF2A3E1";
paths = (
{
closed = 1;
nodes = (
"360 539 LINE",
"397 556 OFFCURVE",
"424 587 OFFCURVE",
"430 622 CURVE SMOOTH",
"441 679 OFFCURVE",
"401 727 OFFCURVE",
"343 727 CURVE SMOOTH",
"288 727 OFFCURVE",
"236 683 OFFCURVE",
"226 632 CURVE SMOOTH",
"219 591 OFFCURVE",
"238 556 OFFCURVE",
"267 539 CURVE",
"-22 0 LINE",
"54 0 LINE",
"137 161 LINE",
"347 161 LINE",
"368 0 LINE",
"440 0 LINE"
);
},
{
closed = 1;
nodes = (
"276 658 OFFCURVE",
"305 684 OFFCURVE",
"342 684 CURVE SMOOTH",
"372 684 OFFCURVE",
"392 660 OFFCURVE",
"386 632 CURVE SMOOTH",
"379 598 OFFCURVE",
"346 570 OFFCURVE",
"311 570 CURVE SMOOTH",
"279 570 OFFCURVE",
"263 593 OFFCURVE",
"269 622 CURVE SMOOTH"
);
},
{
closed = 1;
nodes = (
"167 218 LINE",
"304 481 LINE",
"339 218 LINE"
);
}
);
width = 492;
}
);
unicode = 00C5;
},
{
glyphname = AE;
lastChange = "2014-11-24 05:17:59 +0000";
layers = (
{
layerId = "CFA4B904-E3F1-48B6-A7F6-47DC1FF2A3E1";
paths = (
{
closed = 1;
nodes = (
"301 550 LINE",
"-21 0 LINE",
"45 0 LINE",
"137 161 LINE",
"328 161 LINE",
"297 0 LINE",
"598 0 LINE",
"609 58 LINE",
"369 58 LINE",
"408 256 LINE",
"627 256 LINE",
"638 313 LINE",
"419 313 LINE",
"454 494 LINE",
"694 494 LINE",
"705 550 LINE"
);
},
{
closed = 1;
nodes = (
"171 218 LINE",
"331 494 LINE",
"393 494 LINE",
"339 218 LINE"
);
}
);
width = 687;
}
);
unicode = 00C6;
},
{
glyphname = B;
lastChange = "2014-11-24 05:17:59 +0000";
layers = (
{
background = {
paths = (
{
closed = 1;
nodes = (
"405 472 OFFCURVE",
"364 493 OFFCURVE",
"296 493 CURVE SMOOTH",
"192 493 LINE",
"158 321 LINE",
"234 321 LINE SMOOTH",
"329 321 OFFCURVE",
"381 350 OFFCURVE",
"393 410 CURVE SMOOTH"
);
},
{
closed = 1;
nodes = (
"396 204 OFFCURVE",
"377 231 OFFCURVE",
"346 245 CURVE SMOOTH",
"319 261 OFFCURVE",
"279 266 OFFCURVE",
"242 266 CURVE SMOOTH",
"148 266 LINE",
"107 58 LINE",
"232 58 LINE SMOOTH",
"269 58 OFFCURVE",
"305 64 OFFCURVE",
"334 79 CURVE SMOOTH",
"361 97 OFFCURVE",
"380 122 OFFCURVE",
"386 156 CURVE SMOOTH"
);
},
{
closed = 1;
nodes = (
"396 297 OFFCURVE",
"422 283 OFFCURVE",
"441 262 CURVE SMOOTH",
"455 236 OFFCURVE",
"462 205 OFFCURVE",
"456 172 CURVE SMOOTH",
"447 129 OFFCURVE",
"424 84 OFFCURVE",
"382 53 CURVE SMOOTH",
"340 20 OFFCURVE",
"276 0 OFFCURVE",
"207 0 CURVE SMOOTH",
"30 0 LINE",
"137 550 LINE",
"333 550 LINE SMOOTH",
"378 550 OFFCURVE",
"417 541 OFFCURVE",
"441 518 CURVE SMOOTH",
"460 494 OFFCURVE",
"466 462 OFFCURVE",
"459 424 CURVE SMOOTH",
"449 374 OFFCURVE",
"412 326 OFFCURVE",
"363 304 CURVE"
);
}
);
};
layerId = "CFA4B904-E3F1-48B6-A7F6-47DC1FF2A3E1";
paths = (
{
closed = 1;
nodes = (
"395 373 OFFCURVE",
"395 428 CURVE SMOOTH",
"396 476 OFFCURVE",
"357 493 OFFCURVE",
"296 493 CURVE SMOOTH",
"192 493 LINE",
"158 321 LINE",
"234 321 LINE SMOOTH",
"355 321 OFFCURVE"
);
},
{
closed = 1;
nodes = (
"389 111 OFFCURVE",
"389 178 CURVE SMOOTH",
"389 246 OFFCURVE",
"319 266 OFFCURVE",
"242 266 CURVE SMOOTH",
"148 266 LINE",
"107 58 LINE",
"212 58 LINE SMOOTH",
"322 58 OFFCURVE"
);
},
{
closed = 1;
nodes = (
"416 280 OFFCURVE",
"459 251 OFFCURVE",
"459 179 CURVE SMOOTH",
"459 88 OFFCURVE",
"385 0 OFFCURVE",
"207 0 CURVE SMOOTH",
"30 0 LINE",
"137 550 LINE",
"333 550 LINE SMOOTH",
"414 550 OFFCURVE",
"462 503 OFFCURVE",
"462 438 CURVE SMOOTH",
"462 380 OFFCURVE",
"434 326 OFFCURVE",
"363 294 CURVE"
);
}
);
width = 504;
}
);
unicode = 0042;
},
{
glyphname = C;
lastChange = "2014-11-24 05:17:59 +0000";
layers = (
{
anchors = (
{
name = top.cap;
position = "{389, 550}";
}
);
background = {
paths = (
{
closed = 1;
nodes = (
"514 474 LINE",
"474 489 OFFCURVE",
"445 498 OFFCURVE",
"388 498 CURVE SMOOTH",
"347 498 OFFCURVE",
"302 494 OFFCURVE",
"262 477 CURVE",
"195 439 OFFCURVE",
"150 372 OFFCURVE",
"133 282 CURVE SMOOTH",
"114 186 OFFCURVE",
"146 118 OFFCURVE",
"202 84 CURVE",
"231 63 OFFCURVE",
"270 52 OFFCURVE",
"319 52 CURVE SMOOTH",
"361 52 OFFCURVE",
"403 61 OFFCURVE",
"451 78 CURVE",
"455 28 LINE",
"400 4 OFFCURVE",
"342 -9 OFFCURVE",
"279 -9 CURVE SMOOTH",
"193 -9 OFFCURVE",
"128 25 OFFCURVE",
"90 67 CURVE SMOOTH",
"53 121 OFFCURVE",
"42 189 OFFCURVE",
"58 271 CURVE SMOOTH",
"75 362 OFFCURVE",
"118 432 OFFCURVE",
"172 474 CURVE",
"195 497 OFFCURVE",
"230 520 OFFCURVE",
"271 533 CURVE SMOOTH",
"307 548 OFFCURVE",
"348 558 OFFCURVE",
"389 558 CURVE SMOOTH",
"423 558 OFFCURVE",
"452 556 OFFCURVE",
"479 552 CURVE SMOOTH",
"502 547 OFFCURVE",
"524 539 OFFCURVE",
"549 530 CURVE"
);
}
);
};
layerId = "CFA4B904-E3F1-48B6-A7F6-47DC1FF2A3E1";
paths = (
{
closed = 1;
nodes = (
"514 474 LINE",
"474 489 OFFCURVE",
"445 498 OFFCURVE",
"388 498 CURVE SMOOTH",
"209 498 OFFCURVE",
"121 348 OFFCURVE",
"128 227 CURVE SMOOTH",
"128 110 OFFCURVE",
"213 57 OFFCURVE",
"318 57 CURVE SMOOTH",
"364 57 OFFCURVE",
"402 68 OFFCURVE",
"450 83 CURVE",
"456 20 LINE",
"401 1 OFFCURVE",
"359 -9 OFFCURVE",
"296 -9 CURVE SMOOTH",
"161 -9 OFFCURVE",
"57 85 OFFCURVE",
"57 223 CURVE SMOOTH",
"57 422 OFFCURVE",
"201 558 OFFCURVE",
"389 558 CURVE SMOOTH",
"453 558 OFFCURVE",
"480 555 OFFCURVE",
"549 530 CURVE"
);
}
);
width = 518;
}
);
unicode = 0043;
},
{
glyphname = Ccedilla;
lastChange = "2014-11-24 05:17:59 +0000";
layers = (
{
background = {
paths = (
{
closed = 1;
nodes = (
"131 -171 OFFCURVE",
"110 -167 OFFCURVE",
"77 -158 CURVE",
"67 -153 LINE",
"44 -205 LINE",
"81 -216 OFFCURVE",
"109 -226 OFFCURVE",
"145 -226 CURVE SMOOTH",
"196 -226 OFFCURVE",
"240 -192 OFFCURVE",
"248 -150 CURVE SMOOTH",
"261 -84 OFFCURVE",
"213 -66 OFFCURVE",
"180 -56 CURVE",
"171 -52 LINE",
"193 -8 LINE",
"199 -9 OFFCURVE",
"206 -9 OFFCURVE",
"215 -9 CURVE SMOOTH",
"277 -9 OFFCURVE",
"333 2 OFFCURVE",
"386 26 CURVE",
"376 80 LINE",
"330 63 OFFCURVE",
"286 52 OFFCURVE",
"239 52 CURVE SMOOTH",
"198 52 OFFCURVE",
"161 61 OFFCURVE",
"129 78 CURVE SMOOTH",
"76 116 OFFCURVE",
"47 182 OFFCURVE",
"65 272 CURVE SMOOTH",
"78 339 OFFCURVE",
"109 391 OFFCURVE",
"157 431 CURVE SMOOTH",
"193 466 OFFCURVE",
"256 498 OFFCURVE",
"320 498 CURVE SMOOTH",
"380 498 OFFCURVE",
"401 494 OFFCURVE",
"450 476 CURVE",
"474 528 LINE",
"425 548 OFFCURVE",
"387 558 OFFCURVE",
"312 558 CURVE SMOOTH",
"233 558 OFFCURVE",
"156 524 OFFCURVE",
"105 482 CURVE SMOOTH",
"55 436 OFFCURVE",
"8 365 OFFCURVE",
"-8 281 CURVE SMOOTH",
"-25 194 OFFCURVE",
"-13 125 OFFCURVE",
"30 75 CURVE SMOOTH",
"51 43 OFFCURVE",
"87 15 OFFCURVE",
"136 3 CURVE",
"94 -91 LINE",
"159 -105 LINE SMOOTH",
"184 -111 OFFCURVE",
"196 -119 OFFCURVE",
"192 -137 CURVE SMOOTH",
"188 -162 OFFCURVE",
"165 -174 OFFCURVE",
"140 -172 CURVE SMOOTH"
);
}
);
};
components = (
{
name = C;
}
);
layerId = "CFA4B904-E3F1-48B6-A7F6-47DC1FF2A3E1";
paths = (
{
closed = 1;
nodes = (
"265 -173 OFFCURVE",
"288 -166 OFFCURVE",
"292 -141 CURVE SMOOTH",
"296 -123 OFFCURVE",
"284 -111 OFFCURVE",
"259 -105 CURVE SMOOTH",
"194 -91 LINE",
"245 22 LINE",
"302 11 LINE",
"271 -52 LINE",
"324 -67 OFFCURVE",
"361 -86 OFFCURVE",
"348 -154 CURVE SMOOTH",
"340 -196 OFFCURVE",
"296 -226 OFFCURVE",
"245 -226 CURVE SMOOTH",
"209 -226 OFFCURVE",
"181 -216 OFFCURVE",
"144 -205 CURVE",
"167 -153 LINE",
"196 -162 OFFCURVE",
"217 -171 OFFCURVE",
"240 -172 CURVE SMOOTH"
);
}
);
width = 518;
}
);
unicode = 00C7;
},
{
glyphname = D;
lastChange = "2014-11-24 05:17:59 +0000";
layers = (
{
anchors = (
{
name = top.cap;
position = "{289, 550}";
}
);
background = {
paths = (
{
closed = 1;
nodes = (
"232 58 LINE SMOOTH",
"380 58 OFFCURVE",
"439 151 OFFCURVE",
"463 270 CURVE SMOOTH",
"488 400 OFFCURVE",
"431 493 OFFCURVE",
"313 493 CURVE SMOOTH",
"192 493 LINE",
"107 58 LINE"
);
},
{
closed = 1;
nodes = (
"30 0 LINE",
"137 550 LINE",
"333 550 LINE SMOOTH",
"516 550 OFFCURVE",
"566 431 OFFCURVE",
"538 280 CURVE SMOOTH",
"508 133 OFFCURVE",
"407 0 OFFCURVE",
"222 0 CURVE SMOOTH"
);
}
);
};
layerId = "CFA4B904-E3F1-48B6-A7F6-47DC1FF2A3E1";
paths = (
{
closed = 1;
nodes = (
"232 58 LINE SMOOTH",
"418 58 OFFCURVE",
"469 213 OFFCURVE",
"469 318 CURVE SMOOTH",
"469 427 OFFCURVE",
"431 493 OFFCURVE",
"313 493 CURVE SMOOTH",
"192 493 LINE",
"107 58 LINE"
);
},
{
closed = 1;
nodes = (
"30 0 LINE",
"137 550 LINE",
"333 550 LINE SMOOTH",
"486 550 OFFCURVE",
"546 447 OFFCURVE",
"545 312 CURVE SMOOTH",
"545 205 OFFCURVE",
"475 0 OFFCURVE",
"222 0 CURVE SMOOTH"
);
}
);
width = 565;
}
);
unicode = 0044;
},
{
glyphname = Eth;
lastChange = "2014-11-24 05:17:59 +0000";
layers = (
{
background = {
paths = (
{
closed = 1;
nodes = (
"590 354 OFFCURVE",
"578 403 OFFCURVE",
"554 439 CURVE SMOOTH",
"501 520 OFFCURVE",
"426 550 OFFCURVE",
"296 550 CURVE SMOOTH",
"142 550 LINE",
"142 308 LINE",
"49 308 LINE",
"49 256 LINE",
"142 256 LINE",
"142 0 LINE",
"311 0 LINE SMOOTH",
"496 5 OFFCURVE",
"590 107 OFFCURVE",
"590 296 CURVE SMOOTH"
);
},
{
closed = 1;
nodes = (
"332 256 LINE",
"332 308 LINE",
"208 308 LINE",
"208 494 LINE",
"315 494 LINE SMOOTH",
"335 494 OFFCURVE",
"353 493 OFFCURVE",
"367 490 CURVE",
"453 475 OFFCURVE",
"524 395 OFFCURVE",
"524 287 CURVE SMOOTH",
"524 237 OFFCURVE",
"514 192 OFFCURVE",
"499 159 CURVE SMOOTH",
"475 110 OFFCURVE",
"428 72 OFFCURVE",
"368 63 CURVE",
"347 61 OFFCURVE",
"320 58 OFFCURVE",
"288 58 CURVE SMOOTH",
"208 58 LINE",
"208 256 LINE"
);
}
);
};
components = (
{
name = D;
transform = "{1, 0, 0, 1, 36, 0}";
}
);
layerId = "CFA4B904-E3F1-48B6-A7F6-47DC1FF2A3E1";
paths = (
{
closed = 1;
nodes = (
"342 308 LINE",
"331 256 LINE",
"26 256 LINE",
"36 308 LINE"
);
}
);
width = 594;
}
);
unicode = 00D0;
},
{
glyphname = E;
lastChange = "2014-11-24 05:17:59 +0000";
layers = (
{
anchors = (
{
name = top.cap;
position = "{298, 550}";
}
);
layerId = "CFA4B904-E3F1-48B6-A7F6-47DC1FF2A3E1";
paths = (
{
closed = 1;
nodes = (
"137 550 LINE",
"459 550 LINE",
"448 494 LINE",
"192 494 LINE",
"157 313 LINE",
"393 313 LINE",
"382 256 LINE",
"146 256 LINE",
"107 58 LINE",
"363 58 LINE",
"352 0 LINE",
"30 0 LINE"
);
}
);
width = 442;
}
);
unicode = 0045;
},
{
glyphname = Eogonek;
lastChange = "2014-11-24 05:17:59 +0000";
layers = (
{
layerId = "CFA4B904-E3F1-48B6-A7F6-47DC1FF2A3E1";
paths = (
{
closed = 1;
nodes = (
"211 -95 OFFCURVE",
"236 -67 OFFCURVE",
"280 -39 CURVE SMOOTH",
"355 10 LINE",
"363 58 LINE",
"107 58 LINE",
"146 256 LINE",
"381 256 LINE",
"392 313 LINE",
"157 313 LINE",
"192 494 LINE",
"448 494 LINE",
"459 550 LINE",
"137 550 LINE",
"30 0 LINE",
"262 0 LINE",
"252 -5 LINE",
"199 -36 OFFCURVE",
"158 -80 OFFCURVE",
"149 -124 CURVE SMOOTH",
"138 -179 OFFCURVE",
"166 -210 OFFCURVE",
"214 -210 CURVE SMOOTH",
"245 -210 OFFCURVE",
"284 -199 OFFCURVE",
"322 -174 CURVE",
"304 -135 LINE",
"276 -150 OFFCURVE",
"254 -159 OFFCURVE",
"233 -159 CURVE SMOOTH",
"213 -159 OFFCURVE",
"200 -149 OFFCURVE",
"205 -123 CURVE SMOOTH"
);
}
);
width = 446;
}
);
unicode = 0118;
},
{
glyphname = F;
lastChange = "2014-11-24 05:17:59 +0000";
layers = (
{
layerId = "CFA4B904-E3F1-48B6-A7F6-47DC1FF2A3E1";
paths = (
{
closed = 1;
nodes = (
"157 313 LINE",
"388 313 LINE",
"377 256 LINE",
"146 256 LINE",
"96 0 LINE",
"30 0 LINE",
"137 550 LINE",
"457 550 LINE",
"446 494 LINE",
"192 494 LINE"
);
}
);
width = 424;
}
);
unicode = 0046;
},
{
glyphname = G;
lastChange = "2014-11-24 05:17:59 +0000";
layers = (
{
anchors = (
{
name = bottom;
position = "{296, 0}";
},
{
name = top.cap;
position = "{389, 550}";
}
);
background = {
paths = (
{
closed = 1;
nodes = (
"483 482 OFFCURVE",
"425 500 OFFCURVE",
"375 500 CURVE SMOOTH",
"296 500 OFFCURVE",
"218 453 OFFCURVE",
"175 392 CURVE SMOOTH",
"154 357 OFFCURVE",
"140 320 OFFCURVE",
"133 281 CURVE SMOOTH",
"114 186 OFFCURVE",
"146 117 OFFCURVE",
"201 84 CURVE SMOOTH",
"231 62 OFFCURVE",
"261 50 OFFCURVE",
"308 50 CURVE SMOOTH",
"349 50 OFFCURVE",
"403 64 OFFCURVE",
"438 89 CURVE",
"465 237 LINE",
"307 237 LINE",
"318 291 LINE",
"537 291 LINE",
"492 72 LINE",
"472 55 OFFCURVE",
"443 35 OFFCURVE",
"403 21 CURVE SMOOTH",
"367 4 OFFCURVE",
"322 -8 OFFCURVE",
"265 -8 CURVE SMOOTH",
"164 -8 OFFCURVE",
"91 47 OFFCURVE",
"63 126 CURVE SMOOTH",
"49 171 OFFCURVE",
"47 218 OFFCURVE",
"57 266 CURVE SMOOTH",
"80 386 OFFCURVE",
"157 476 OFFCURVE",
"243 518 CURVE SMOOTH",
"287 545 OFFCURVE",
"336 558 OFFCURVE",
"389 558 CURVE SMOOTH",
"460 558 OFFCURVE",
"511 542 OFFCURVE",
"558 511 CURVE",
"518 461 LINE"
);
}
);
};
layerId = "CFA4B904-E3F1-48B6-A7F6-47DC1FF2A3E1";
paths = (
{
closed = 1;
nodes = (
"307 237 LINE",
"462 237 LINE",
"431 71 LINE",
"392 59 OFFCURVE",
"358 53 OFFCURVE",
"318 53 CURVE SMOOTH",
"213 53 OFFCURVE",
"128 110 OFFCURVE",
"128 227 CURVE",
"121 348 OFFCURVE",
"209 498 OFFCURVE",
"388 498 CURVE SMOOTH",
"445 498 OFFCURVE",
"474 489 OFFCURVE",
"514 474 CURVE",
"549 530 LINE",
"480 555 OFFCURVE",
"453 558 OFFCURVE",
"389 558 CURVE SMOOTH",
"201 558 OFFCURVE",
"57 422 OFFCURVE",
"57 223 CURVE SMOOTH",
"57 85 OFFCURVE",
"161 -9 OFFCURVE",
"296 -9 CURVE SMOOTH",
"369 -9 OFFCURVE",
"428 9 OFFCURVE",
"485 32 CURVE",
"537 291 LINE",
"318 291 LINE"
);
}
);
width = 562;
}
);
unicode = 0047;
},
{
glyphname = H;
lastChange = "2014-11-24 05:17:59 +0000";
layers = (
{
anchors = (
{
name = top.cap;
position = "{356, 550}";
}
);
layerId = "CFA4B904-E3F1-48B6-A7F6-47DC1FF2A3E1";
paths = (
{
closed = 1;
nodes = (
"575 550 LINE",
"468 0 LINE",
"402 0 LINE",
"450 247 LINE",
"144 247 LINE",
"96 0 LINE",
"30 0 LINE",
"137 550 LINE",
"203 550 LINE",
"156 307 LINE",
"462 307 LINE",
"509 550 LINE"
);
}
);
width = 572;
}
);
unicode = 0048;
},
{
glyphname = I;
lastChange = "2014-11-24 05:17:59 +0000";
layers = (
{
anchors = (
{
name = top.cap;
position = "{172, 550}";
}
);
layerId = "CFA4B904-E3F1-48B6-A7F6-47DC1FF2A3E1";
paths = (
{
closed = 1;
nodes = (
"205 550 LINE",
"98 0 LINE",
"33 0 LINE",
"140 550 LINE"
);
}
);
width = 205;
}
);
unicode = 0049;
},
{
glyphname = IJ;
lastChange = "2014-11-24 05:17:59 +0000";
layers = (
{
background = {
paths = (
{
closed = 1;
nodes = (
"141 550 LINE",
"76 550 LINE",
"-31 0 LINE",
"34 0 LINE"
);
},
{
closed = 1;
nodes = (
"435 550 LINE",
"369 550 LINE",
"294 163 LINE SMOOTH",
"291 147 OFFCURVE",
"286 132 OFFCURVE",
"282 126 CURVE",
"260 79 OFFCURVE",
"213 50 OFFCURVE",
"155 50 CURVE SMOOTH",
"138 50 OFFCURVE",
"120 52 OFFCURVE",
"101 57 CURVE",
"85 3 LINE",
"111 -3 OFFCURVE",
"134 -7 OFFCURVE",
"160 -7 CURVE SMOOTH",
"217 -7 OFFCURVE",
"262 7 OFFCURVE",
"299 38 CURVE",
"334 70 OFFCURVE",
"348 103 OFFCURVE",
"360 163 CURVE SMOOTH"
);
}
);
};
components = (
{
name = I;
}
);
layerId = "CFA4B904-E3F1-48B6-A7F6-47DC1FF2A3E1";
paths = (
{
closed = 1;
nodes = (
"503 550 LINE",
"429 167 LINE SMOOTH",
"407 56 OFFCURVE",
"353 -7 OFFCURVE",
"221 -7 CURVE SMOOTH",
"198 -7 OFFCURVE",
"173 -5 OFFCURVE",
"150 1 CURVE",
"176 62 LINE",
"196 57 OFFCURVE",
"214 55 OFFCURVE",
"231 55 CURVE",
"318 55 OFFCURVE",
"346 93 OFFCURVE",
"370 200 CURVE",
"438 550 LINE"
);
}
);
width = 494;
}
);
unicode = 0132;
},
{
glyphname = Iogonek;
lastChange = "2014-11-24 05:17:59 +0000";
layers = (
{
layerId = "CFA4B904-E3F1-48B6-A7F6-47DC1FF2A3E1";
paths = (
{
closed = 1;
nodes = (
"-1 -4 LINE",
"-56 -35 OFFCURVE",
"-96 -80 OFFCURVE",
"-105 -124 CURVE SMOOTH",
"-116 -179 OFFCURVE",
"-87 -210 OFFCURVE",
"-40 -210 CURVE SMOOTH",
"-10 -210 OFFCURVE",
"30 -199 OFFCURVE",
"68 -174 CURVE",
"51 -135 LINE",
"23 -150 OFFCURVE",
"2 -159 OFFCURVE",
"-21 -159 CURVE SMOOTH",
"-41 -159 OFFCURVE",
"-55 -149 OFFCURVE",
"-50 -123 CURVE SMOOTH",
"-44 -95 OFFCURVE",
"-19 -67 OFFCURVE",
"25 -39 CURVE SMOOTH",
"102 10 LINE",
"206 550 LINE",
"139 550 LINE",
"34 16 LINE"
);
}
);
width = 209;
}
);
unicode = 012E;
},
{
glyphname = J;
lastChange = "2014-11-24 05:17:59 +0000";
layers = (
{
anchors = (
{
name = top.cap;
position = "{292, 550}";
}
);
background = {
paths = (
{
closed = 1;
nodes = (
"325 550 LINE",
"251 167 LINE SMOOTH",
"239 107 OFFCURVE",
"223 75 OFFCURVE",
"187 46 CURVE SMOOTH",
"151 11 OFFCURVE",
"103 -7 OFFCURVE",
"43 -7 CURVE SMOOTH",
"20 -7 OFFCURVE",
"-5 -5 OFFCURVE",
"-28 1 CURVE",
"-3 59 LINE",
"17 54 OFFCURVE",
"35 50 OFFCURVE",
"52 50 CURVE SMOOTH",
"109 50 OFFCURVE",
"153 75 OFFCURVE",
"173 116 CURVE",
"177 128 OFFCURVE",
"181 143 OFFCURVE",
"184 159 CURVE SMOOTH",
"260 550 LINE"
);
}
);
};
layerId = "CFA4B904-E3F1-48B6-A7F6-47DC1FF2A3E1";
paths = (
{
closed = 1;
nodes = (
"325 550 LINE",
"251 167 LINE SMOOTH",
"229 56 OFFCURVE",
"175 -7 OFFCURVE",
"43 -7 CURVE SMOOTH",
"20 -7 OFFCURVE",
"-5 -5 OFFCURVE",
"-28 1 CURVE",
"-2 62 LINE",
"18 57 OFFCURVE",
"36 55 OFFCURVE",
"53 55 CURVE",
"140 55 OFFCURVE",
"168 93 OFFCURVE",
"192 200 CURVE",
"260 550 LINE"
);
}
);
width = 316;
}
);
unicode = 004A;
},
{
glyphname = K;
lastChange = "2014-11-24 05:17:59 +0000";
layers = (
{
anchors = (
{
name = bottom;
position = "{225, 0}";
}
);
background = {
paths = (
{
closed = 1;
nodes = (
"203 550 LINE",
"96 0 LINE",
"30 0 LINE",
"137 550 LINE"
);
},
{
closed = 1;
nodes = (
"528 550 LINE",
"244 288 LINE",
"438 0 LINE",
"350 0 LINE",
"160 282 LINE",
"446 550 LINE"
);
}
);
};
layerId = "CFA4B904-E3F1-48B6-A7F6-47DC1FF2A3E1";
paths = (
{
closed = 1;
nodes = (
"203 550 LINE",
"96 0 LINE",
"30 0 LINE",
"137 550 LINE"
);
},
{
closed = 1;
nodes = (
"528 550 LINE",
"238 278 LINE",
"427 0 LINE",
"350 0 LINE",
"160 282 LINE",
"446 550 LINE"
);
}
);
width = 487;
}
);
unicode = 004B;
},
{
glyphname = L;
lastChange = "2014-11-24 05:17:59 +0000";
layers = (
{
anchors = (
{
name = bottom;
position = "{186, 0}";
},
{
name = top.cap;
position = "{246, 550}";
}
);
background = {
paths = (
{
closed = 1;
nodes = (
"203 550 LINE",
"107 58 LINE",
"354 58 LINE",
"343 0 LINE",
"30 0 LINE",
"137 550 LINE"
);
}
);
};
layerId = "CFA4B904-E3F1-48B6-A7F6-47DC1FF2A3E1";
paths = (
{
closed = 1;
nodes = (
"203 550 LINE",
"110 58 LINE",
"354 58 LINE",
"343 0 LINE",
"30 0 LINE",
"137 550 LINE"
);
}
);
width = 400;
}
);
unicode = 004C;
},
{
glyphname = Lcaron;
lastChange = "2014-11-24 05:17:59 +0000";
layers = (
{
layerId = "CFA4B904-E3F1-48B6-A7F6-47DC1FF2A3E1";
paths = (
{
closed = 1;
nodes = (
"30 0 LINE",
"343 0 LINE",
"354 58 LINE",
"109 58 LINE",
"203 550 LINE",
"137 550 LINE"
);
},
{
closed = 1;
nodes = (
"241 435 LINE",
"293 435 LINE",
"370 586 LINE",
"302 586 LINE"
);
}
);
width = 400;
}
);
unicode = 013D;
},
{
glyphname = Lslash;
lastChange = "2014-11-24 05:17:59 +0000";
layers = (
{
layerId = "CFA4B904-E3F1-48B6-A7F6-47DC1FF2A3E1";
paths = (
{
closed = 1;
nodes = (
"103 282 LINE",
"18 238 LINE",
"5 170 LINE",
"90 215 LINE",
"48 0 LINE",
"361 0 LINE",
"372 58 LINE",
"126 58 LINE",
"163 253 LINE",
"276 312 LINE",
"289 380 LINE",
"176 321 LINE",
"221 550 LINE",
"155 550 LINE"
);
}
);
width = 418;
}
);
unicode = 0141;
},
{
glyphname = M;
lastChange = "2014-11-24 05:17:59 +0000";
layers = (
{
background = {
paths = (
{
closed = 1;
nodes = (
"232 550 LINE",
"343 217 LINE",
"588 550 LINE",
"674 550 LINE",
"567 0 LINE",
"501 0 LINE",
"589 457 LINE",
"362 158 LINE",
"295 158 LINE",
"184 457 LINE",
"96 0 LINE",
"30 0 LINE",
"137 550 LINE"
);
}
);
};
layerId = "CFA4B904-E3F1-48B6-A7F6-47DC1FF2A3E1";
paths = (
{
closed = 1;
nodes = (
"221 550 LINE",
"340 228 LINE",
"577 550 LINE",
"674 550 LINE",
"567 0 LINE",
"501 0 LINE",
"589 457 LINE",
"362 158 LINE",
"295 158 LINE",
"184 457 LINE",
"96 0 LINE",
"30 0 LINE",
"137 550 LINE"
);
}
);
width = 671;
}
);
unicode = 004D;
},
{
glyphname = N;
lastChange = "2014-11-24 05:17:59 +0000";
layers = (
{
anchors = (
{
name = bottom;
position = "{245, 0}";
},
{
name = top.cap;
position = "{370, 550}";
}
);
background = {
paths = (
{
closed = 1;
nodes = (
"222 550 LINE",
"431 89 LINE",
"520 550 LINE",
"588 550 LINE",
"481 0 LINE",
"395 0 LINE",
"185 463 LINE",
"96 0 LINE",
"30 0 LINE",
"137 550 LINE"
);
}
);
};
layerId = "CFA4B904-E3F1-48B6-A7F6-47DC1FF2A3E1";
paths = (
{
closed = 1;
nodes = (
"219 550 LINE",
"419 89 LINE",
"520 550 LINE",
"588 550 LINE",
"469 0 LINE",
"386 0 LINE",
"185 463 LINE",
"96 0 LINE",
"30 0 LINE",
"137 550 LINE"
);
}
);
width = 585;
}
);
unicode = 004E;
},
{
glyphname = O;
lastChange = "2014-11-24 05:17:59 +0000";
layers = (
{
anchors = (
{
name = top.cap;
position = "{364, 550}";
}
);
background = {
paths = (
{
closed = 1;
nodes = (
"257 556 OFFCURVE",
"175 502 OFFCURVE",
"119 428 CURVE SMOOTH",
"88 382 OFFCURVE",
"71 333 OFFCURVE",
"61 280 CURVE SMOOTH",
"49 221 OFFCURVE",
"49 171 OFFCURVE",
"66 131 CURVE SMOOTH",
"89 51 OFFCURVE",
"152 -7 OFFCURVE",
"267 -7 CURVE SMOOTH",
"378 -7 OFFCURVE",
"462 47 OFFCURVE",
"518 122 CURVE SMOOTH",
"546 167 OFFCURVE",
"566 217 OFFCURVE",
"577 270 CURVE SMOOTH",
"588 329 OFFCURVE",
"585 378 OFFCURVE",
"572 419 CURVE",
"548 498 OFFCURVE",
"483 556 OFFCURVE",
"368 556 CURVE SMOOTH"
);
},
{
closed = 1;
nodes = (
"182 51 OFFCURVE",
"148 99 OFFCURVE",
"130 156 CURVE",
"121 192 OFFCURVE",
"124 230 OFFCURVE",
"132 270 CURVE SMOOTH",
"140 315 OFFCURVE",
"155 353 OFFCURVE",
"179 384 CURVE SMOOTH",
"218 445 OFFCURVE",
"273 498 OFFCURVE",
"365 498 CURVE SMOOTH",
"453 498 OFFCURVE",
"488 449 OFFCURVE",
"506 394 CURVE SMOOTH",
"513 357 OFFCURVE",
"513 319 OFFCURVE",
"506 280 CURVE SMOOTH",
"497 234 OFFCURVE",
"480 196 OFFCURVE",
"457 166 CURVE SMOOTH",
"419 103 OFFCURVE",
"362 51 OFFCURVE",
"270 51 CURVE SMOOTH"
);
}
);
};
layerId = "CFA4B904-E3F1-48B6-A7F6-47DC1FF2A3E1";
paths = (
{
closed = 1;
nodes = (
"580 481 OFFCURVE",
"476 557 OFFCURVE",
"364 557 CURVE SMOOTH",
"233 557 OFFCURVE",
"58 455 OFFCURVE",
"58 223 CURVE",
"58 67 OFFCURVE",
"160 -7 OFFCURVE",
"274 -7 CURVE SMOOTH",
"405 -7 OFFCURVE",
"580 94 OFFCURVE",
"580 326 CURVE"
);
},
{
closed = 1;
nodes = (
"510 174 OFFCURVE",
"411 58 OFFCURVE",
"289 58 CURVE SMOOTH",
"184 58 OFFCURVE",
"127 114 OFFCURVE",
"127 227 CURVE",
"127 375 OFFCURVE",
"227 492 OFFCURVE",
"349 492 CURVE SMOOTH",
"454 492 OFFCURVE",
"510 435 OFFCURVE",
"510 322 CURVE"
);
}
);
width = 606;
}
);
unicode = 004F;
},
{
glyphname = Oslash;
lastChange = "2014-11-24 05:17:59 +0000";
layers = (
{
background = {
paths = (
{
closed = 1;
nodes = (
"90 109 LINE",
"0 37 LINE",
"36 -8 LINE",
"122 64 LINE",
"156 22 OFFCURVE",
"208 -7 OFFCURVE",
"289 -7 CURVE SMOOTH",
"399 -7 OFFCURVE",
"481 47 OFFCURVE",
"537 122 CURVE SMOOTH",
"565 167 OFFCURVE",
"584 217 OFFCURVE",
"595 270 CURVE SMOOTH",
"606 329 OFFCURVE",
"604 381 OFFCURVE",
"586 435 CURVE",
"679 511 LINE",
"644 556 LINE",
"557 484 LINE",
"523 527 OFFCURVE",
"471 556 OFFCURVE",
"390 556 CURVE SMOOTH",
"278 556 OFFCURVE",
"196 502 OFFCURVE",
"141 429 CURVE SMOOTH",
"112 382 OFFCURVE",
"93 333 OFFCURVE",
"83 280 CURVE SMOOTH",
"71 221 OFFCURVE",
"73 171 OFFCURVE",
"86 129 CURVE SMOOTH"
);
},
{
closed = 1;
nodes = (
"160 315 OFFCURVE",
"177 353 OFFCURVE",
"200 384 CURVE SMOOTH",
"239 445 OFFCURVE",
"294 498 OFFCURVE",
"387 498 CURVE SMOOTH",
"447 498 OFFCURVE",
"482 477 OFFCURVE",
"504 442 CURVE",
"154 160 LINE",
"153 159 LINE",
"143 192 OFFCURVE",
"144 230 OFFCURVE",
"152 270 CURVE SMOOTH"
);
},
{
closed = 1;
nodes = (
"231 51 OFFCURVE",
"197 72 OFFCURVE",
"176 105 CURVE",
"526 389 LINE",
"535 355 OFFCURVE",
"534 317 OFFCURVE",
"527 280 CURVE SMOOTH",
"518 234 OFFCURVE",
"502 196 OFFCURVE",
"478 166 CURVE",
"440 103 OFFCURVE",
"383 51 OFFCURVE",
"292 51 CURVE SMOOTH"
);
}
);
};
layerId = "CFA4B904-E3F1-48B6-A7F6-47DC1FF2A3E1";
paths = (
{
closed = 1;
nodes = (
"601 481 OFFCURVE",
"497 557 OFFCURVE",
"385 557 CURVE SMOOTH",
"254 557 OFFCURVE",
"79 455 OFFCURVE",
"79 223 CURVE",
"79 67 OFFCURVE",
"181 -7 OFFCURVE",
"295 -7 CURVE SMOOTH",
"426 -7 OFFCURVE",
"601 94 OFFCURVE",
"601 326 CURVE"
);
},
{
closed = 1;
nodes = (
"531 174 OFFCURVE",
"432 58 OFFCURVE",
"310 58 CURVE SMOOTH",
"205 58 OFFCURVE",
"148 114 OFFCURVE",
"148 227 CURVE",
"148 375 OFFCURVE",
"248 492 OFFCURVE",
"370 492 CURVE SMOOTH",
"475 492 OFFCURVE",
"531 435 OFFCURVE",
"531 322 CURVE"
);
},
{
closed = 1;
nodes = (
"0 37 LINE",
"36 -8 LINE",
"679 511 LINE",
"644 556 LINE"
);
}
);
width = 647;
}
);
unicode = 00D8;
},
{
glyphname = OE;
lastChange = "2014-11-24 05:17:59 +0000";
layers = (
{
layerId = "CFA4B904-E3F1-48B6-A7F6-47DC1FF2A3E1";
paths = (
{
closed = 1;
nodes = (
"145 388 OFFCURVE",
"224 473 OFFCURVE",
"334 488 CURVE SMOOTH",
"350 491 OFFCURVE",
"375 494 OFFCURVE",
"407 494 CURVE SMOOTH",
"427 494 LINE",
"342 58 LINE",
"290 58 LINE SMOOTH",
"269 58 OFFCURVE",
"251 58 OFFCURVE",
"238 61 CURVE",
"151 77 OFFCURVE",
"101 142 OFFCURVE",
"122 259 CURVE SMOOTH"
);
},
{
closed = 1;
nodes = (
"379 550 OFFCURVE",
"330 548 OFFCURVE",
"294 540 CURVE SMOOTH",
"169 511 OFFCURVE",
"89 421 OFFCURVE",
"61 277 CURVE SMOOTH",
"47 207 OFFCURVE",
"51 151 OFFCURVE",
"72 109 CURVE SMOOTH",
"106 30 OFFCURVE",
"173 0 OFFCURVE",
"302 0 CURVE SMOOTH",
"637 0 LINE",
"648 58 LINE",
"408 58 LINE",
"447 256 LINE",
"666 256 LINE",
"677 313 LINE",
"458 313 LINE",
"493 494 LINE",
"733 494 LINE",
"744 550 LINE",
"440 550 LINE SMOOTH"
);
}
);
width = 726;
}
);
unicode = 0152;
},
{
glyphname = P;
lastChange = "2014-11-24 05:17:59 +0000";
layers = (
{
background = {
paths = (
{
closed = 1;
nodes = (
"200 286 OFFCURVE",
"176 287 OFFCURVE",
"149 289 CURVE",
"191 494 LINE",
"265 494 LINE SMOOTH",
"300 494 OFFCURVE",
"324 494 OFFCURVE",
"337 491 CURVE",
"387 485 OFFCURVE",
"417 454 OFFCURVE",
"406 397 CURVE SMOOTH",
"387 298 OFFCURVE",
"310 286 OFFCURVE",
"219 286 CURVE SMOOTH"
);
},
{
closed = 1;
nodes = (
"485 463 OFFCURVE",
"456 518 OFFCURVE",
"394 539 CURVE",
"382 544 OFFCURVE",
"367 550 OFFCURVE",
"307 550 CURVE SMOOTH",
"136 550 LINE",
"29 0 LINE",
"95 0 LINE",
"142 230 LINE",
"165 228 OFFCURVE",
"187 228 OFFCURVE",
"209 228 CURVE SMOOTH",
"253 228 OFFCURVE",
"310 232 OFFCURVE",
"344 241 CURVE SMOOTH",
"404 261 OFFCURVE",
"453 312 OFFCURVE",
"470 383 CURVE"
);
}
);
};
layerId = "CFA4B904-E3F1-48B6-A7F6-47DC1FF2A3E1";
paths = (
{
closed = 1;
nodes = (
"200 286 OFFCURVE",
"176 287 OFFCURVE",
"149 289 CURVE",
"191 494 LINE",
"265 494 LINE SMOOTH",
"300 494 OFFCURVE",
"324 494 OFFCURVE",
"337 491 CURVE",
"387 485 OFFCURVE",
"417 454 OFFCURVE",
"406 397 CURVE SMOOTH",
"387 298 OFFCURVE",
"310 286 OFFCURVE",
"219 286 CURVE SMOOTH"
);
},
{
closed = 1;
nodes = (
"494 507 OFFCURVE",
"414 550 OFFCURVE",
"302 550 CURVE SMOOTH",
"136 550 LINE",
"29 0 LINE",
"95 0 LINE",
"142 230 LINE",
"165 228 OFFCURVE",
"187 228 OFFCURVE",
"209 228 CURVE SMOOTH",
"337 228 OFFCURVE",
"437 247 OFFCURVE",
"470 383 CURVE"
);
}
);
width = 465;
}
);
unicode = 0050;
},
{
glyphname = Thorn;
lastChange = "2014-11-24 05:17:59 +0000";
layers = (
{
layerId = "CFA4B904-E3F1-48B6-A7F6-47DC1FF2A3E1";
paths = (
{
closed = 1;
nodes = (
"249 450 OFFCURVE",
"220 448 OFFCURVE",
"181 445 CURVE",
"203 550 LINE",
"137 550 LINE",
"30 0 LINE",
"96 0 LINE",
"123 129 LINE",
"147 127 OFFCURVE",
"169 126 OFFCURVE",
"192 126 CURVE SMOOTH",
"322 126 OFFCURVE",
"427 153 OFFCURVE",
"453 287 CURVE SMOOTH",
"474 394 OFFCURVE",
"405 450 OFFCURVE",
"277 450 CURVE SMOOTH"
);
},
{
closed = 1;
nodes = (
"371 207 OFFCURVE",
"309 185 OFFCURVE",
"208 185 CURVE SMOOTH",
"188 185 OFFCURVE",
"161 185 OFFCURVE",
"131 188 CURVE",
"174 388 LINE",
"205 389 OFFCURVE",
"232 390 OFFCURVE",
"257 390 CURVE SMOOTH",
"344 390 OFFCURVE",
"403 372 OFFCURVE",
"389 297 CURVE SMOOTH"
);
}
);
width = 469;
}
);
unicode = 00DE;
},
{
glyphname = Q;
lastChange = "2014-11-24 05:17:59 +0000";
layers = (
{
background = {
paths = (
{
closed = 1;
nodes = (
"258 556 OFFCURVE",
"175 502 OFFCURVE",
"119 428 CURVE SMOOTH",
"88 382 OFFCURVE",
"71 333 OFFCURVE",
"61 280 CURVE SMOOTH",
"49 221 OFFCURVE",
"49 171 OFFCURVE",
"66 131 CURVE SMOOTH",
"89 51 OFFCURVE",
"153 -7 OFFCURVE",
"269 -7 CURVE SMOOTH",
"333 -7 OFFCURVE",
"393 11 OFFCURVE",
"439 45 CURVE",
"501 -22 LINE",
"548 21 LINE",
"487 87 LINE",
"498 99 OFFCURVE",
"508 111 OFFCURVE",
"518 123 CURVE SMOOTH",
"548 167 OFFCURVE",
"566 217 OFFCURVE",
"577 270 CURVE SMOOTH",
"588 329 OFFCURVE",
"587 378 OFFCURVE",
"572 420 CURVE SMOOTH",
"548 498 OFFCURVE",
"484 556 OFFCURVE",
"370 556 CURVE SMOOTH"
);
},
{
closed = 1;
nodes = (
"304 204 LINE",
"402 92 LINE",
"366 68 OFFCURVE",
"324 51 OFFCURVE",
"272 51 CURVE SMOOTH",
"184 51 OFFCURVE",
"149 99 OFFCURVE",
"131 156 CURVE SMOOTH",
"123 192 OFFCURVE",
"124 230 OFFCURVE",
"132 270 CURVE SMOOTH",
"140 315 OFFCURVE",
"157 353 OFFCURVE",
"180 384 CURVE SMOOTH",
"219 445 OFFCURVE",
"275 498 OFFCURVE",
"367 498 CURVE SMOOTH",
"454 498 OFFCURVE",
"489 449 OFFCURVE",
"507 394 CURVE SMOOTH",
"515 357 OFFCURVE",
"514 319 OFFCURVE",
"507 280 CURVE SMOOTH",
"496 227 OFFCURVE",
"475 177 OFFCURVE",
"447 138 CURVE",
"353 245 LINE"
);
}
);
};
layerId = "CFA4B904-E3F1-48B6-A7F6-47DC1FF2A3E1";
paths = (
{
closed = 1;
nodes = (
"580 481 OFFCURVE",
"476 557 OFFCURVE",
"364 557 CURVE SMOOTH",
"233 557 OFFCURVE",
"58 455 OFFCURVE",
"58 223 CURVE",
"58 67 OFFCURVE",
"160 -7 OFFCURVE",
"274 -7 CURVE SMOOTH",
"405 -7 OFFCURVE",
"580 94 OFFCURVE",
"580 326 CURVE"
);
},
{
closed = 1;
nodes = (
"510 174 OFFCURVE",
"411 58 OFFCURVE",
"289 58 CURVE SMOOTH",
"184 58 OFFCURVE",
"127 114 OFFCURVE",
"127 227 CURVE",
"127 375 OFFCURVE",
"227 492 OFFCURVE",
"349 492 CURVE SMOOTH",
"454 492 OFFCURVE",
"510 435 OFFCURVE",
"510 322 CURVE"
);
},
{
closed = 1;
nodes = (
"304 204 LINE",
"501 -22 LINE",
"548 21 LINE",
"353 245 LINE"
);
}
);
width = 609;
}
);
unicode = 0051;
},
{
glyphname = R;
lastChange = "2014-11-24 05:17:59 +0000";
layers = (
{
anchors = (
{
name = bottom;
position = "{232, 0}";
},
{
name = top.cap;
position = "{292, 550}";
}
);
background = {
paths = (
{
closed = 1;
nodes = (
"425 0 LINE",
"317 236 LINE",
"398 256 OFFCURVE",
"456 311 OFFCURVE",
"471 383 CURVE SMOOTH",
"486 462 OFFCURVE",
"457 515 OFFCURVE",
"395 539 CURVE",
"383 546 OFFCURVE",
"368 550 OFFCURVE",
"308 550 CURVE SMOOTH",
"137 550 LINE",
"30 0 LINE",
"96 0 LINE",
"140 228 LINE",
"246 228 LINE",
"352 0 LINE"
);
},
{
closed = 1;
nodes = (
"201 286 OFFCURVE",
"177 287 OFFCURVE",
"150 289 CURVE",
"192 494 LINE",
"266 494 LINE SMOOTH",
"301 494 OFFCURVE",
"325 494 OFFCURVE",
"338 491 CURVE",
"388 485 OFFCURVE",
"418 454 OFFCURVE",
"407 397 CURVE SMOOTH",
"388 298 OFFCURVE",
"311 286 OFFCURVE",
"220 286 CURVE SMOOTH"
);
}
);
};
layerId = "CFA4B904-E3F1-48B6-A7F6-47DC1FF2A3E1";
paths = (
{
closed = 1;
nodes = (
"425 0 LINE",
"317 236 LINE",
"428 264 OFFCURVE",
"475 346 OFFCURVE",
"475 420 CURVE SMOOTH",
"475 506 OFFCURVE",
"418 550 OFFCURVE",
"318 550 CURVE SMOOTH",
"137 550 LINE",
"30 0 LINE",
"96 0 LINE",
"140 228 LINE",
"251 228 LINE",
"352 0 LINE"
);
},
{
closed = 1;
nodes = (
"150 286 LINE",
"192 494 LINE",
"266 494 LINE SMOOTH",
"343 494 OFFCURVE",
"409 495 OFFCURVE",
"409 420 CURVE SMOOTH",
"409 333 OFFCURVE",
"354 286 OFFCURVE",
"215 286 CURVE"
);
}
);
width = 495;
}
);
unicode = 0052;
},
{
glyphname = S;
lastChange = "2014-11-24 05:17:59 +0000";
layers = (
{
anchors = (
{
name = bottom;
position = "{176, 2}";
},
{
name = top.cap;
position = "{301, 549}";
}
);
background = {
paths = (
{
closed = 1;
nodes = (
"143 60 OFFCURVE",
"100 68 OFFCURVE",
"41 92 CURVE",
"9 30 LINE",
"63 10 OFFCURVE",
"100 -8 OFFCURVE",
"172 -8 CURVE SMOOTH",
"278 -8 OFFCURVE",
"389 38 OFFCURVE",
"410 144 CURVE SMOOTH",
"431 251 OFFCURVE",
"337 277 OFFCURVE",
"257 311 CURVE SMOOTH",
"214 332 OFFCURVE",
"152 355 OFFCURVE",
"163 410 CURVE SMOOTH",
"174 466 OFFCURVE",
"230 497 OFFCURVE",
"309 497 CURVE SMOOTH",
"346 497 OFFCURVE",
"388 482 OFFCURVE",
"425 466 CURVE",
"452 523 LINE",
"409 542 OFFCURVE",
"357 562 OFFCURVE",
"305 562 CURVE SMOOTH",
"249 562 OFFCURVE",
"208 551 OFFCURVE",
"163 524 CURVE SMOOTH",
"128 499 OFFCURVE",
"105 461 OFFCURVE",
"95 413 CURVE SMOOTH",
"78 326 OFFCURVE",
"140 291 OFFCURVE",
"218 259 CURVE SMOOTH",
"274 233 OFFCURVE",
"352 211 OFFCURVE",
"340 150 CURVE SMOOTH",
"328 87 OFFCURVE",
"254 60 OFFCURVE",
"179 60 CURVE SMOOTH"
);
}
);
};
layerId = "CFA4B904-E3F1-48B6-A7F6-47DC1FF2A3E1";
paths = (
{
closed = 1;
nodes = (
"143 60 OFFCURVE",
"100 68 OFFCURVE",
"41 92 CURVE",
"9 30 LINE",
"63 10 OFFCURVE",
"100 -8 OFFCURVE",
"172 -8 CURVE SMOOTH",
"327 -8 OFFCURVE",
"413 78 OFFCURVE",
"413 160 CURVE SMOOTH",
"413 256 OFFCURVE",
"329 280 OFFCURVE",
"257 311 CURVE SMOOTH",
"217 330 OFFCURVE",
"162 361 OFFCURVE",
"162 408 CURVE SMOOTH",
"162 455 OFFCURVE",
"202 497 OFFCURVE",
"309 497 CURVE SMOOTH",
"346 497 OFFCURVE",
"388 482 OFFCURVE",
"425 466 CURVE",
"452 523 LINE",
"409 542 OFFCURVE",
"357 562 OFFCURVE",
"305 562 CURVE SMOOTH",
"186 562 OFFCURVE",
"92 508 OFFCURVE",
"92 401 CURVE SMOOTH",
"92 333 OFFCURVE",
"149 287 OFFCURVE",
"218 259 CURVE SMOOTH",
"270 235 OFFCURVE",
"341 214 OFFCURVE",
"341 158 CURVE SMOOTH",
"341 111 OFFCURVE",
"287 60 OFFCURVE",
"179 60 CURVE SMOOTH"
);
}
);
width = 463;
}
);
unicode = 0053;
},
{
glyphname = T;
lastChange = "2014-11-24 05:17:59 +0000";
layers = (
{
anchors = (
{
name = bottom;
position = "{182, 0}";
},
{
name = top.cap;
position = "{293, 550}";
}
);
background = {
paths = (
{
closed = 1;
nodes = (
"512 550 LINE",
"501 494 LINE",
"316 494 LINE",
"220 0 LINE",
"154 0 LINE",
"250 494 LINE",
"68 494 LINE",
"79 550 LINE"
);
}
);
};
layerId = "CFA4B904-E3F1-48B6-A7F6-47DC1FF2A3E1";
paths = (
{
closed = 1;
nodes = (
"505 550 LINE",
"494 494 LINE",
"316 494 LINE",
"220 0 LINE",
"154 0 LINE",
"250 494 LINE",
"68 494 LINE",
"79 550 LINE"
);
}
);
width = 444;
}
);
unicode = 0054;
},
{
glyphname = Tcedilla;
lastChange = "2014-11-24 05:17:59 +0000";
layers = (
{
background = {
paths = (
{
closed = 1;
nodes = (
"156 -171 OFFCURVE",
"135 -167 OFFCURVE",
"101 -158 CURVE",
"92 -153 LINE",
"68 -206 LINE",
"80 -209 LINE",
"124 -220 LINE",
"136 -224 OFFCURVE",
"145 -226 OFFCURVE",
"164 -226 CURVE SMOOTH",
"220 -226 OFFCURVE",
"263 -192 OFFCURVE",
"271 -150 CURVE SMOOTH",
"284 -84 OFFCURVE",
"240 -65 OFFCURVE",
"207 -55 CURVE",
"197 -52 LINE",
"220 0 LINE",
"316 494 LINE",
"501 494 LINE",
"512 550 LINE",
"79 550 LINE",
"68 494 LINE",
"250 494 LINE",
"154 0 LINE",
"116 -91 LINE",
"183 -105 LINE SMOOTH",
"200 -109 OFFCURVE",
"219 -119 OFFCURVE",
"215 -137 CURVE SMOOTH",
"211 -162 OFFCURVE",
"188 -174 OFFCURVE",
"163 -173 CURVE SMOOTH"
);
}
);
};
layerId = "CFA4B904-E3F1-48B6-A7F6-47DC1FF2A3E1";
paths = (
{
closed = 1;
nodes = (
"144 -171 OFFCURVE",
"119 -164 OFFCURVE",
"92 -153 CURVE",
"68 -205 LINE",
"106 -219 OFFCURVE",
"135 -226 OFFCURVE",
"164 -226 CURVE SMOOTH",
"242 -226 OFFCURVE",
"273 -172 OFFCURVE",
"273 -126 CURVE SMOOTH",
"273 -79 OFFCURVE",
"236 -64 OFFCURVE",
"207 -55 CURVE",
"197 -52 LINE",
"220 0 LINE",
"316 494 LINE",
"501 494 LINE",
"512 550 LINE",
"79 550 LINE",
"68 494 LINE",
"250 494 LINE",
"154 0 LINE",
"116 -91 LINE",
"183 -105 LINE SMOOTH",
"199 -109 OFFCURVE",
"216 -117 OFFCURVE",
"216 -133 CURVE SMOOTH",
"216 -155 OFFCURVE",
"203 -171 OFFCURVE",
"163 -171 CURVE SMOOTH"
);
}
);
width = 451;
}
);
unicode = 0162;
},
{
glyphname = U;
lastChange = "2014-11-24 05:17:59 +0000";
layers = (
{
anchors = (
{
name = top.cap;
position = "{325, 550}";
}
);
background = {
paths = (
{
closed = 1;
nodes = (
"384 -9 OFFCURVE",
"456 64 OFFCURVE",
"484 208 CURVE SMOOTH",
"550 550 LINE",
"485 550 LINE",
"416 196 LINE SMOOTH",
"410 163 OFFCURVE",
"396 135 OFFCURVE",
"379 114 CURVE SMOOTH",
"351 71 OFFCURVE",
"305 49 OFFCURVE",
"240 49 CURVE SMOOTH",
"178 49 OFFCURVE",
"142 67 OFFCURVE",
"127 106 CURVE SMOOTH",
"121 131 OFFCURVE",
"121 159 OFFCURVE",
"127 192 CURVE SMOOTH",
"197 550 LINE",
"132 550 LINE",
"66 212 LINE SMOOTH",
"38 68 OFFCURVE",
"84 -9 OFFCURVE",
"236 -9 CURVE SMOOTH"
);
}
);
};
layerId = "CFA4B904-E3F1-48B6-A7F6-47DC1FF2A3E1";
paths = (
{
closed = 1;
nodes = (
"384 -9 OFFCURVE",
"456 64 OFFCURVE",
"484 208 CURVE SMOOTH",
"550 550 LINE",
"485 550 LINE",
"416 196 LINE SMOOTH",
"402 119 OFFCURVE",
"350 49 OFFCURVE",
"240 49 CURVE SMOOTH",
"136 49 OFFCURVE",
"110 100 OFFCURVE",
"127 192 CURVE SMOOTH",
"197 550 LINE",
"132 550 LINE",
"66 212 LINE SMOOTH",
"38 68 OFFCURVE",
"84 -9 OFFCURVE",
"236 -9 CURVE SMOOTH"
);
}
);
width = 543;
}
);
unicode = 0055;
},
{
glyphname = Uogonek;
lastChange = "2014-11-24 05:17:59 +0000";
layers = (
{
background = {
paths = (
{
closed = 1;
nodes = (
"385 -211 OFFCURVE",
"428 -200 OFFCURVE",
"463 -174 CURVE",
"442 -133 LINE",
"418 -150 OFFCURVE",
"394 -159 OFFCURVE",
"368 -159 CURVE SMOOTH",
"341 -159 OFFCURVE",
"330 -142 OFFCURVE",
"330 -118 CURVE SMOOTH",
"330 -95 OFFCURVE",
"343 -69 OFFCURVE",
"369 -41 CURVE",
"403 -11 OFFCURVE",
"447 10 OFFCURVE",
"491 34 CURVE",
"530 62 OFFCURVE",
"549 116 OFFCURVE",
"550 177 CURVE SMOOTH",
"550 550 LINE",
"485 550 LINE",
"485 194 LINE SMOOTH",
"485 171 OFFCURVE",
"483 152 OFFCURVE",
"478 137 CURVE",
"464 81 OFFCURVE",
"409 49 OFFCURVE",
"341 49 CURVE SMOOTH",
"291 49 OFFCURVE",
"251 64 OFFCURVE",
"228 91 CURVE SMOOTH",
"203 119 OFFCURVE",
"198 145 OFFCURVE",
"198 194 CURVE SMOOTH",
"198 550 LINE",
"132 550 LINE",
"132 240 LINE",
"132 202 LINE SMOOTH",
"132 182 OFFCURVE",
"132 165 OFFCURVE",
"133 149 CURVE SMOOTH",
"141 46 OFFCURVE",
"219 -10 OFFCURVE",
"340 -10 CURVE",
"326 -22 OFFCURVE",
"307 -38 OFFCURVE",
"295 -60 CURVE",
"280 -82 OFFCURVE",
"275 -105 OFFCURVE",
"275 -132 CURVE SMOOTH",
"275 -175 OFFCURVE",
"309 -211 OFFCURVE",
"358 -211 CURVE SMOOTH"
);
}
);
};
layerId = "CFA4B904-E3F1-48B6-A7F6-47DC1FF2A3E1";
paths = (
{
closed = 1;
nodes = (
"239 -211 OFFCURVE",
"284 -201 OFFCURVE",
"324 -175 CURVE",
"306 -132 LINE",
"280 -149 OFFCURVE",
"254 -159 OFFCURVE",
"226 -159 CURVE SMOOTH",
"201 -159 OFFCURVE",
"195 -144 OFFCURVE",
"199 -123 CURVE SMOOTH",
"211 -60 OFFCURVE",
"298 -13 OFFCURVE",
"353 12 CURVE SMOOTH",
"420 46 OFFCURVE",
"460 88 OFFCURVE",
"478 180 CURVE SMOOTH",
"550 550 LINE",
"485 550 LINE",
"416 196 LINE SMOOTH",
"412 173 OFFCURVE",
"405 154 OFFCURVE",
"398 142 CURVE",
"373 83 OFFCURVE",
"310 49 OFFCURVE",
"240 49 CURVE SMOOTH",
"192 49 OFFCURVE",
"155 62 OFFCURVE",
"135 87 CURVE SMOOTH",
"118 117 OFFCURVE",
"119 143 OFFCURVE",
"128 192 CURVE SMOOTH",
"198 550 LINE",
"132 550 LINE",
"73 245 LINE",
"66 209 LINE SMOOTH",
"62 189 OFFCURVE",
"59 172 OFFCURVE",
"57 159 CURVE SMOOTH",
"44 53 OFFCURVE",
"112 -10 OFFCURVE",
"231 -9 CURVE",
"191 -41 OFFCURVE",
"155 -75 OFFCURVE",
"143 -127 CURVE SMOOTH",
"132 -173 OFFCURVE",
"163 -211 OFFCURVE",
"214 -211 CURVE SMOOTH"
);
}
);
width = 542;
}
);
unicode = 0172;
},
{
glyphname = V;
lastChange = "2014-11-24 05:17:59 +0000";
layers = (
{
background = {
paths = (
{
closed = 1;
nodes = (
"172 389 LINE",
"382 389 LINE",
"465 550 LINE",
"541 550 LINE",
"246 0 LINE",
"161 0 LINE",
"79 550 LINE",
"151 550 LINE"
);
},
{
closed = 1;
nodes = (
"180 332 LINE",
"215 69 LINE",
"352 332 LINE"
);
}
);
};
layerId = "CFA4B904-E3F1-48B6-A7F6-47DC1FF2A3E1";
paths = (
{
closed = 1;
nodes = (
"151 550 LINE",
"215 69 LINE",
"465 550 LINE",
"541 550 LINE",
"246 0 LINE",
"161 0 LINE",
"79 550 LINE"
);
}
);
width = 480;
}
);
unicode = 0056;
},
{
glyphname = W;
lastChange = "2014-11-24 05:17:59 +0000";
layers = (
{
background = {
paths = (
{
closed = 1;
nodes = (
"479 550 LINE",
"543 69 LINE",
"793 550 LINE",
"869 550 LINE",
"574 0 LINE",
"489 0 LINE",
"407 550 LINE"
);
}
);
};
layerId = "CFA4B904-E3F1-48B6-A7F6-47DC1FF2A3E1";
paths = (
{
closed = 1;
nodes = (
"153 550 LINE",
"171 88 LINE",
"410 550 LINE",
"473 550 LINE",
"513 88 LINE",
"723 550 LINE",
"800 550 LINE",
"544 0 LINE",
"456 0 LINE",
"419 422 LINE",
"192 0 LINE",
"112 0 LINE",
"79 550 LINE"
);
}
);
width = 739;
}
);
unicode = 0057;
},
{
glyphname = X;
lastChange = "2014-11-24 05:17:59 +0000";
layers = (
{
background = {
paths = (
{
closed = 1;
nodes = (
"530 550 LINE",
"305 289 LINE",
"446 0 LINE",
"359 0 LINE",
"248 232 LINE",
"49 0 LINE",
"-29 0 LINE",
"224 288 LINE",
"97 550 LINE",
"180 550 LINE",
"281 344 LINE",
"457 550 LINE"
);
}
);
};
layerId = "CFA4B904-E3F1-48B6-A7F6-47DC1FF2A3E1";
paths = (
{
closed = 1;
nodes = (
"172 550 LINE",
"437 0 LINE",
"358 1 LINE",
"96 551 LINE"
);
},
{
closed = 1;
nodes = (
"537 550 LINE",
"56 0 LINE",
"-28 1 LINE",
"456 550 LINE"
);
}
);
width = 483;
}
);
unicode = 0058;
},
{
glyphname = Y;
lastChange = "2014-11-24 05:17:59 +0000";
layers = (
{
anchors = (
{
name = top.cap;
position = "{292, 550}";
}
);
background = {
paths = (
{
closed = 1;
nodes = (
"155 0 LINE",
"205 261 LINE",
"79 550 LINE",
"159 550 LINE",
"257 324 LINE",
"442 550 LINE",
"515 550 LINE",
"271 261 LINE",
"221 0 LINE"
);
}
);
};
guideLines = (
{
angle = 90;
position = "{299, 453}";
}
);
layerId = "CFA4B904-E3F1-48B6-A7F6-47DC1FF2A3E1";
paths = (
{
closed = 1;
nodes = (
"155 0 LINE",
"204 254 LINE",
"79 550 LINE",
"152 550 LINE",
"249 324 LINE",
"437 550 LINE",
"515 550 LINE",
"269 249 LINE",
"221 0 LINE"
);
}
);
width = 454;
}
);
unicode = 0059;
},
{
glyphname = Z;
lastChange = "2014-11-24 05:17:59 +0000";
layers = (
{
anchors = (
{
name = top.cap;
position = "{302, 550}";
}
);
background = {
paths = (
{
closed = 1;
nodes = (
"507 550 LINE",
"498 509 LINE",
"92 58 LINE",
"413 58 LINE",
"402 0 LINE",
"-1 0 LINE",
"8 43 LINE",
"412 494 LINE",
"106 494 LINE",
"117 550 LINE"
);
}
);
};
layerId = "CFA4B904-E3F1-48B6-A7F6-47DC1FF2A3E1";
paths = (
{
closed = 1;
nodes = (
"507 550 LINE",
"498 509 LINE",
"104 58 LINE",
"413 58 LINE",
"402 0 LINE",
"-1 0 LINE",
"8 43 LINE",
"400 494 LINE",
"106 494 LINE",
"117 550 LINE"
);
}
);
width = 475;
}
);
unicode = 005A;
},
{
glyphname = a;
lastChange = "2014-11-24 05:17:59 +0000";
layers = (
{
anchors = (
{
name = top;
position = "{226, 384}";
}
);
background = {
paths = (
{
closed = 1;
nodes = (
"297 333 OFFCURVE",
"326 318 OFFCURVE",
"337 288 CURVE",
"342 276 OFFCURVE",
"345 256 OFFCURVE",
"345 228 CURVE SMOOTH",
"345 225 LINE",
"286 225 OFFCURVE",
"238 218 OFFCURVE",
"200 208 CURVE SMOOTH",
"150 196 OFFCURVE",
"107 159 OFFCURVE",
"107 96 CURVE SMOOTH",
"107 33 OFFCURVE",
"162 -10 OFFCURVE",
"230 -10 CURVE SMOOTH",
"273 -10 OFFCURVE",
"311 7 OFFCURVE",
"347 36 CURVE",
"361 0 LINE",
"410 0 LINE",
"410 248 LINE SMOOTH",
"410 312 OFFCURVE",
"397 339 OFFCURVE",
"357 368 CURVE",
"335 381 OFFCURVE",
"301 388 OFFCURVE",
"258 388 CURVE SMOOTH",
"217 388 OFFCURVE",
"174 379 OFFCURVE",
"133 365 CURVE",
"146 317 LINE",
"178 327 OFFCURVE",
"222 333 OFFCURVE",
"249 333 CURVE SMOOTH"
);
},
{
closed = 1;
nodes = (
"230 42 OFFCURVE",
"220 44 OFFCURVE",
"212 47 CURVE",
"190 58 OFFCURVE",
"170 77 OFFCURVE",
"170 103 CURVE SMOOTH",
"170 113 OFFCURVE",
"174 121 OFFCURVE",
"179 131 CURVE",
"192 152 OFFCURVE",
"214 165 OFFCURVE",
"243 171 CURVE SMOOTH",
"258 174 OFFCURVE",
"293 177 OFFCURVE",
"345 178 CURVE",
"345 86 LINE",
"317 60 OFFCURVE",
"286 42 OFFCURVE",
"239 42 CURVE SMOOTH"
);
},
{
closed = 1;
nodes = (
"257 333 OFFCURVE",
"282 320 OFFCURVE",
"288 293 CURVE",
"290 278 OFFCURVE",
"288 258 OFFCURVE",
"283 230 CURVE SMOOTH",
"280 225 LINE",
"221 224 OFFCURVE",
"174 221 OFFCURVE",
"132 211 CURVE SMOOTH",
"82 199 OFFCURVE",
"31 161 OFFCURVE",
"20 101 CURVE SMOOTH",
"7 35 OFFCURVE",
"55 -10 OFFCURVE",
"125 -10 CURVE SMOOTH",
"166 -10 OFFCURVE",
"207 5 OFFCURVE",
"249 34 CURVE",
"255 0 LINE",
"303 0 LINE",
"351 246 LINE SMOOTH",
"363 310 OFFCURVE",
"354 338 OFFCURVE",
"317 365 CURVE",
"300 380 OFFCURVE",
"268 388 OFFCURVE",
"223 388 CURVE SMOOTH",
"184 388 OFFCURVE",
"139 380 OFFCURVE",
"95 366 CURVE",
"104 316 LINE",
"136 326 OFFCURVE",
"182 333 OFFCURVE",
"211 333 CURVE SMOOTH"
);
},
{
closed = 1;
nodes = (
"104 42 OFFCURVE",
"75 60 OFFCURVE",
"82 98 CURVE SMOOTH",
"90 139 OFFCURVE",
"122 159 OFFCURVE",
"173 169 CURVE SMOOTH",
"187 172 OFFCURVE",
"222 177 OFFCURVE",
"275 178 CURVE",
"253 88 LINE",
"220 62 OFFCURVE",
"185 42 OFFCURVE",
"136 42 CURVE SMOOTH"
);
}
);
};
layerId = "CFA4B904-E3F1-48B6-A7F6-47DC1FF2A3E1";
paths = (
{
closed = 1;
nodes = (
"291 333 OFFCURVE",
"301 305 OFFCURVE",
"283 225 CURVE",
"224 224 OFFCURVE",
"174 221 OFFCURVE",
"132 211 CURVE SMOOTH",
"82 199 OFFCURVE",
"31 161 OFFCURVE",
"20 101 CURVE SMOOTH",
"7 35 OFFCURVE",
"55 -10 OFFCURVE",
"125 -10 CURVE SMOOTH",
"166 -10 OFFCURVE",
"207 5 OFFCURVE",
"249 34 CURVE",
"255 0 LINE",
"303 0 LINE",
"351 246 LINE SMOOTH",
"371 353 OFFCURVE",
"317 388 OFFCURVE",
"223 388 CURVE SMOOTH",
"184 388 OFFCURVE",
"139 380 OFFCURVE",
"95 366 CURVE",
"104 316 LINE",
"136 326 OFFCURVE",
"182 333 OFFCURVE",
"211 333 CURVE SMOOTH"
);
},
{
closed = 1;
nodes = (
"104 42 OFFCURVE",
"75 60 OFFCURVE",
"82 98 CURVE SMOOTH",
"90 139 OFFCURVE",
"122 159 OFFCURVE",
"173 169 CURVE SMOOTH",
"187 172 OFFCURVE",
"222 177 OFFCURVE",
"275 178 CURVE",
"256 88 LINE",
"223 62 OFFCURVE",
"185 42 OFFCURVE",
"136 42 CURVE SMOOTH"
);
}
);
width = 393;
}
);
unicode = 0061;
},
{
glyphname = aogonek;
lastChange = "2014-11-24 05:17:59 +0000";
layers = (
{
background = {
paths = (
{
closed = 1;
nodes = (
"410 312 OFFCURVE",
"397 339 OFFCURVE",
"357 368 CURVE",
"335 381 OFFCURVE",
"301 388 OFFCURVE",
"258 388 CURVE SMOOTH",
"217 388 OFFCURVE",
"174 379 OFFCURVE",
"133 365 CURVE",
"146 317 LINE",
"178 327 OFFCURVE",
"222 333 OFFCURVE",
"249 333 CURVE SMOOTH",
"297 333 OFFCURVE",
"326 318 OFFCURVE",
"337 288 CURVE",
"342 276 OFFCURVE",
"345 256 OFFCURVE",
"345 228 CURVE SMOOTH",
"345 225 LINE",
"286 224 OFFCURVE",
"240 220 OFFCURVE",
"202 210 CURVE SMOOTH",
"152 198 OFFCURVE",
"107 159 OFFCURVE",
"107 96 CURVE SMOOTH",
"107 33 OFFCURVE",
"162 -10 OFFCURVE",
"230 -10 CURVE SMOOTH",
"273 -10 OFFCURVE",
"311 7 OFFCURVE",
"347 36 CURVE",
"358 8 LINE",
"313 -19 LINE SMOOTH",
"250 -57 OFFCURVE",
"217 -93 OFFCURVE",
"217 -144 CURVE SMOOTH",
"217 -190 OFFCURVE",
"254 -214 OFFCURVE",
"296 -214 CURVE SMOOTH",
"329 -214 OFFCURVE",
"362 -200 OFFCURVE",
"401 -177 CURVE",
"382 -142 LINE",
"357 -157 OFFCURVE",
"334 -164 OFFCURVE",
"317 -164 CURVE SMOOTH",
"294 -164 OFFCURVE",
"277 -151 OFFCURVE",
"277 -123 CURVE SMOOTH",
"277 -99 OFFCURVE",
"295 -78 OFFCURVE",
"328 -57 CURVE",
"341 -48 OFFCURVE",
"373 -29 OFFCURVE",
"410 -11 CURVE",
"410 248 LINE SMOOTH"
);
},
{
closed = 1;
nodes = (
"205 42 OFFCURVE",
"170 62 OFFCURVE",
"170 103 CURVE SMOOTH",
"170 141 OFFCURVE",
"196 160 OFFCURVE",
"243 170 CURVE SMOOTH",
"258 173 OFFCURVE",
"293 177 OFFCURVE",
"345 178 CURVE",
"345 86 LINE",
"317 60 OFFCURVE",
"286 42 OFFCURVE",
"239 42 CURVE SMOOTH"
);
}
);
};
layerId = "CFA4B904-E3F1-48B6-A7F6-47DC1FF2A3E1";
paths = (
{
closed = 1;
nodes = (
"351 246 LINE SMOOTH",
"371 353 OFFCURVE",
"318 388 OFFCURVE",
"223 388 CURVE SMOOTH",
"184 388 OFFCURVE",
"139 380 OFFCURVE",
"96 366 CURVE",
"104 316 LINE",
"137 326 OFFCURVE",
"182 333 OFFCURVE",
"211 333 CURVE SMOOTH",
"291 333 OFFCURVE",
"300 305 OFFCURVE",
"283 225 CURVE",
"224 224 OFFCURVE",
"174 221 OFFCURVE",
"132 211 CURVE SMOOTH",
"82 199 OFFCURVE",
"32 161 OFFCURVE",
"20 101 CURVE SMOOTH",
"7 35 OFFCURVE",
"48 -10 OFFCURVE",
"118 -10 CURVE SMOOTH",
"169 -10 OFFCURVE",
"216 11 OFFCURVE",
"254 38 CURVE",
"253 8 LINE",
"201 -18 LINE SMOOTH",
"130 -56 OFFCURVE",
"93 -91 OFFCURVE",
"83 -139 CURVE SMOOTH",
"74 -188 OFFCURVE",
"108 -214 OFFCURVE",
"152 -214 CURVE SMOOTH",
"183 -214 OFFCURVE",
"218 -201 OFFCURVE",
"262 -178 CURVE",
"245 -141 LINE",
"218 -156 OFFCURVE",
"194 -164 OFFCURVE",
"175 -164 CURVE SMOOTH",
"154 -164 OFFCURVE",
"141 -153 OFFCURVE",
"146 -128 CURVE SMOOTH",
"154 -84 OFFCURVE",
"242 -39 OFFCURVE",
"303 -12 CURVE"
);
},
{
closed = 1;
nodes = (
"105 42 OFFCURVE",
"75 60 OFFCURVE",
"82 98 CURVE SMOOTH",
"90 139 OFFCURVE",
"122 159 OFFCURVE",
"173 169 CURVE SMOOTH",
"187 172 OFFCURVE",
"223 177 OFFCURVE",
"275 178 CURVE",
"254 88 LINE",
"220 62 OFFCURVE",
"186 42 OFFCURVE",
"137 42 CURVE SMOOTH"
);
}
);
width = 395;
}
);
unicode = 0105;
},
{
glyphname = ae;
lastChange = "2014-11-24 05:17:59 +0000";
layers = (
{
layerId = "CFA4B904-E3F1-48B6-A7F6-47DC1FF2A3E1";
paths = (
{
closed = 1;
nodes = (
"420 389 OFFCURVE",
"378 372 OFFCURVE",
"338 333 CURVE",
"321 365 OFFCURVE",
"288 388 OFFCURVE",
"223 388 CURVE SMOOTH",
"184 388 OFFCURVE",
"139 380 OFFCURVE",
"95 366 CURVE",
"104 316 LINE",
"136 326 OFFCURVE",
"182 333 OFFCURVE",
"211 333 CURVE SMOOTH",
"291 333 OFFCURVE",
"300 297 OFFCURVE",
"283 225 CURVE",
"224 225 OFFCURVE",
"172 219 OFFCURVE",
"130 209 CURVE SMOOTH",
"79 197 OFFCURVE",
"31 161 OFFCURVE",
"20 101 CURVE SMOOTH",
"7 35 OFFCURVE",
"55 -10 OFFCURVE",
"125 -10 CURVE SMOOTH",
"187 -10 OFFCURVE",
"244 12 OFFCURVE",
"287 58 CURVE",
"305 16 OFFCURVE",
"348 -8 OFFCURVE",
"421 -8 CURVE SMOOTH",
"461 -8 OFFCURVE",
"504 -1 OFFCURVE",
"545 12 CURVE",
"538 62 LINE",
"504 51 OFFCURVE",
"472 46 OFFCURVE",
"441 46 CURVE SMOOTH",
"344 46 OFFCURVE",
"314 91 OFFCURVE",
"330 170 CURVE",
"586 172 LINE",
"592 180 LINE",
"597 213 LINE SMOOTH",
"619 323 OFFCURVE",
"574 389 OFFCURVE",
"471 389 CURVE SMOOTH"
);
},
{
closed = 1;
nodes = (
"89 42 OFFCURVE",
"76 65 OFFCURVE",
"82 98 CURVE SMOOTH",
"98 178 OFFCURVE",
"212 177 OFFCURVE",
"275 178 CURVE",
"253 88 LINE",
"220 58 OFFCURVE",
"185 42 OFFCURVE",
"136 42 CURVE SMOOTH"
);
},
{
closed = 1;
nodes = (
"341 222 LINE",
"361 282 OFFCURVE",
"399 338 OFFCURVE",
"475 338 CURVE SMOOTH",
"533 338 OFFCURVE",
"547 288 OFFCURVE",
"535 226 CURVE"
);
}
);
width = 630;
}
);
unicode = 00E6;
},
{
glyphname = b;
lastChange = "2014-11-24 05:17:59 +0000";
layers = (
{
background = {
paths = (
{
closed = 1;
nodes = (
"141 47 OFFCURVE",
"121 55 OFFCURVE",
"97 69 CURVE",
"151 323 LINE",
"181 334 OFFCURVE",
"210 339 OFFCURVE",
"241 339 CURVE SMOOTH",
"325 339 OFFCURVE",
"350 280 OFFCURVE",
"334 197 CURVE SMOOTH",
"314 93 OFFCURVE",
"264 47 OFFCURVE",
"177 47 CURVE SMOOTH"
);
},
{
closed = 1;
nodes = (
"115 6 OFFCURVE",
"149 -8 OFFCURVE",
"190 -8 CURVE SMOOTH",
"304 -8 OFFCURVE",
"378 71 OFFCURVE",
"399 183 CURVE SMOOTH",
"413 251 OFFCURVE",
"404 306 OFFCURVE",
"374 340 CURVE SMOOTH",
"347 376 OFFCURVE",
"305 392 OFFCURVE",
"251 392 CURVE SMOOTH",
"222 392 OFFCURVE",
"189 389 OFFCURVE",
"157 375 CURVE",
"189 532 LINE",
"124 532 LINE",
"21 0 LINE",
"68 0 LINE",
"86 28 LINE"
);
}
);
};
layerId = "CFA4B904-E3F1-48B6-A7F6-47DC1FF2A3E1";
paths = (
{
closed = 1;
nodes = (
"141 47 OFFCURVE",
"121 55 OFFCURVE",
"97 69 CURVE",
"151 323 LINE",
"181 334 OFFCURVE",
"210 339 OFFCURVE",
"241 339 CURVE SMOOTH",
"325 339 OFFCURVE",
"350 280 OFFCURVE",
"334 197 CURVE SMOOTH",
"314 93 OFFCURVE",
"264 47 OFFCURVE",
"177 47 CURVE SMOOTH"
);
},
{
closed = 1;
nodes = (
"115 6 OFFCURVE",
"149 -8 OFFCURVE",
"190 -8 CURVE SMOOTH",
"304 -8 OFFCURVE",
"378 71 OFFCURVE",
"399 183 CURVE SMOOTH",
"424 310 OFFCURVE",
"364 392 OFFCURVE",
"251 392 CURVE SMOOTH",
"222 392 OFFCURVE",
"189 389 OFFCURVE",
"157 375 CURVE",
"189 532 LINE",
"124 532 LINE",
"21 0 LINE",
"68 0 LINE",
"86 28 LINE"
);
}
);
width = 439;
}
);
unicode = 0062;
},
{
glyphname = c;
lastChange = "2014-11-24 05:17:59 +0000";
layers = (
{
anchors = (
{
name = top;
position = "{261, 384}";
}
);
background = {
anchors = (
{
name = top;
position = "{251, 384}";
}
);
paths = (
{
closed = 1;
nodes = (
"335 -9 OFFCURVE",
"368 -1 OFFCURVE",
"405 13 CURVE",
"390 58 LINE",
"366 49 OFFCURVE",
"339 45 OFFCURVE",
"317 45 CURVE SMOOTH",
"252 45 OFFCURVE",
"175 70 OFFCURVE",
"175 197 CURVE SMOOTH",
"175 286 OFFCURVE",
"220 335 OFFCURVE",
"311 335 CURVE SMOOTH",
"333 335 OFFCURVE",
"362 332 OFFCURVE",
"390 320 CURVE",
"406 368 LINE",
"371 383 OFFCURVE",
"339 389 OFFCURVE",
"308 389 CURVE SMOOTH",
"241 389 OFFCURVE",
"192 370 OFFCURVE",
"159 333 CURVE",
"129 296 OFFCURVE",
"109 246 OFFCURVE",
"109 185 CURVE SMOOTH",
"109 63 OFFCURVE",
"176 -9 OFFCURVE",
"295 -9 CURVE SMOOTH"
);
},
{
closed = 1;
nodes = (
"232 -9 OFFCURVE",
"263 -2 OFFCURVE",
"302 12 CURVE",
"292 59 LINE",
"267 50 OFFCURVE",
"239 45 OFFCURVE",
"215 45 CURVE SMOOTH",
"152 45 OFFCURVE",
"81 68 OFFCURVE",
"105 192 CURVE SMOOTH",
"123 284 OFFCURVE",
"180 335 OFFCURVE",
"273 335 CURVE SMOOTH",
"300 335 OFFCURVE",
"322 331 OFFCURVE",
"347 321 CURVE",
"369 367 LINE",
"336 382 OFFCURVE",
"307 389 OFFCURVE",
"273 389 CURVE SMOOTH",
"142 389 OFFCURVE",
"63 315 OFFCURVE",
"39 190 CURVE SMOOTH",
"35 171 OFFCURVE",
"33 152 OFFCURVE",
"33 135 CURVE SMOOTH",
"33 44 OFFCURVE",
"88 -9 OFFCURVE",
"190 -9 CURVE SMOOTH"
);
}
);
};
layerId = "CFA4B904-E3F1-48B6-A7F6-47DC1FF2A3E1";
paths = (
{
closed = 1;
nodes = (
"232 -9 OFFCURVE",
"263 -2 OFFCURVE",
"303 12 CURVE",
"291 62 LINE",
"266 53 OFFCURVE",
"238 48 OFFCURVE",
"214 48 CURVE SMOOTH",
"159 48 OFFCURVE",
"100 62 OFFCURVE",
"100 148 CURVE SMOOTH",
"100 232 OFFCURVE",
"141 335 OFFCURVE",
"273 335 CURVE SMOOTH",
"300 335 OFFCURVE",
"322 331 OFFCURVE",
"348 321 CURVE",
"370 367 LINE",
"337 382 OFFCURVE",
"307 389 OFFCURVE",
"273 389 CURVE SMOOTH",
"94 389 OFFCURVE",
"33 253 OFFCURVE",
"34 135 CURVE SMOOTH",
"33 48 OFFCURVE",
"88 -9 OFFCURVE",
"191 -9 CURVE SMOOTH"
);
}
);
width = 366;
}
);
unicode = 0063;
},
{
glyphname = ccedilla;
lastChange = "2014-11-24 05:17:59 +0000";
layers = (
{
background = {
paths = (
{
closed = 1;
nodes = (
"205 -158 OFFCURVE",
"181 -155 OFFCURVE",
"148 -145 CURVE",
"136 -142 LINE",
"122 -188 LINE",
"134 -192 LINE",
"165 -201 OFFCURVE",
"189 -207 OFFCURVE",
"218 -207 CURVE SMOOTH",
"276 -207 OFFCURVE",
"306 -178 OFFCURVE",
"306 -136 CURVE SMOOTH",
"306 -82 OFFCURVE",
"267 -64 OFFCURVE",
"232 -53 CURVE SMOOTH",
"218 -49 LINE",
"228 -9 LINE",
"260 -8 OFFCURVE",
"292 0 OFFCURVE",
"328 13 CURVE",
"312 58 LINE",
"288 48 OFFCURVE",
"264 45 OFFCURVE",
"242 45 CURVE SMOOTH",
"237 45 OFFCURVE",
"230 45 OFFCURVE",
"225 46 CURVE",
"140 56 OFFCURVE",
"100 102 OFFCURVE",
"100 197 CURVE SMOOTH",
"100 286 OFFCURVE",
"145 335 OFFCURVE",
"237 335 CURVE SMOOTH",
"259 335 OFFCURVE",
"287 332 OFFCURVE",
"315 320 CURVE",
"332 368 LINE",
"297 383 OFFCURVE",
"264 389 OFFCURVE",
"232 389 CURVE SMOOTH",
"166 389 OFFCURVE",
"117 370 OFFCURVE",
"85 332 CURVE SMOOTH",
"53 295 OFFCURVE",
"38 246 OFFCURVE",
"38 185 CURVE SMOOTH",
"38 78 OFFCURVE",
"87 9 OFFCURVE",
"180 -6 CURVE",
"161 -81 LINE",
"215 -96 LINE",
"232 -100 OFFCURVE",
"256 -109 OFFCURVE",
"256 -131 CURVE SMOOTH",
"256 -153 OFFCURVE",
"238 -160 OFFCURVE",
"215 -159 CURVE"
);
}
);
};
components = (
{
name = c;
},
{
name = cedilla;
transform = "{1, 0, 0, 1, 130, 0}";
}
);
layerId = "CFA4B904-E3F1-48B6-A7F6-47DC1FF2A3E1";
width = 366;
}
);
unicode = 00E7;
},
{
glyphname = d;
lastChange = "2014-11-24 05:17:59 +0000";
layers = (
{
background = {
paths = (
{
closed = 1;
nodes = (
"114 47 OFFCURVE",
"88 105 OFFCURVE",
"104 187 CURVE SMOOTH",
"121 276 OFFCURVE",
"175 339 OFFCURVE",
"262 339 CURVE SMOOTH",
"290 339 OFFCURVE",
"318 336 OFFCURVE",
"342 325 CURVE",
"289 71 LINE",
"260 57 OFFCURVE",
"237 47 OFFCURVE",
"196 47 CURVE SMOOTH"
);
},
{
closed = 1;
nodes = (
"216 -8 OFFCURVE",
"255 4 OFFCURVE",
"293 26 CURVE",
"298 0 LINE",
"345 0 LINE",
"449 532 LINE",
"381 532 LINE",
"348 373 LINE",
"322 387 OFFCURVE",
"292 392 OFFCURVE",
"259 392 CURVE SMOOTH",
"207 392 OFFCURVE",
"162 377 OFFCURVE",
"119 345 CURVE SMOOTH",
"78 307 OFFCURVE",
"50 255 OFFCURVE",
"38 193 CURVE SMOOTH",
"15 75 OFFCURVE",
"61 -8 OFFCURVE",
"181 -8 CURVE SMOOTH"
);
}
);
};
layerId = "CFA4B904-E3F1-48B6-A7F6-47DC1FF2A3E1";
paths = (
{
closed = 1;
nodes = (
"114 47 OFFCURVE",
"88 105 OFFCURVE",
"104 187 CURVE SMOOTH",
"121 276 OFFCURVE",
"175 339 OFFCURVE",
"262 339 CURVE SMOOTH",
"290 339 OFFCURVE",
"318 336 OFFCURVE",
"342 325 CURVE",
"294 71 LINE",
"265 57 OFFCURVE",
"237 47 OFFCURVE",
"196 47 CURVE SMOOTH"
);
},
{
closed = 1;
nodes = (
"216 -8 OFFCURVE",
"255 4 OFFCURVE",
"293 26 CURVE",
"298 0 LINE",
"345 0 LINE",
"449 532 LINE",
"381 532 LINE",
"348 373 LINE",
"322 387 OFFCURVE",
"292 392 OFFCURVE",
"259 392 CURVE SMOOTH",
"140 392 OFFCURVE",
"62 316 OFFCURVE",
"38 193 CURVE SMOOTH",
"15 75 OFFCURVE",
"61 -8 OFFCURVE",
"181 -8 CURVE SMOOTH"
);
}
);
width = 439;
}
);
unicode = 0064;
},
{
glyphname = eth;
lastChange = "2014-11-24 05:17:59 +0000";
layers = (
{
background = {
paths = (
{
closed = 1;
nodes = (
"439 523 LINE",
"379 488 LINE",
"419 433 OFFCURVE",
"437 355 OFFCURVE",
"417 251 CURVE SMOOTH",
"389 107 OFFCURVE",
"311 -8 OFFCURVE",
"177 -8 CURVE SMOOTH",
"64 -8 OFFCURVE",
"13 77 OFFCURVE",
"32 172 CURVE SMOOTH",
"53 282 OFFCURVE",
"140 366 OFFCURVE",
"247 366 CURVE SMOOTH",
"283 366 OFFCURVE",
"322 354 OFFCURVE",
"359 331 CURVE",
"359 378 OFFCURVE",
"345 418 OFFCURVE",
"319 450 CURVE",
"238 403 LINE",
"224 439 LINE",
"291 479 LINE",
"272 492 OFFCURVE",
"251 504 OFFCURVE",
"225 514 CURVE",
"264 567 LINE",
"296 556 OFFCURVE",
"327 540 OFFCURVE",
"353 517 CURVE",
"426 560 LINE"
);
},
{
closed = 1;
nodes = (
"352 255 OFFCURVE",
"354 265 OFFCURVE",
"352 272 CURVE",
"314 299 OFFCURVE",
"280 313 OFFCURVE",
"247 313 CURVE SMOOTH",
"163 313 OFFCURVE",
"113 254 OFFCURVE",
"100 185 CURVE SMOOTH",
"86 111 OFFCURVE",
"119 45 OFFCURVE",
"199 45 CURVE SMOOTH",
"241 45 OFFCURVE",
"269 64 OFFCURVE",
"297 99 CURVE SMOOTH",
"318 129 OFFCURVE",
"337 178 OFFCURVE",
"349 242 CURVE SMOOTH"
);
}
);
};
layerId = "CFA4B904-E3F1-48B6-A7F6-47DC1FF2A3E1";
paths = (
{
closed = 1;
nodes = (
"449 409 OFFCURVE",
"417 251 CURVE SMOOTH",
"388 107 OFFCURVE",
"301 -8 OFFCURVE",
"177 -8 CURVE SMOOTH",
"64 -8 OFFCURVE",
"13 77 OFFCURVE",
"32 172 CURVE SMOOTH",
"53 282 OFFCURVE",
"147 366 OFFCURVE",
"254 366 CURVE SMOOTH",
"290 366 OFFCURVE",
"324 352 OFFCURVE",
"361 329 CURVE",
"361 424 OFFCURVE",
"315 479 OFFCURVE",
"227 517 CURVE",
"264 567 LINE",
"391 513 OFFCURVE"
);
},
{
closed = 1;
nodes = (
"288 51 OFFCURVE",
"352 223 OFFCURVE",
"352 267 CURVE",
"330 283 OFFCURVE",
"300 307 OFFCURVE",
"254 307 CURVE SMOOTH",
"183 307 OFFCURVE",
"113 251 OFFCURVE",
"98 182 CURVE SMOOTH",
"82 106 OFFCURVE",
"107 51 OFFCURVE",
"179 51 CURVE SMOOTH"
);
},
{
closed = 1;
nodes = (
"446 521 LINE",
"245 401 LINE",
"224 439 LINE",
"426 560 LINE"
);
}
);
width = 444;
}
);
unicode = 00F0;
},
{
glyphname = dcaron;
lastChange = "2014-11-24 05:17:59 +0000";
layers = (
{
layerId = "CFA4B904-E3F1-48B6-A7F6-47DC1FF2A3E1";
paths = (
{
closed = 1;
nodes = (
"114 47 OFFCURVE",
"88 105 OFFCURVE",
"104 187 CURVE SMOOTH",
"121 276 OFFCURVE",
"175 339 OFFCURVE",
"262 339 CURVE SMOOTH",
"290 339 OFFCURVE",
"318 336 OFFCURVE",
"342 325 CURVE",
"294 71 LINE",
"265 57 OFFCURVE",
"237 47 OFFCURVE",
"196 47 CURVE SMOOTH"
);
},
{
closed = 1;
nodes = (
"216 -8 OFFCURVE",
"255 4 OFFCURVE",
"293 26 CURVE",
"298 0 LINE",
"345 0 LINE",
"449 532 LINE",
"381 532 LINE",
"348 373 LINE",
"322 387 OFFCURVE",
"292 392 OFFCURVE",
"259 392 CURVE SMOOTH",
"140 392 OFFCURVE",
"62 316 OFFCURVE",
"38 193 CURVE SMOOTH",
"15 75 OFFCURVE",
"61 -8 OFFCURVE",
"181 -8 CURVE SMOOTH"
);
},
{
closed = 1;
nodes = (
"467 435 LINE",
"513 435 LINE",
"579 586 LINE",
"519 586 LINE"
);
}
);
width = 492;
}
);
unicode = 010F;
},
{
glyphname = dcroat;
lastChange = "2014-11-24 05:17:59 +0000";
layers = (
{
background = {
paths = (
{
closed = 1;
nodes = (
"216 -8 OFFCURVE",
"255 4 OFFCURVE",
"293 26 CURVE",
"298 0 LINE",
"345 0 LINE",
"431 439 LINE",
"487 439 LINE",
"496 485 LINE",
"440 485 LINE",
"449 532 LINE",
"381 532 LINE",
"372 485 LINE",
"269 485 LINE",
"260 439 LINE",
"363 439 LINE",
"348 373 LINE",
"322 387 OFFCURVE",
"292 392 OFFCURVE",
"259 392 CURVE SMOOTH",
"207 392 OFFCURVE",
"162 377 OFFCURVE",
"119 345 CURVE SMOOTH",
"78 307 OFFCURVE",
"50 255 OFFCURVE",
"38 193 CURVE SMOOTH",
"15 75 OFFCURVE",
"61 -8 OFFCURVE",
"181 -8 CURVE SMOOTH"
);
},
{
closed = 1;
nodes = (
"114 47 OFFCURVE",
"88 105 OFFCURVE",
"104 187 CURVE SMOOTH",
"121 276 OFFCURVE",
"175 339 OFFCURVE",
"262 339 CURVE SMOOTH",
"290 339 OFFCURVE",
"318 336 OFFCURVE",
"342 325 CURVE",
"289 71 LINE",
"260 57 OFFCURVE",
"237 47 OFFCURVE",
"196 47 CURVE SMOOTH"
);
}
);
};
layerId = "CFA4B904-E3F1-48B6-A7F6-47DC1FF2A3E1";
paths = (
{
closed = 1;
nodes = (
"216 -8 OFFCURVE",
"255 4 OFFCURVE",
"293 26 CURVE",
"298 0 LINE",
"345 0 LINE",
"431 439 LINE",
"487 439 LINE",
"496 485 LINE",
"440 485 LINE",
"449 532 LINE",
"381 532 LINE",
"372 485 LINE",
"269 485 LINE",
"260 439 LINE",
"363 439 LINE",
"348 373 LINE",
"322 387 OFFCURVE",
"292 392 OFFCURVE",
"259 392 CURVE SMOOTH",
"140 392 OFFCURVE",
"62 316 OFFCURVE",
"38 193 CURVE SMOOTH",
"15 75 OFFCURVE",
"61 -8 OFFCURVE",
"181 -8 CURVE SMOOTH"
);
},
{
closed = 1;
nodes = (
"114 47 OFFCURVE",
"88 105 OFFCURVE",
"104 187 CURVE SMOOTH",
"121 276 OFFCURVE",
"175 339 OFFCURVE",
"262 339 CURVE SMOOTH",
"290 339 OFFCURVE",
"318 336 OFFCURVE",
"342 325 CURVE",
"293 71 LINE",
"264 57 OFFCURVE",
"237 47 OFFCURVE",
"196 47 CURVE SMOOTH"
);
}
);
width = 446;
}
);
unicode = 0111;
},
{
glyphname = e;
lastChange = "2014-11-24 05:17:59 +0000";
layers = (
{
anchors = (
{
name = top;
position = "{241, 384}";
}
);
background = {
paths = (
{
closed = 1;
nodes = (
"191 389 OFFCURVE",
"146 372 OFFCURVE",
"106 334 CURVE SMOOTH",
"69 292 OFFCURVE",
"48 244 OFFCURVE",
"38 190 CURVE SMOOTH",
"13 64 OFFCURVE",
"68 -8 OFFCURVE",
"194 -8 CURVE SMOOTH",
"235 -8 OFFCURVE",
"279 -1 OFFCURVE",
"319 12 CURVE",
"312 62 LINE",
"279 51 OFFCURVE",
"246 46 OFFCURVE",
"215 46 CURVE SMOOTH",
"169 46 OFFCURVE",
"133 56 OFFCURVE",
"113 77 CURVE",
"99 103 OFFCURVE",
"90 135 OFFCURVE",
"97 170 CURVE",
"361 172 LINE",
"367 180 LINE",
"372 213 LINE SMOOTH",
"393 323 OFFCURVE",
"348 389 OFFCURVE",
"244 389 CURVE SMOOTH"
);
},
{
closed = 1;
nodes = (
"108 222 LINE",
"127 282 OFFCURVE",
"172 338 OFFCURVE",
"249 338 CURVE SMOOTH",
"306 338 OFFCURVE",
"321 288 OFFCURVE",
"309 226 CURVE"
);
}
);
};
layerId = "CFA4B904-E3F1-48B6-A7F6-47DC1FF2A3E1";
paths = (
{
closed = 1;
nodes = (
"145 389 OFFCURVE",
"62 308 OFFCURVE",
"38 190 CURVE SMOOTH",
"13 64 OFFCURVE",
"68 -8 OFFCURVE",
"194 -8 CURVE SMOOTH",
"235 -8 OFFCURVE",
"279 -1 OFFCURVE",
"319 12 CURVE",
"312 62 LINE",
"279 51 OFFCURVE",
"246 46 OFFCURVE",
"215 46 CURVE SMOOTH",
"124 46 OFFCURVE",
"80 86 OFFCURVE",
"97 170 CURVE",
"359 172 LINE",
"364 180 LINE",
"369 213 LINE SMOOTH",
"385 324 OFFCURVE",
"349 389 OFFCURVE",
"244 389 CURVE SMOOTH"
);
},
{
closed = 1;
nodes = (
"108 222 LINE",
"127 282 OFFCURVE",
"172 338 OFFCURVE",
"249 338 CURVE SMOOTH",
"306 338 OFFCURVE",
"321 288 OFFCURVE",
"309 226 CURVE"
);
}
);
width = 402;
}
);
unicode = 0065;
},
{
glyphname = eogonek;
lastChange = "2014-11-24 05:17:59 +0000";
layers = (
{
background = {
paths = (
{
closed = 1;
nodes = (
"138 -45 OFFCURVE",
"104 -90 OFFCURVE",
"96 -130 CURVE SMOOTH",
"88 -174 OFFCURVE",
"109 -211 OFFCURVE",
"170 -211 CURVE SMOOTH",
"203 -211 OFFCURVE",
"230 -201 OFFCURVE",
"271 -176 CURVE",
"256 -141 LINE",
"239 -152 OFFCURVE",
"209 -164 OFFCURVE",
"187 -164 CURVE SMOOTH",
"161 -164 OFFCURVE",
"151 -151 OFFCURVE",
"156 -125 CURVE SMOOTH",
"163 -93 OFFCURVE",
"191 -61 OFFCURVE",
"237 -29 CURVE SMOOTH",
"257 -12 OFFCURVE",
"290 4 OFFCURVE",
"319 12 CURVE",
"312 62 LINE",
"279 51 OFFCURVE",
"246 46 OFFCURVE",
"215 46 CURVE SMOOTH",
"169 46 OFFCURVE",
"133 56 OFFCURVE",
"113 77 CURVE",
"99 103 OFFCURVE",
"90 135 OFFCURVE",
"97 170 CURVE",
"361 172 LINE",
"367 180 LINE",
"372 213 LINE SMOOTH",
"393 323 OFFCURVE",
"348 389 OFFCURVE",
"244 389 CURVE SMOOTH",
"191 389 OFFCURVE",
"146 372 OFFCURVE",
"106 334 CURVE SMOOTH",
"69 292 OFFCURVE",
"48 244 OFFCURVE",
"38 190 CURVE SMOOTH",
"4 18 OFFCURVE",
"122 -8 OFFCURVE",
"195 -6 CURVE"
);
},
{
closed = 1;
nodes = (
"108 222 LINE",
"127 282 OFFCURVE",
"172 338 OFFCURVE",
"249 338 CURVE SMOOTH",
"306 338 OFFCURVE",
"321 288 OFFCURVE",
"309 226 CURVE"
);
}
);
};
layerId = "CFA4B904-E3F1-48B6-A7F6-47DC1FF2A3E1";
paths = (
{
closed = 1;
nodes = (
"138 -45 OFFCURVE",
"104 -90 OFFCURVE",
"96 -130 CURVE SMOOTH",
"88 -174 OFFCURVE",
"109 -211 OFFCURVE",
"170 -211 CURVE SMOOTH",
"203 -211 OFFCURVE",
"230 -203 OFFCURVE",
"271 -176 CURVE",
"256 -141 LINE",
"239 -152 OFFCURVE",
"209 -164 OFFCURVE",
"187 -164 CURVE SMOOTH",
"161 -164 OFFCURVE",
"151 -151 OFFCURVE",
"156 -125 CURVE SMOOTH",
"163 -93 OFFCURVE",
"191 -61 OFFCURVE",
"237 -29 CURVE SMOOTH",
"257 -12 OFFCURVE",
"290 4 OFFCURVE",
"319 12 CURVE",
"312 62 LINE",
"279 51 OFFCURVE",
"246 46 OFFCURVE",
"215 46 CURVE SMOOTH",
"124 46 OFFCURVE",
"80 86 OFFCURVE",
"97 170 CURVE",
"361 172 LINE",
"367 180 LINE",
"372 213 LINE SMOOTH",
"393 323 OFFCURVE",
"349 389 OFFCURVE",
"251 389 CURVE SMOOTH",
"135 389 OFFCURVE",
"62 308 OFFCURVE",
"38 190 CURVE SMOOTH",
"4 18 OFFCURVE",
"122 -8 OFFCURVE",
"195 -6 CURVE"
);
},
{
closed = 1;
nodes = (
"108 222 LINE",
"127 282 OFFCURVE",
"172 338 OFFCURVE",
"249 338 CURVE SMOOTH",
"306 338 OFFCURVE",
"321 288 OFFCURVE",
"309 226 CURVE"
);
}
);
width = 405;
}
);
unicode = 0119;
},
{
glyphname = f;
lastChange = "2014-11-24 05:17:59 +0000";
layers = (
{
background = {
paths = (
{
closed = 1;
nodes = (
"310 503 OFFCURVE",
"329 499 OFFCURVE",
"353 492 CURVE",
"369 538 LINE",
"343 546 OFFCURVE",
"312 554 OFFCURVE",
"277 554 CURVE SMOOTH",
"225 554 OFFCURVE",
"184 536 OFFCURVE",
"153 499 CURVE SMOOTH",
"142 481 OFFCURVE",
"134 457 OFFCURVE",
"128 425 CURVE SMOOTH",
"120 384 LINE",
"65 384 LINE",
"55 333 LINE",
"112 333 LINE",
"47 0 LINE",
"112 0 LINE",
"177 333 LINE",
"303 333 LINE",
"313 384 LINE",
"186 384 LINE",
"193 417 LINE SMOOTH",
"194 427 OFFCURVE",
"198 438 OFFCURVE",
"200 441 CURVE SMOOTH",
"211 476 OFFCURVE",
"248 503 OFFCURVE",
"295 503 CURVE SMOOTH"
);
}
);
};
layerId = "CFA4B904-E3F1-48B6-A7F6-47DC1FF2A3E1";
paths = (
{
closed = 1;
nodes = (
"310 503 OFFCURVE",
"329 499 OFFCURVE",
"353 492 CURVE",
"369 538 LINE",
"343 546 OFFCURVE",
"312 554 OFFCURVE",
"277 554 CURVE SMOOTH",
"182 554 OFFCURVE",
"144 508 OFFCURVE",
"128 425 CURVE SMOOTH",
"120 384 LINE",
"65 384 LINE",
"55 333 LINE",
"112 333 LINE",
"47 0 LINE",
"112 0 LINE",
"177 333 LINE",
"303 333 LINE",
"313 384 LINE",
"186 384 LINE",
"193 417 LINE SMOOTH",
"205 479 OFFCURVE",
"230 503 OFFCURVE",
"295 503 CURVE SMOOTH"
);
}
);
width = 286;
}
);
unicode = 0066;
},
{
glyphname = g;
lastChange = "2014-11-24 05:17:59 +0000";
layers = (
{
anchors = (
{
name = top;
position = "{276, 384}";
}
);
background = {
paths = (
{
closed = 1;
nodes = (
"280 10 LINE SMOOTH",
"275 -16 OFFCURVE",
"271 -35 OFFCURVE",
"268 -43 CURVE SMOOTH",
"246 -116 OFFCURVE",
"191 -159 OFFCURVE",
"108 -159 CURVE SMOOTH",
"83 -159 OFFCURVE",
"54 -152 OFFCURVE",
"22 -140 CURVE",
"0 -184 LINE",
"30 -199 OFFCURVE",
"76 -210 OFFCURVE",
"115 -210 CURVE SMOOTH",
"172 -210 OFFCURVE",
"224 -194 OFFCURVE",
"261 -166 CURVE SMOOTH",
"307 -128 OFFCURVE",
"326 -91 OFFCURVE",
"340 -20 CURVE SMOOTH",
"418 384 LINE",
"370 384 LINE",
"359 360 LINE",
"340 368 LINE SMOOTH",
"311 383 OFFCURVE",
"282 389 OFFCURVE",
"252 389 CURVE SMOOTH",
"232 389 OFFCURVE",
"210 388 OFFCURVE",
"185 379 CURVE",
"112 349 OFFCURVE",
"56 284 OFFCURVE",
"38 190 CURVE SMOOTH",
"27 137 OFFCURVE",
"33 99 OFFCURVE",
"51 67 CURVE SMOOTH",
"70 23 OFFCURVE",
"111 -8 OFFCURVE",
"179 -8 CURVE SMOOTH",
"215 -8 OFFCURVE",
"247 0 OFFCURVE",
"283 17 CURVE"
);
},
{
closed = 1;
nodes = (
"177 45 OFFCURVE",
"159 48 OFFCURVE",
"141 57 CURVE SMOOTH",
"105 80 OFFCURVE",
"92 130 OFFCURVE",
"103 189 CURVE SMOOTH",
"120 275 OFFCURVE",
"173 337 OFFCURVE",
"258 337 CURVE SMOOTH",
"282 337 OFFCURVE",
"310 333 OFFCURVE",
"342 318 CURVE",
"289 67 LINE",
"262 53 OFFCURVE",
"231 45 OFFCURVE",
"196 45 CURVE SMOOTH"
);
}
);
};
layerId = "CFA4B904-E3F1-48B6-A7F6-47DC1FF2A3E1";
paths = (
{
closed = 1;
nodes = (
"254 -126 OFFCURVE",
"207 -159 OFFCURVE",
"108 -159 CURVE SMOOTH",
"83 -159 OFFCURVE",
"55 -152 OFFCURVE",
"23 -140 CURVE",
"0 -184 LINE",
"30 -199 OFFCURVE",
"76 -210 OFFCURVE",
"115 -210 CURVE SMOOTH",
"238 -210 OFFCURVE",
"313 -151 OFFCURVE",
"339 -20 CURVE SMOOTH",
"419 384 LINE",
"371 384 LINE",
"359 360 LINE",
"341 368 LINE SMOOTH",
"312 383 OFFCURVE",
"283 389 OFFCURVE",
"253 389 CURVE SMOOTH",
"161 389 OFFCURVE",
"64 327 OFFCURVE",
"38 190 CURVE SMOOTH",
"19 90 OFFCURVE",
"61 -8 OFFCURVE",
"180 -8 CURVE SMOOTH",
"216 -8 OFFCURVE",
"248 0 OFFCURVE",
"284 17 CURVE"
);
},
{
closed = 1;
nodes = (
"178 45 OFFCURVE",
"159 48 OFFCURVE",
"141 57 CURVE SMOOTH",
"106 80 OFFCURVE",
"92 130 OFFCURVE",
"104 189 CURVE SMOOTH",
"121 275 OFFCURVE",
"174 337 OFFCURVE",
"259 337 CURVE SMOOTH",
"283 337 OFFCURVE",
"311 333 OFFCURVE",
"342 318 CURVE",
"289 67 LINE",
"262 53 OFFCURVE",
"232 45 OFFCURVE",
"197 45 CURVE SMOOTH"
);
}
);
width = 438;
}
);
unicode = 0067;
},
{
glyphname = gcommaaccent;
lastChange = "2014-11-24 05:17:59 +0000";
layers = (
{
background = {
paths = (
{
closed = 1;
nodes = (
"191 435 LINE",
"237 435 LINE",
"274 586 LINE",
"214 586 LINE"
);
}
);
};
components = (
{
name = g;
}
);
layerId = "CFA4B904-E3F1-48B6-A7F6-47DC1FF2A3E1";
paths = (
{
closed = 1;
nodes = (
"244 435 LINE",
"296 435 LINE",
"362 586 LINE",
"296 586 LINE"
);
}
);
width = 439;
}
);
unicode = 0123;
},
{
glyphname = h;
lastChange = "2014-11-24 05:17:59 +0000";
layers = (
{
layerId = "CFA4B904-E3F1-48B6-A7F6-47DC1FF2A3E1";
paths = (
{
closed = 1;
nodes = (
"274 0 LINE",
"340 0 LINE",
"390 259 LINE SMOOTH",
"406 341 OFFCURVE",
"368 394 OFFCURVE",
"286 394 CURVE SMOOTH",
"249 394 OFFCURVE",
"205 384 OFFCURVE",
"154 360 CURVE",
"189 532 LINE",
"124 532 LINE",
"21 0 LINE",
"86 0 LINE",
"148 310 LINE",
"192 329 OFFCURVE",
"228 339 OFFCURVE",
"259 339 CURVE SMOOTH",
"321 339 OFFCURVE",
"335 312 OFFCURVE",
"322 248 CURVE SMOOTH"
);
}
);
width = 428;
}
);
unicode = 0068;
},
{
glyphname = i;
lastChange = "2014-11-24 05:17:59 +0000";
layers = (
{
background = {
paths = (
{
closed = 1;
nodes = (
"128 466 LINE",
"193 466 LINE",
"193 532 LINE",
"128 532 LINE"
);
}
);
};
layerId = "CFA4B904-E3F1-48B6-A7F6-47DC1FF2A3E1";
paths = (
{
closed = 1;
nodes = (
"21 0 LINE",
"86 0 LINE",
"161 384 LINE",
"96 384 LINE"
);
},
{
closed = 1;
nodes = (
"169 458 OFFCURVE",
"187 476 OFFCURVE",
"191 495 CURVE SMOOTH",
"196 519 OFFCURVE",
"181 541 OFFCURVE",
"155 541 CURVE SMOOTH",
"132 541 OFFCURVE",
"114 523 OFFCURVE",
"110 505 CURVE SMOOTH",
"105 480 OFFCURVE",
"120 458 OFFCURVE",
"147 458 CURVE SMOOTH"
);
}
);
width = 181;
}
);
unicode = 0069;
},
{
glyphname = dotlessi;
lastChange = "2014-11-24 05:17:59 +0000";
layers = (
{
anchors = (
{
name = top;
position = "{128, 384}";
}
);
layerId = "CFA4B904-E3F1-48B6-A7F6-47DC1FF2A3E1";
paths = (
{
closed = 1;
nodes = (
"21 0 LINE",
"86 0 LINE",
"160 384 LINE",
"95 384 LINE"
);
}
);
width = 181;
}
);
unicode = 0131;
},
{
glyphname = ij;
lastChange = "2014-11-24 05:17:59 +0000";
layers = (
{
background = {
paths = (
{
closed = 1;
nodes = (
"58 0 LINE",
"123 0 LINE",
"123 384 LINE",
"58 384 LINE"
);
},
{
closed = 1;
nodes = (
"58 466 LINE",
"123 466 LINE",
"123 532 LINE",
"58 532 LINE"
);
},
{
closed = 1;
nodes = (
"211 -108 OFFCURVE",
"190 -141 OFFCURVE",
"148 -161 CURVE",
"172 -208 LINE",
"208 -197 OFFCURVE",
"241 -176 OFFCURVE",
"257 -143 CURVE SMOOTH",
"271 -113 OFFCURVE",
"274 -105 OFFCURVE",
"274 -50 CURVE SMOOTH",
"274 384 LINE",
"211 384 LINE",
"211 -53 LINE",
"211 -62 LINE SMOOTH"
);
},
{
closed = 1;
nodes = (
"211 466 LINE",
"274 466 LINE",
"274 532 LINE",
"211 532 LINE"
);
}
);
};
components = (
{
name = i;
}
);
layerId = "CFA4B904-E3F1-48B6-A7F6-47DC1FF2A3E1";
paths = (
{
closed = 1;
nodes = (
"305 456 OFFCURVE",
"325 472 OFFCURVE",
"329 493 CURVE SMOOTH",
"334 519 OFFCURVE",
"317 540 OFFCURVE",
"292 540 CURVE SMOOTH",
"271 540 OFFCURVE",
"251 524 OFFCURVE",
"247 503 CURVE SMOOTH",
"242 477 OFFCURVE",
"259 456 OFFCURVE",
"284 456 CURVE SMOOTH"
);
},
{
closed = 1;
nodes = (
"142 -106 OFFCURVE",
"113 -140 OFFCURVE",
"67 -160 CURVE",
"86 -209 LINE",
"170 -185 OFFCURVE",
"197 -148 OFFCURVE",
"216 -52 CURVE SMOOTH",
"301 384 LINE",
"238 384 LINE",
"153 -53 LINE",
"151 -60 LINE SMOOTH"
);
}
);
width = 320;
}
);
unicode = 0133;
},
{
glyphname = iogonek;
lastChange = "2014-11-24 05:17:59 +0000";
layers = (
{
background = {
paths = (
{
closed = 1;
nodes = (
"109 478 LINE",
"184 478 LINE",
"198 550 LINE",
"123 550 LINE"
);
},
{
closed = 1;
nodes = (
"-9 -9 LINE",
"-78 -47 OFFCURVE",
"-104 -91 OFFCURVE",
"-110 -126 CURVE SMOOTH",
"-122 -188 OFFCURVE",
"-88 -214 OFFCURVE",
"-44 -214 CURVE SMOOTH",
"-12 -214 OFFCURVE",
"23 -201 OFFCURVE",
"65 -178 CURVE",
"50 -141 LINE",
"22 -156 OFFCURVE",
"-1 -164 OFFCURVE",
"-21 -164 CURVE SMOOTH",
"-43 -164 OFFCURVE",
"-57 -153 OFFCURVE",
"-51 -122 CURVE SMOOTH",
"-47 -101 OFFCURVE",
"-33 -79 OFFCURVE",
"12 -49 CURVE",
"26 -39 OFFCURVE",
"47 -25 OFFCURVE",
"86 -8 CURVE",
"160 384 LINE",
"96 384 LINE",
"22 4 LINE"
);
}
);
};
components = (
{
name = dotaccent;
transform = "{1, 0, 0, 1, 115, 0}";
}
);
layerId = "CFA4B904-E3F1-48B6-A7F6-47DC1FF2A3E1";
paths = (
{
closed = 1;
nodes = (
"-9 -9 LINE",
"-78 -47 OFFCURVE",
"-104 -91 OFFCURVE",
"-110 -126 CURVE SMOOTH",
"-122 -188 OFFCURVE",
"-88 -214 OFFCURVE",
"-44 -214 CURVE SMOOTH",
"-12 -214 OFFCURVE",
"23 -201 OFFCURVE",
"65 -178 CURVE",
"50 -141 LINE",
"22 -156 OFFCURVE",
"-1 -164 OFFCURVE",
"-21 -164 CURVE SMOOTH",
"-43 -164 OFFCURVE",
"-57 -153 OFFCURVE",
"-51 -122 CURVE SMOOTH",
"-47 -101 OFFCURVE",
"-33 -79 OFFCURVE",
"12 -49 CURVE",
"26 -39 OFFCURVE",
"47 -25 OFFCURVE",
"86 -8 CURVE",
"160 384 LINE",
"96 384 LINE",
"22 4 LINE"
);
}
);
width = 185;
}
);
unicode = 012F;
},
{
glyphname = j;
lastChange = "2014-11-24 05:17:59 +0000";
layers = (
{
components = (
{
name = dotlessj;
}
);
layerId = "CFA4B904-E3F1-48B6-A7F6-47DC1FF2A3E1";
paths = (
{
closed = 1;
nodes = (
"164 457 OFFCURVE",
"184 473 OFFCURVE",
"188 494 CURVE SMOOTH",
"193 520 OFFCURVE",
"176 541 OFFCURVE",
"151 541 CURVE SMOOTH",
"130 541 OFFCURVE",
"110 525 OFFCURVE",
"106 504 CURVE SMOOTH",
"101 478 OFFCURVE",
"118 457 OFFCURVE",
"143 457 CURVE SMOOTH"
);
}
);
width = 180;
}
);
unicode = 006A;
},
{
glyphname = dotlessj;
lastChange = "2014-11-24 05:17:59 +0000";
layers = (
{
anchors = (
{
name = top;
position = "{129, 384}";
}
);
layerId = "CFA4B904-E3F1-48B6-A7F6-47DC1FF2A3E1";
paths = (
{
closed = 1;
nodes = (
"3 -106 OFFCURVE",
"-27 -140 OFFCURVE",
"-72 -160 CURVE",
"-53 -209 LINE",
"30 -185 OFFCURVE",
"57 -148 OFFCURVE",
"77 -52 CURVE SMOOTH",
"161 384 LINE",
"98 384 LINE",
"13 -53 LINE",
"12 -60 LINE SMOOTH"
);
}
);
width = 172;
}
);
unicode = 0237;
},
{
glyphname = k;
lastChange = "2014-11-24 05:17:59 +0000";
layers = (
{
anchors = (
{
name = bottom;
position = "{181, 0}";
}
);
background = {
paths = (
{
closed = 1;
nodes = (
"21 0 LINE",
"86 0 LINE",
"189 532 LINE",
"124 532 LINE"
);
},
{
closed = 1;
nodes = (
"134 212 LINE",
"267 0 LINE",
"345 0 LINE",
"211 212 LINE",
"412 384 LINE",
"334 384 LINE"
);
}
);
};
layerId = "CFA4B904-E3F1-48B6-A7F6-47DC1FF2A3E1";
paths = (
{
closed = 1;
nodes = (
"21 0 LINE",
"86 0 LINE",
"189 532 LINE",
"124 532 LINE"
);
},
{
closed = 1;
nodes = (
"134 212 LINE",
"267 0 LINE",
"339 0 LINE",
"211 207 LINE",
"390 384 LINE",
"315 384 LINE"
);
}
);
width = 391;
}
);
unicode = 006B;
},
{
glyphname = l;
lastChange = "2014-11-24 05:17:59 +0000";
layers = (
{
anchors = (
{
name = bottom;
position = "{102, 0}";
},
{
name = top;
position = "{236, 533}";
}
);
layerId = "CFA4B904-E3F1-48B6-A7F6-47DC1FF2A3E1";
paths = (
{
closed = 1;
nodes = (
"93 51 OFFCURVE",
"98 76 OFFCURVE",
"104 104 CURVE SMOOTH",
"187 533 LINE",
"124 533 LINE",
"35 85 LINE SMOOTH",
"24 31 OFFCURVE",
"53 -9 OFFCURVE",
"105 -9 CURVE SMOOTH",
"141 -9 OFFCURVE",
"168 3 OFFCURVE",
"184 9 CURVE",
"177 58 LINE",
"164 54 OFFCURVE",
"153 51 OFFCURVE",
"140 51 CURVE SMOOTH"
);
}
);
width = 224;
}
);
unicode = 006C;
},
{
glyphname = lcaron;
lastChange = "2014-11-24 05:17:59 +0000";
layers = (
{
background = {
paths = (
{
closed = 1;
nodes = (
"93 51 OFFCURVE",
"98 76 OFFCURVE",
"104 104 CURVE SMOOTH",
"187 533 LINE",
"124 533 LINE",
"37 85 LINE SMOOTH",
"27 31 OFFCURVE",
"53 -9 OFFCURVE",
"105 -9 CURVE SMOOTH",
"141 -9 OFFCURVE",
"169 7 OFFCURVE",
"184 10 CURVE",
"177 58 LINE",
"164 54 OFFCURVE",
"153 51 OFFCURVE",
"140 51 CURVE SMOOTH"
);
},
{
closed = 1;
nodes = (
"211 435 LINE",
"257 435 LINE",
"323 586 LINE",
"263 586 LINE"
);
}
);
};
layerId = "CFA4B904-E3F1-48B6-A7F6-47DC1FF2A3E1";
paths = (
{
closed = 1;
nodes = (
"211 435 LINE",
"257 435 LINE",
"323 586 LINE",
"263 586 LINE"
);
},
{
closed = 1;
nodes = (
"93 51 OFFCURVE",
"98 76 OFFCURVE",
"103 104 CURVE SMOOTH",
"187 533 LINE",
"124 533 LINE",
"35 85 LINE SMOOTH",
"24 31 OFFCURVE",
"52 -9 OFFCURVE",
"104 -9 CURVE SMOOTH",
"140 -9 OFFCURVE",
"168 3 OFFCURVE",
"184 9 CURVE",
"176 58 LINE",
"164 54 OFFCURVE",
"153 51 OFFCURVE",
"140 51 CURVE SMOOTH"
);
}
);
width = 236;
}
);
unicode = 013E;
},
{
glyphname = lslash;
lastChange = "2014-11-24 05:17:59 +0000";
layers = (
{
background = {
paths = (
{
closed = 1;
nodes = (
"112 51 OFFCURVE",
"118 76 OFFCURVE",
"123 104 CURVE SMOOTH",
"155 265 LINE",
"257 318 LINE",
"268 376 LINE",
"166 324 LINE",
"207 533 LINE",
"144 533 LINE",
"96 287 LINE",
"28 252 LINE",
"17 194 LINE",
"84 228 LINE",
"57 85 LINE SMOOTH",
"47 31 OFFCURVE",
"72 -9 OFFCURVE",
"124 -9 CURVE SMOOTH",
"160 -9 OFFCURVE",
"187 2 OFFCURVE",
"204 9 CURVE",
"210 62 LINE",
"190 56 OFFCURVE",
"177 51 OFFCURVE",
"159 51 CURVE SMOOTH"
);
}
);
};
layerId = "CFA4B904-E3F1-48B6-A7F6-47DC1FF2A3E1";
paths = (
{
closed = 1;
nodes = (
"114 51 OFFCURVE",
"119 76 OFFCURVE",
"124 104 CURVE SMOOTH",
"208 533 LINE",
"145 533 LINE",
"56 85 LINE SMOOTH",
"45 31 OFFCURVE",
"73 -9 OFFCURVE",
"125 -9 CURVE SMOOTH",
"161 -9 OFFCURVE",
"189 3 OFFCURVE",
"205 9 CURVE",
"197 58 LINE",
"185 54 OFFCURVE",
"174 51 OFFCURVE",
"161 51 CURVE SMOOTH"
);
},
{
closed = 1;
nodes = (
"28 252 LINE",
"17 194 LINE",
"257 318 LINE",
"268 376 LINE"
);
}
);
width = 246;
}
);
unicode = 0142;
},
{
glyphname = m;
lastChange = "2014-11-24 05:17:59 +0000";
layers = (
{
layerId = "CFA4B904-E3F1-48B6-A7F6-47DC1FF2A3E1";
paths = (
{
closed = 1;
nodes = (
"478 0 LINE",
"545 0 LINE",
"595 258 LINE SMOOTH",
"610 334 OFFCURVE",
"578 390 OFFCURVE",
"495 390 CURVE SMOOTH",
"445 390 OFFCURVE",
"403 370 OFFCURVE",
"357 340 CURVE",
"344 368 OFFCURVE",
"313 390 OFFCURVE",
"266 390 CURVE SMOOTH",
"252 390 OFFCURVE",
"234 390 OFFCURVE",
"212 386 CURVE SMOOTH",
"196 380 OFFCURVE",
"174 371 OFFCURVE",
"144 353 CURVE",
"137 384 LINE",
"93 384 LINE",
"19 0 LINE",
"84 0 LINE",
"146 308 LINE",
"184 327 OFFCURVE",
"216 338 OFFCURVE",
"242 338 CURVE SMOOTH",
"294 338 OFFCURVE",
"308 304 OFFCURVE",
"297 246 CURVE SMOOTH",
"249 0 LINE",
"314 0 LINE",
"364 258 LINE SMOOTH",
"367 276 OFFCURVE",
"369 291 OFFCURVE",
"370 300 CURVE",
"413 326 OFFCURVE",
"443 338 OFFCURVE",
"472 338 CURVE SMOOTH",
"524 338 OFFCURVE",
"537 304 OFFCURVE",
"526 246 CURVE SMOOTH"
);
}
);
width = 634;
}
);
unicode = 006D;
},
{
glyphname = n;
lastChange = "2014-11-24 05:17:59 +0000";
layers = (
{
anchors = (
{
name = bottom;
position = "{187, 0}";
},
{
name = top;
position = "{260, 384}";
}
);
layerId = "CFA4B904-E3F1-48B6-A7F6-47DC1FF2A3E1";
paths = (
{
closed = 1;
nodes = (
"273 0 LINE",
"338 0 LINE",
"388 258 LINE SMOOTH",
"403 338 OFFCURVE",
"370 390 OFFCURVE",
"285 390 CURVE SMOOTH",
"246 390 OFFCURVE",
"196 379 OFFCURVE",
"144 353 CURVE",
"137 384 LINE",
"93 384 LINE",
"19 0 LINE",
"84 0 LINE",
"145 307 LINE",
"189 326 OFFCURVE",
"227 335 OFFCURVE",
"259 335 CURVE SMOOTH",
"319 335 OFFCURVE",
"333 310 OFFCURVE",
"321 246 CURVE SMOOTH"
);
}
);
width = 427;
}
);
unicode = 006E;
},
{
glyphname = o;
lastChange = "2014-11-24 05:17:59 +0000";
layers = (
{
anchors = (
{
name = top;
position = "{265, 384}";
}
);
layerId = "CFA4B904-E3F1-48B6-A7F6-47DC1FF2A3E1";
paths = (
{
closed = 1;
nodes = (
"331 338 OFFCURVE",
"359 274 OFFCURVE",
"344 195 CURVE SMOOTH",
"327 111 OFFCURVE",
"271 44 OFFCURVE",
"192 44 CURVE SMOOTH",
"115 44 OFFCURVE",
"88 107 OFFCURVE",
"104 185 CURVE SMOOTH",
"120 270 OFFCURVE",
"177 338 OFFCURVE",
"257 338 CURVE SMOOTH"
);
},
{
closed = 1;
nodes = (
"302 -9 OFFCURVE",
"385 70 OFFCURVE",
"408 186 CURVE SMOOTH",
"432 310 OFFCURVE",
"381 389 OFFCURVE",
"259 389 CURVE SMOOTH",
"141 389 OFFCURVE",
"62 313 OFFCURVE",
"39 195 CURVE SMOOTH",
"15 73 OFFCURVE",
"68 -9 OFFCURVE",
"187 -9 CURVE SMOOTH"
);
}
);
width = 447;
}
);
unicode = 006F;
},
{
glyphname = oslash;
lastChange = "2014-11-24 05:17:59 +0000";
layers = (
{
background = {
paths = (
{
closed = 1;
nodes = (
"313 -9 OFFCURVE",
"395 70 OFFCURVE",
"417 186 CURVE SMOOTH",
"427 236 OFFCURVE",
"425 277 OFFCURVE",
"412 309 CURVE",
"465 355 LINE",
"433 393 LINE",
"384 349 LINE",
"358 373 OFFCURVE",
"322 389 OFFCURVE",
"269 389 CURVE SMOOTH",
"154 389 OFFCURVE",
"74 313 OFFCURVE",
"51 195 CURVE SMOOTH",
"41 144 OFFCURVE",
"43 103 OFFCURVE",
"58 70 CURVE",
"2 22 LINE",
"34 -12 LINE",
"85 31 LINE",
"111 9 OFFCURVE",
"147 -9 OFFCURVE",
"197 -9 CURVE SMOOTH"
);
},
{
closed = 1;
nodes = (
"297 338 OFFCURVE",
"322 329 OFFCURVE",
"338 309 CURVE",
"111 115 LINE",
"108 137 OFFCURVE",
"110 162 OFFCURVE",
"114 185 CURVE SMOOTH",
"131 270 OFFCURVE",
"188 338 OFFCURVE",
"267 338 CURVE SMOOTH"
);
},
{
closed = 1;
nodes = (
"338 111 OFFCURVE",
"283 44 OFFCURVE",
"202 44 CURVE SMOOTH",
"172 44 OFFCURVE",
"147 53 OFFCURVE",
"132 71 CURVE",
"356 262 LINE",
"360 242 OFFCURVE",
"359 219 OFFCURVE",
"354 195 CURVE SMOOTH"
);
}
);
};
layerId = "CFA4B904-E3F1-48B6-A7F6-47DC1FF2A3E1";
paths = (
{
closed = 1;
nodes = (
"342 338 OFFCURVE",
"369 274 OFFCURVE",
"354 195 CURVE SMOOTH",
"338 111 OFFCURVE",
"282 44 OFFCURVE",
"203 44 CURVE SMOOTH",
"126 44 OFFCURVE",
"99 107 OFFCURVE",
"114 185 CURVE SMOOTH",
"131 270 OFFCURVE",
"188 338 OFFCURVE",
"268 338 CURVE SMOOTH"
);
},
{
closed = 1;
nodes = (
"312 -9 OFFCURVE",
"396 70 OFFCURVE",
"418 186 CURVE SMOOTH",
"442 310 OFFCURVE",
"391 389 OFFCURVE",
"270 389 CURVE SMOOTH",
"151 389 OFFCURVE",
"72 313 OFFCURVE",
"49 195 CURVE SMOOTH",
"25 73 OFFCURVE",
"78 -9 OFFCURVE",
"197 -9 CURVE SMOOTH"
);
},
{
closed = 1;
nodes = (
"-3 28 LINE",
"34 -12 LINE",
"465 355 LINE",
"428 399 LINE"
);
}
);
width = 462;
}
);
unicode = 00F8;
},
{
glyphname = oe;
lastChange = "2014-11-24 05:17:59 +0000";
layers = (
{
background = {
paths = (
{
closed = 1;
nodes = (
"314 334 OFFCURVE",
"342 270 OFFCURVE",
"326 192 CURVE SMOOTH",
"317 142 OFFCURVE",
"298 107 OFFCURVE",
"271 85 CURVE SMOOTH",
"249 62 OFFCURVE",
"223 46 OFFCURVE",
"180 46 CURVE SMOOTH",
"162 46 OFFCURVE",
"146 50 OFFCURVE",
"129 63 CURVE",
"100 89 OFFCURVE",
"90 135 OFFCURVE",
"101 190 CURVE SMOOTH",
"116 265 OFFCURVE",
"170 334 OFFCURVE",
"240 334 CURVE SMOOTH"
);
},
{
closed = 1;
nodes = (
"579 206 LINE",
"390 204 LINE",
"397 237 OFFCURVE",
"411 266 OFFCURVE",
"433 290 CURVE SMOOTH",
"454 317 OFFCURVE",
"484 332 OFFCURVE",
"516 332 CURVE SMOOTH",
"582 332 OFFCURVE",
"595 289 OFFCURVE",
"581 216 CURVE SMOOTH"
);
},
{
closed = 1;
nodes = (
"16 79 OFFCURVE",
"64 -10 OFFCURVE",
"176 -10 CURVE SMOOTH",
"235 -10 OFFCURVE",
"285 12 OFFCURVE",
"328 62 CURVE",
"348 15 OFFCURVE",
"393 -10 OFFCURVE",
"463 -10 CURVE SMOOTH",
"501 -10 OFFCURVE",
"542 -3 OFFCURVE",
"582 11 CURVE",
"575 57 LINE",
"544 47 OFFCURVE",
"516 42 OFFCURVE",
"490 42 CURVE SMOOTH",
"455 42 OFFCURVE",
"427 47 OFFCURVE",
"407 64 CURVE SMOOTH",
"381 89 OFFCURVE",
"372 119 OFFCURVE",
"378 156 CURVE",
"631 158 LINE",
"638 194 LINE SMOOTH",
"644 224 OFFCURVE",
"647 246 OFFCURVE",
"646 257 CURVE SMOOTH",
"651 337 OFFCURVE",
"612 388 OFFCURVE",
"535 388 CURVE SMOOTH",
"476 388 OFFCURVE",
"420 365 OFFCURVE",
"376 312 CURVE",
"357 352 OFFCURVE",
"321 388 OFFCURVE",
"253 388 CURVE SMOOTH",
"142 388 OFFCURVE",
"61 307 OFFCURVE",
"39 194 CURVE SMOOTH"
);
}
);
};
layerId = "CFA4B904-E3F1-48B6-A7F6-47DC1FF2A3E1";
paths = (
{
closed = 1;
nodes = (
"463 389 OFFCURVE",
"417 364 OFFCURVE",
"383 321 CURVE",
"363 365 OFFCURVE",
"322 389 OFFCURVE",
"260 389 CURVE SMOOTH",
"152 389 OFFCURVE",
"72 330 OFFCURVE",
"39 195 CURVE SMOOTH",
"11 81 OFFCURVE",
"68 -9 OFFCURVE",
"187 -9 CURVE SMOOTH",
"246 -9 OFFCURVE",
"296 16 OFFCURVE",
"333 58 CURVE",
"353 15 OFFCURVE",
"397 -8 OFFCURVE",
"469 -8 CURVE SMOOTH",
"510 -8 OFFCURVE",
"553 -1 OFFCURVE",
"593 12 CURVE",
"586 62 LINE",
"553 51 OFFCURVE",
"520 46 OFFCURVE",
"489 46 CURVE SMOOTH",
"398 46 OFFCURVE",
"368 86 OFFCURVE",
"385 170 CURVE",
"633 172 LINE",
"638 180 LINE",
"643 213 LINE SMOOTH",
"660 324 OFFCURVE",
"623 389 OFFCURVE",
"519 389 CURVE SMOOTH"
);
},
{
closed = 1;
nodes = (
"116 44 OFFCURVE",
"89 107 OFFCURVE",
"104 185 CURVE SMOOTH",
"121 270 OFFCURVE",
"178 338 OFFCURVE",
"258 338 CURVE SMOOTH",
"322 338 OFFCURVE",
"342 274 OFFCURVE",
"327 195 CURVE SMOOTH",
"326 192 LINE SMOOTH",
"326 191 OFFCURVE",
"326 191 OFFCURVE",
"326 190 CURVE SMOOTH",
"309 108 OFFCURVE",
"260 44 OFFCURVE",
"193 44 CURVE SMOOTH"
);
},
{
closed = 1;
nodes = (
"396 222 LINE",
"415 282 OFFCURVE",
"447 338 OFFCURVE",
"524 338 CURVE SMOOTH",
"581 338 OFFCURVE",
"595 288 OFFCURVE",
"583 226 CURVE"
);
}
);
width = 676;
}
);
unicode = 0153;
},
{
glyphname = p;
lastChange = "2014-11-24 05:17:59 +0000";
layers = (
{
background = {
paths = (
{
closed = 1;
nodes = (
"323 335 OFFCURVE",
"350 278 OFFCURVE",
"334 194 CURVE SMOOTH",
"317 107 OFFCURVE",
"260 42 OFFCURVE",
"175 42 CURVE SMOOTH",
"149 42 OFFCURVE",
"120 46 OFFCURVE",
"95 59 CURVE",
"148 311 LINE",
"178 327 OFFCURVE",
"201 335 OFFCURVE",
"241 335 CURVE SMOOTH"
);
},
{
closed = 1;
nodes = (
"89 10 LINE",
"117 -3 OFFCURVE",
"147 -10 OFFCURVE",
"180 -10 CURVE SMOOTH",
"230 -10 OFFCURVE",
"278 7 OFFCURVE",
"320 38 CURVE SMOOTH",
"362 76 OFFCURVE",
"390 127 OFFCURVE",
"403 191 CURVE SMOOTH",
"418 273 OFFCURVE",
"399 330 OFFCURVE",
"349 362 CURVE SMOOTH",
"328 380 OFFCURVE",
"297 389 OFFCURVE",
"259 389 CURVE SMOOTH",
"222 389 OFFCURVE",
"184 379 OFFCURVE",
"147 356 CURVE",
"140 384 LINE",
"95 384 LINE",
"-20 -208 LINE",
"45 -208 LINE"
);
}
);
};
layerId = "CFA4B904-E3F1-48B6-A7F6-47DC1FF2A3E1";
paths = (
{
closed = 1;
nodes = (
"323 335 OFFCURVE",
"350 278 OFFCURVE",
"334 194 CURVE SMOOTH",
"317 107 OFFCURVE",
"260 42 OFFCURVE",
"175 42 CURVE SMOOTH",
"149 42 OFFCURVE",
"120 46 OFFCURVE",
"95 59 CURVE",
"148 311 LINE",
"178 327 OFFCURVE",
"201 335 OFFCURVE",
"241 335 CURVE SMOOTH"
);
},
{
closed = 1;
nodes = (
"89 10 LINE",
"117 -3 OFFCURVE",
"147 -10 OFFCURVE",
"180 -10 CURVE SMOOTH",
"292 -10 OFFCURVE",
"379 66 OFFCURVE",
"403 191 CURVE SMOOTH",
"427 318 OFFCURVE",
"351 389 OFFCURVE",
"259 389 CURVE SMOOTH",
"222 389 OFFCURVE",
"184 379 OFFCURVE",
"147 356 CURVE",
"140 384 LINE",
"95 384 LINE",
"-20 -208 LINE",
"45 -208 LINE"
);
}
);
width = 440;
}
);
unicode = 0070;
},
{
glyphname = thorn;
lastChange = "2014-11-24 05:17:59 +0000";
layers = (
{
background = {
paths = (
{
closed = 1;
nodes = (
"215 -10 OFFCURVE",
"239 -5 OFFCURVE",
"265 5 CURVE",
"334 33 OFFCURVE",
"391 106 OFFCURVE",
"407 190 CURVE SMOOTH",
"418 248 OFFCURVE",
"412 294 OFFCURVE",
"386 326 CURVE SMOOTH",
"367 362 OFFCURVE",
"327 388 OFFCURVE",
"267 388 CURVE SMOOTH",
"220 388 OFFCURVE",
"183 375 OFFCURVE",
"151 346 CURVE",
"192 550 LINE",
"127 550 LINE",
"-20 -206 LINE",
"45 -206 LINE",
"94 34 LINE",
"115 9 OFFCURVE",
"146 -10 OFFCURVE",
"193 -10 CURVE SMOOTH"
);
},
{
closed = 1;
nodes = (
"155 46 OFFCURVE",
"129 60 OFFCURVE",
"114 91 CURVE",
"107 111 OFFCURVE",
"108 143 OFFCURVE",
"116 184 CURVE SMOOTH",
"132 266 OFFCURVE",
"176 334 OFFCURVE",
"255 334 CURVE SMOOTH",
"295 333 OFFCURVE",
"324 314 OFFCURVE",
"343 274 CURVE SMOOTH",
"352 250 OFFCURVE",
"351 220 OFFCURVE",
"344 185 CURVE SMOOTH",
"329 108 OFFCURVE",
"266 46 OFFCURVE",
"191 46 CURVE SMOOTH"
);
}
);
};
layerId = "CFA4B904-E3F1-48B6-A7F6-47DC1FF2A3E1";
paths = (
{
closed = 1;
nodes = (
"289 -10 OFFCURVE",
"383 62 OFFCURVE",
"407 190 CURVE SMOOTH",
"427 298 OFFCURVE",
"377 388 OFFCURVE",
"267 388 CURVE SMOOTH",
"220 388 OFFCURVE",
"183 375 OFFCURVE",
"151 346 CURVE",
"192 550 LINE",
"127 550 LINE",
"-20 -206 LINE",
"45 -206 LINE",
"94 34 LINE",
"115 9 OFFCURVE",
"146 -10 OFFCURVE",
"193 -10 CURVE SMOOTH"
);
},
{
closed = 1;
nodes = (
"155 46 OFFCURVE",
"129 60 OFFCURVE",
"114 91 CURVE",
"107 111 OFFCURVE",
"108 143 OFFCURVE",
"116 184 CURVE SMOOTH",
"132 266 OFFCURVE",
"176 334 OFFCURVE",
"255 334 CURVE SMOOTH",
"338 332 OFFCURVE",
"360 264 OFFCURVE",
"344 185 CURVE SMOOTH",
"329 108 OFFCURVE",
"266 46 OFFCURVE",
"191 46 CURVE SMOOTH"
);
}
);
width = 446;
}
);
unicode = 00FE;
},
{
glyphname = q;
lastChange = "2014-11-24 05:17:59 +0000";
layers = (
{
background = {
paths = (
{
closed = 1;
nodes = (
"289 61 LINE",
"259 48 OFFCURVE",
"229 42 OFFCURVE",
"198 42 CURVE SMOOTH",
"118 42 OFFCURVE",
"88 103 OFFCURVE",
"104 184 CURVE SMOOTH",
"121 274 OFFCURVE",
"177 335 OFFCURVE",
"262 335 CURVE SMOOTH",
"299 335 OFFCURVE",
"319 329 OFFCURVE",
"342 313 CURVE"
);
},
{
closed = 1;
nodes = (
"219 -10 OFFCURVE",
"251 -5 OFFCURVE",
"283 8 CURVE",
"239 -208 LINE",
"307 -208 LINE",
"422 383 LINE",
"372 383 LINE",
"354 354 LINE",
"324 377 OFFCURVE",
"292 389 OFFCURVE",
"252 389 CURVE SMOOTH",
"215 389 OFFCURVE",
"181 382 OFFCURVE",
"150 368 CURVE",
"92 332 OFFCURVE",
"55 277 OFFCURVE",
"40 201 CURVE SMOOTH",
"27 131 OFFCURVE",
"38 80 OFFCURVE",
"68 46 CURVE",
"96 11 OFFCURVE",
"135 -10 OFFCURVE",
"190 -10 CURVE SMOOTH"
);
}
);
};
layerId = "CFA4B904-E3F1-48B6-A7F6-47DC1FF2A3E1";
paths = (
{
closed = 1;
nodes = (
"289 61 LINE",
"259 48 OFFCURVE",
"229 42 OFFCURVE",
"198 42 CURVE SMOOTH",
"118 42 OFFCURVE",
"88 103 OFFCURVE",
"104 184 CURVE SMOOTH",
"121 274 OFFCURVE",
"177 335 OFFCURVE",
"262 335 CURVE SMOOTH",
"299 335 OFFCURVE",
"319 329 OFFCURVE",
"342 313 CURVE"
);
},
{
closed = 1;
nodes = (
"219 -10 OFFCURVE",
"251 -5 OFFCURVE",
"283 8 CURVE",
"239 -208 LINE",
"307 -208 LINE",
"422 383 LINE",
"372 383 LINE",
"354 354 LINE",
"324 377 OFFCURVE",
"292 389 OFFCURVE",
"252 389 CURVE SMOOTH",
"150 389 OFFCURVE",
"65 329 OFFCURVE",
"40 201 CURVE SMOOTH",
"17 79 OFFCURVE",
"78 -10 OFFCURVE",
"190 -10 CURVE SMOOTH"
);
}
);
width = 441;
}
);
unicode = 0071;
},
{
glyphname = r;
lastChange = "2014-11-24 05:17:59 +0000";
layers = (
{
anchors = (
{
name = bottom;
position = "{47, 0}";
},
{
name = top;
position = "{220, 384}";
}
);
layerId = "CFA4B904-E3F1-48B6-A7F6-47DC1FF2A3E1";
paths = (
{
closed = 1;
nodes = (
"222 389 OFFCURVE",
"185 378 OFFCURVE",
"147 353 CURVE",
"140 384 LINE",
"94 384 LINE",
"19 0 LINE",
"84 0 LINE",
"145 303 LINE",
"177 322 OFFCURVE",
"208 332 OFFCURVE",
"236 332 CURVE SMOOTH",
"255 332 OFFCURVE",
"273 329 OFFCURVE",
"288 321 CURVE",
"319 377 LINE",
"303 385 OFFCURVE",
"289 389 OFFCURVE",
"257 389 CURVE SMOOTH"
);
}
);
width = 292;
}
);
unicode = 0072;
},
{
glyphname = s;
lastChange = "2014-11-24 05:17:59 +0000";
layers = (
{
anchors = (
{
name = bottom;
position = "{151, 0}";
},
{
name = top;
position = "{237, 384}";
}
);
background = {
paths = (
{
closed = 1;
nodes = (
"206 46 OFFCURVE",
"168 53 OFFCURVE",
"131 66 CURVE",
"112 17 LINE",
"147 3 OFFCURVE",
"192 -9 OFFCURVE",
"251 -9 CURVE SMOOTH",
"310 -9 OFFCURVE",
"353 9 OFFCURVE",
"379 43 CURVE",
"393 60 OFFCURVE",
"399 81 OFFCURVE",
"399 101 CURVE SMOOTH",
"399 126 OFFCURVE",
"393 145 OFFCURVE",
"377 162 CURVE SMOOTH",
"362 179 OFFCURVE",
"348 191 OFFCURVE",
"297 210 CURVE SMOOTH",
"238 232 LINE SMOOTH",
"221 238 OFFCURVE",
"209 244 OFFCURVE",
"203 248 CURVE SMOOTH",
"190 257 OFFCURVE",
"180 264 OFFCURVE",
"180 287 CURVE SMOOTH",
"180 295 OFFCURVE",
"185 304 OFFCURVE",
"192 312 CURVE",
"214 331 OFFCURVE",
"240 335 OFFCURVE",
"276 335 CURVE SMOOTH",
"313 335 OFFCURVE",
"344 324 OFFCURVE",
"363 316 CURVE",
"378 363 LINE",
"344 377 OFFCURVE",
"318 387 OFFCURVE",
"269 388 CURVE SMOOTH",
"267 388 LINE SMOOTH",
"238 388 OFFCURVE",
"211 383 OFFCURVE",
"186 372 CURVE SMOOTH",
"149 357 OFFCURVE",
"115 331 OFFCURVE",
"115 278 CURVE SMOOTH",
"115 218 OFFCURVE",
"167 199 OFFCURVE",
"197 185 CURVE",
"257 161 LINE SMOOTH",
"276 153 OFFCURVE",
"295 145 OFFCURVE",
"308 136 CURVE SMOOTH",
"324 125 OFFCURVE",
"330 115 OFFCURVE",
"330 99 CURVE SMOOTH",
"330 62 OFFCURVE",
"288 46 OFFCURVE",
"246 46 CURVE SMOOTH"
);
}
);
};
guideLines = (
{
angle = 90;
position = "{249, 276}";
}
);
layerId = "CFA4B904-E3F1-48B6-A7F6-47DC1FF2A3E1";
paths = (
{
closed = 1;
nodes = (
"106 46 OFFCURVE",
"63 58 OFFCURVE",
"28 71 CURVE",
"3 21 LINE",
"36 7 OFFCURVE",
"85 -9 OFFCURVE",
"146 -9 CURVE SMOOTH",
"234 -9 OFFCURVE",
"294 38 OFFCURVE",
"304 89 CURVE SMOOTH",
"316 148 OFFCURVE",
"292 177 OFFCURVE",
"224 206 CURVE SMOOTH",
"165 235 OFFCURVE",
"121 244 OFFCURVE",
"128 282 CURVE SMOOTH",
"135 316 OFFCURVE",
"180 335 OFFCURVE",
"238 335 CURVE SMOOTH",
"273 335 OFFCURVE",
"302 325 OFFCURVE",
"320 317 CURVE",
"343 366 LINE",
"313 380 OFFCURVE",
"279 389 OFFCURVE",
"234 389 CURVE SMOOTH",
"159 389 OFFCURVE",
"79 366 OFFCURVE",
"64 291 CURVE",
"51 223 OFFCURVE",
"102 198 OFFCURVE",
"131 185 CURVE",
"218 144 OFFCURVE",
"250 137 OFFCURVE",
"243 104 CURVE SMOOTH",
"236 64 OFFCURVE",
"188 46 OFFCURVE",
"144 46 CURVE SMOOTH"
);
}
);
width = 369;
}
);
unicode = 0073;
},
{
glyphname = germandbls;
lastChange = "2014-11-24 05:17:59 +0000";
layers = (
{
background = {
paths = (
{
closed = 1;
nodes = (
"21 0 LINE",
"84 0 LINE",
"161 394 LINE SMOOTH",
"167 427 OFFCURVE",
"181 453 OFFCURVE",
"201 467 CURVE",
"219 487 OFFCURVE",
"241 497 OFFCURVE",
"268 497 CURVE SMOOTH",
"302 497 OFFCURVE",
"335 467 OFFCURVE",
"327 429 CURVE",
"321 398 OFFCURVE",
"296 385 OFFCURVE",
"275 371 CURVE",
"243 347 OFFCURVE",
"204 316 OFFCURVE",
"196 277 CURVE SMOOTH",
"184 218 OFFCURVE",
"228 195 OFFCURVE",
"269 177 CURVE SMOOTH",
"307 157 OFFCURVE",
"346 150 OFFCURVE",
"338 105 CURVE SMOOTH",
"328 58 OFFCURVE",
"295 42 OFFCURVE",
"247 42 CURVE SMOOTH",
"227 42 OFFCURVE",
"197 46 OFFCURVE",
"157 53 CURVE",
"142 10 LINE",
"181 -3 OFFCURVE",
"218 -10 OFFCURVE",
"259 -10 CURVE SMOOTH",
"296 -10 OFFCURVE",
"328 -3 OFFCURVE",
"354 15 CURVE SMOOTH",
"373 31 OFFCURVE",
"397 62 OFFCURVE",
"404 96 CURVE SMOOTH",
"415 154 OFFCURVE",
"386 194 OFFCURVE",
"320 218 CURVE SMOOTH",
"295 228 LINE SMOOTH",
"277 236 OFFCURVE",
"266 244 OFFCURVE",
"260 252 CURVE",
"258 259 OFFCURVE",
"258 267 OFFCURVE",
"259 274 CURVE SMOOTH",
"264 300 OFFCURVE",
"307 322 OFFCURVE",
"340 345 CURVE SMOOTH",
"366 369 OFFCURVE",
"385 394 OFFCURVE",
"390 422 CURVE SMOOTH",
"397 458 OFFCURVE",
"386 491 OFFCURVE",
"364 513 CURVE SMOOTH",
"347 537 OFFCURVE",
"320 554 OFFCURVE",
"279 554 CURVE SMOOTH",
"185 554 OFFCURVE",
"116 492 OFFCURVE",
"98 399 CURVE SMOOTH"
);
}
);
};
layerId = "CFA4B904-E3F1-48B6-A7F6-47DC1FF2A3E1";
paths = (
{
closed = 1;
nodes = (
"21 0 LINE",
"84 0 LINE",
"161 394 LINE SMOOTH",
"173 456 OFFCURVE",
"217 497 OFFCURVE",
"268 497 CURVE SMOOTH",
"302 497 OFFCURVE",
"335 467 OFFCURVE",
"327 429 CURVE",
"316 373 OFFCURVE",
"210 346 OFFCURVE",
"196 277 CURVE SMOOTH",
"184 218 OFFCURVE",
"228 195 OFFCURVE",
"269 177 CURVE SMOOTH",
"307 157 OFFCURVE",
"346 150 OFFCURVE",
"338 105 CURVE SMOOTH",
"328 58 OFFCURVE",
"295 42 OFFCURVE",
"247 42 CURVE SMOOTH",
"227 42 OFFCURVE",
"197 46 OFFCURVE",
"157 53 CURVE",
"142 10 LINE",
"181 -3 OFFCURVE",
"218 -10 OFFCURVE",
"259 -10 CURVE SMOOTH",
"334 -10 OFFCURVE",
"387 21 OFFCURVE",
"402 93 CURVE SMOOTH",
"413 151 OFFCURVE",
"386 194 OFFCURVE",
"320 218 CURVE SMOOTH",
"295 228 LINE SMOOTH",
"264 242 OFFCURVE",
"251 247 OFFCURVE",
"259 272 CURVE SMOOTH",
"265 292 OFFCURVE",
"298 318 OFFCURVE",
"328 340 CURVE SMOOTH",
"358 361 OFFCURVE",
"384 389 OFFCURVE",
"390 422 CURVE SMOOTH",
"402 485 OFFCURVE",
"352 554 OFFCURVE",
"279 554 CURVE SMOOTH",
"185 554 OFFCURVE",
"116 492 OFFCURVE",
"98 399 CURVE SMOOTH"
);
}
);
width = 441;
}
);
unicode = 00DF;
},
{
glyphname = t;
lastChange = "2014-11-24 05:17:59 +0000";
layers = (
{
anchors = (
{
name = bottom;
position = "{166, 0}";
}
);
background = {
paths = (
{
closed = 1;
nodes = (
"188 -8 OFFCURVE",
"224 -3 OFFCURVE",
"255 8 CURVE",
"248 54 LINE",
"231 50 OFFCURVE",
"205 47 OFFCURVE",
"185 47 CURVE SMOOTH",
"137 47 OFFCURVE",
"136 71 OFFCURVE",
"145 121 CURVE SMOOTH",
"183 330 LINE",
"309 330 LINE",
"320 384 LINE",
"194 384 LINE",
"213 483 LINE",
"147 478 LINE",
"129 384 LINE",
"64 384 LINE",
"53 330 LINE",
"118 330 LINE",
"77 121 LINE SMOOTH",
"62 40 OFFCURVE",
"81 -8 OFFCURVE",
"163 -8 CURVE SMOOTH"
);
}
);
};
layerId = "CFA4B904-E3F1-48B6-A7F6-47DC1FF2A3E1";
paths = (
{
closed = 1;
nodes = (
"188 -8 OFFCURVE",
"224 -3 OFFCURVE",
"255 8 CURVE",
"248 54 LINE",
"231 50 OFFCURVE",
"205 47 OFFCURVE",
"185 47 CURVE SMOOTH",
"137 47 OFFCURVE",
"136 71 OFFCURVE",
"145 121 CURVE SMOOTH",
"183 330 LINE",
"289 330 LINE",
"300 384 LINE",
"194 384 LINE",
"213 483 LINE",
"147 478 LINE",
"129 384 LINE",
"54 384 LINE",
"43 330 LINE",
"118 330 LINE",
"77 121 LINE SMOOTH",
"62 40 OFFCURVE",
"81 -8 OFFCURVE",
"163 -8 CURVE SMOOTH"
);
}
);
width = 308;
}
);
unicode = 0074;
},
{
glyphname = tcaron;
lastChange = "2014-11-24 05:17:59 +0000";
layers = (
{
background = {
paths = (
{
closed = 1;
nodes = (
"190 -8 OFFCURVE",
"226 -3 OFFCURVE",
"257 8 CURVE",
"250 54 LINE",
"233 50 OFFCURVE",
"207 47 OFFCURVE",
"187 47 CURVE SMOOTH",
"139 47 OFFCURVE",
"135 71 OFFCURVE",
"144 121 CURVE SMOOTH",
"185 330 LINE",
"311 330 LINE",
"322 384 LINE",
"196 384 LINE",
"215 483 LINE",
"149 478 LINE",
"131 384 LINE",
"66 384 LINE",
"55 330 LINE",
"120 330 LINE",
"79 121 LINE SMOOTH",
"64 40 OFFCURVE",
"83 -8 OFFCURVE",
"165 -8 CURVE SMOOTH"
);
},
{
closed = 1;
nodes = (
"253 435 LINE",
"299 435 LINE",
"366 586 LINE",
"306 586 LINE"
);
}
);
};
layerId = "CFA4B904-E3F1-48B6-A7F6-47DC1FF2A3E1";
paths = (
{
closed = 1;
nodes = (
"249 435 LINE",
"295 435 LINE",
"361 586 LINE",
"301 586 LINE"
);
},
{
closed = 1;
nodes = (
"191 -8 OFFCURVE",
"227 -3 OFFCURVE",
"258 8 CURVE",
"251 54 LINE",
"233 50 OFFCURVE",
"207 47 OFFCURVE",
"187 47 CURVE SMOOTH",
"139 47 OFFCURVE",
"138 71 OFFCURVE",
"147 121 CURVE SMOOTH",
"185 330 LINE",
"291 330 LINE",
"302 384 LINE",
"196 384 LINE",
"215 483 LINE",
"149 478 LINE",
"131 384 LINE",
"56 384 LINE",
"45 330 LINE",
"120 330 LINE",
"80 121 LINE SMOOTH",
"64 40 OFFCURVE",
"84 -8 OFFCURVE",
"166 -8 CURVE SMOOTH"
);
}
);
width = 311;
}
);
unicode = 0165;
},
{
glyphname = u;
lastChange = "2014-11-24 05:17:59 +0000";
layers = (
{
anchors = (
{
name = top;
position = "{240, 384}";
}
);
layerId = "CFA4B904-E3F1-48B6-A7F6-47DC1FF2A3E1";
paths = (
{
closed = 1;
nodes = (
"154 384 LINE",
"89 384 LINE",
"39 123 LINE SMOOTH",
"23 43 OFFCURVE",
"58 -10 OFFCURVE",
"142 -10 CURVE SMOOTH",
"181 -10 OFFCURVE",
"229 2 OFFCURVE",
"282 27 CURVE",
"290 0 LINE",
"334 0 LINE",
"408 384 LINE",
"343 384 LINE",
"281 74 LINE",
"239 56 OFFCURVE",
"202 46 OFFCURVE",
"169 46 CURVE SMOOTH",
"108 46 OFFCURVE",
"93 71 OFFCURVE",
"106 135 CURVE SMOOTH"
);
}
);
width = 427;
}
);
unicode = 0075;
},
{
glyphname = uogonek;
lastChange = "2014-11-24 05:17:59 +0000";
layers = (
{
background = {
components = (
{
name = u;
}
);
};
layerId = "CFA4B904-E3F1-48B6-A7F6-47DC1FF2A3E1";
paths = (
{
closed = 1;
nodes = (
"345 384 LINE",
"283 75 LINE",
"240 55 OFFCURVE",
"203 46 OFFCURVE",
"172 46 CURVE SMOOTH",
"103 46 OFFCURVE",
"94 72 OFFCURVE",
"108 144 CURVE SMOOTH",
"155 384 LINE",
"92 384 LINE",
"41 134 LINE SMOOTH",
"24 51 OFFCURVE",
"48 -9 OFFCURVE",
"141 -9 CURVE SMOOTH",
"189 -9 OFFCURVE",
"236 5 OFFCURVE",
"283 28 CURVE",
"287 2 LINE",
"238 -21 LINE",
"170 -59 OFFCURVE",
"130 -95 OFFCURVE",
"120 -142 CURVE SMOOTH",
"111 -192 OFFCURVE",
"145 -217 OFFCURVE",
"189 -217 CURVE SMOOTH",
"220 -217 OFFCURVE",
"255 -206 OFFCURVE",
"298 -181 CURVE",
"282 -144 LINE",
"255 -159 OFFCURVE",
"232 -167 OFFCURVE",
"213 -167 CURVE SMOOTH",
"190 -167 OFFCURVE",
"178 -156 OFFCURVE",
"183 -131 CURVE SMOOTH",
"188 -103 OFFCURVE",
"213 -83 OFFCURVE",
"249 -63 CURVE SMOOTH",
"265 -52 OFFCURVE",
"291 -38 OFFCURVE",
"331 -19 CURVE",
"408 384 LINE"
);
}
);
width = 428;
}
);
unicode = 0173;
},
{
glyphname = v;
lastChange = "2014-11-24 05:17:59 +0000";
layers = (
{
background = {
paths = (
{
closed = 1;
nodes = (
"345 384 LINE",
"180 83 LINE",
"173 63 LINE",
"173 83 LINE",
"125 384 LINE",
"57 384 LINE",
"125 0 LINE",
"197 0 LINE",
"414 384 LINE"
);
}
);
};
layerId = "CFA4B904-E3F1-48B6-A7F6-47DC1FF2A3E1";
paths = (
{
closed = 1;
nodes = (
"345 384 LINE",
"180 83 LINE",
"173 63 LINE",
"173 83 LINE",
"125 384 LINE",
"59 384 LINE",
"127 0 LINE",
"198 0 LINE",
"415 384 LINE"
);
}
);
width = 400;
}
);
unicode = 0076;
},
{
glyphname = w;
lastChange = "2014-11-24 05:17:59 +0000";
layers = (
{
background = {
paths = (
{
closed = 1;
nodes = (
"112 0 LINE",
"184 0 LINE",
"339 297 LINE",
"378 0 LINE",
"451 0 LINE",
"658 384 LINE",
"590 384 LINE",
"430 77 LINE",
"425 62 LINE",
"425 77 LINE",
"389 384 LINE",
"326 384 LINE",
"165 77 LINE",
"161 62 LINE",
"162 77 LINE",
"121 384 LINE",
"57 384 LINE"
);
}
);
};
layerId = "CFA4B904-E3F1-48B6-A7F6-47DC1FF2A3E1";
paths = (
{
closed = 1;
nodes = (
"114 0 LINE",
"188 0 LINE",
"339 297 LINE",
"376 0 LINE",
"456 0 LINE",
"658 384 LINE",
"590 384 LINE",
"430 77 LINE",
"425 62 LINE",
"425 77 LINE",
"386 384 LINE",
"322 384 LINE",
"165 77 LINE",
"161 62 LINE",
"162 77 LINE",
"121 384 LINE",
"59 384 LINE"
);
}
);
width = 643;
}
);
unicode = 0077;
},
{
glyphname = x;
lastChange = "2014-11-24 05:17:59 +0000";
layers = (
{
background = {
paths = (
{
closed = 1;
nodes = (
"66 384 LINE",
"164 189 LINE",
"-11 0 LINE",
"63 0 LINE",
"192 141 LINE",
"265 0 LINE",
"342 0 LINE",
"241 191 LINE",
"419 384 LINE",
"344 384 LINE",
"213 240 LINE",
"138 384 LINE"
);
}
);
};
layerId = "CFA4B904-E3F1-48B6-A7F6-47DC1FF2A3E1";
paths = (
{
closed = 1;
nodes = (
"65 385 LINE",
"266 0 LINE",
"338 0 LINE",
"134 385 LINE"
);
},
{
closed = 1;
nodes = (
"-10 1 LINE",
"67 1 LINE",
"419 384 LINE",
"341 384 LINE"
);
}
);
width = 409;
}
);
unicode = 0078;
},
{
glyphname = y;
lastChange = "2014-11-24 05:17:59 +0000";
layers = (
{
anchors = (
{
name = top;
position = "{226, 384}";
}
);
background = {
paths = (
{
closed = 1;
nodes = (
"358 384 LINE",
"192 83 LINE",
"185 63 LINE",
"185 83 LINE",
"138 384 LINE",
"72 384 LINE",
"140 0 LINE",
"211 0 LINE",
"428 384 LINE"
);
}
);
};
layerId = "CFA4B904-E3F1-48B6-A7F6-47DC1FF2A3E1";
paths = (
{
closed = 1;
nodes = (
"179 66 LINE",
"123 384 LINE",
"59 384 LINE",
"132 -20 LINE",
"20 -206 LINE",
"94 -206 LINE",
"428 384 LINE",
"359 384 LINE"
);
}
);
width = 415;
}
);
unicode = 0079;
},
{
glyphname = yacute;
lastChange = "2014-11-24 05:17:59 +0000";
layers = (
{
components = (
{
name = y;
}
);
layerId = "CFA4B904-E3F1-48B6-A7F6-47DC1FF2A3E1";
paths = (
{
closed = 1;
nodes = (
"152 427 LINE",
"325 550 LINE",
"293 596 LINE",
"123 468 LINE"
);
}
);
width = 412;
}
);
unicode = 00FD;
},
{
glyphname = z;
lastChange = "2014-11-24 05:17:59 +0000";
layers = (
{
anchors = (
{
name = top;
position = "{230, 384}";
}
);
layerId = "CFA4B904-E3F1-48B6-A7F6-47DC1FF2A3E1";
paths = (
{
closed = 1;
nodes = (
"74 333 LINE",
"279 333 LINE",
"15 33 LINE",
"14 0 LINE",
"311 0 LINE",
"321 49 LINE",
"104 49 LINE",
"369 350 LINE",
"370 384 LINE",
"84 384 LINE"
);
}
);
width = 386;
}
);
unicode = 007A;
},
{
glyphname = fi;
lastChange = "2014-11-24 05:17:59 +0000";
layers = (
{
background = {
paths = (
{
closed = 1;
nodes = (
"312 503 OFFCURVE",
"325 500 OFFCURVE",
"340 497 CURVE",
"353 544 LINE",
"330 550 OFFCURVE",
"310 554 OFFCURVE",
"280 554 CURVE SMOOTH",
"226 554 OFFCURVE",
"187 534 OFFCURVE",
"165 495 CURVE SMOOTH",
"156 479 OFFCURVE",
"152 455 OFFCURVE",
"152 423 CURVE SMOOTH",
"152 384 LINE",
"97 384 LINE",
"97 333 LINE",
"154 333 LINE",
"154 0 LINE",
"219 0 LINE",
"219 333 LINE",
"335 333 LINE",
"335 384 LINE",
"218 384 LINE",
"218 426 LINE",
"218 488 OFFCURVE",
"255 503 OFFCURVE",
"300 503 CURVE SMOOTH"
);
},
{
closed = 1;
nodes = (
"415 0 LINE",
"480 0 LINE",
"480 384 LINE",
"415 384 LINE"
);
},
{
closed = 1;
nodes = (
"472 458 OFFCURVE",
"489 478 OFFCURVE",
"489 500 CURVE SMOOTH",
"489 521 OFFCURVE",
"472 541 OFFCURVE",
"448 541 CURVE SMOOTH",
"423 541 OFFCURVE",
"406 521 OFFCURVE",
"406 500 CURVE SMOOTH",
"406 478 OFFCURVE",
"423 458 OFFCURVE",
"448 458 CURVE SMOOTH"
);
}
);
};
components = (
{
name = i;
transform = "{1, 0, 0, 1, 277, 0}";
}
);
layerId = "CFA4B904-E3F1-48B6-A7F6-47DC1FF2A3E1";
paths = (
{
closed = 1;
nodes = (
"307 503 OFFCURVE",
"322 501 OFFCURVE",
"339 497 CURVE",
"352 543 LINE",
"330 550 OFFCURVE",
"305 554 OFFCURVE",
"277 554 CURVE SMOOTH",
"182 554 OFFCURVE",
"144 508 OFFCURVE",
"128 425 CURVE SMOOTH",
"120 384 LINE",
"65 384 LINE",
"55 333 LINE",
"112 333 LINE",
"47 0 LINE",
"112 0 LINE",
"177 333 LINE",
"303 333 LINE",
"313 384 LINE",
"186 384 LINE",
"192 417 LINE SMOOTH",
"204 479 OFFCURVE",
"229 503 OFFCURVE",
"295 503 CURVE SMOOTH"
);
}
);
width = 458;
}
);
unicode = FB01;
},
{
glyphname = fl;
lastChange = "2014-11-24 05:17:59 +0000";
layers = (
{
background = {
paths = (
{
closed = 1;
nodes = (
"305 503 OFFCURVE",
"317 500 OFFCURVE",
"332 497 CURVE",
"350 543 LINE",
"328 549 OFFCURVE",
"309 554 OFFCURVE",
"277 554 CURVE SMOOTH",
"225 554 OFFCURVE",
"183 536 OFFCURVE",
"153 499 CURVE SMOOTH",
"142 481 OFFCURVE",
"134 457 OFFCURVE",
"128 425 CURVE SMOOTH",
"120 384 LINE",
"65 384 LINE",
"55 333 LINE",
"112 333 LINE",
"47 0 LINE",
"112 0 LINE",
"177 333 LINE",
"293 333 LINE",
"303 384 LINE",
"186 384 LINE",
"194 424 LINE",
"206 486 OFFCURVE",
"248 503 OFFCURVE",
"295 503 CURVE SMOOTH"
);
},
{
closed = 1;
nodes = (
"379 51 OFFCURVE",
"384 76 OFFCURVE",
"389 104 CURVE SMOOTH",
"473 533 LINE",
"410 533 LINE",
"323 85 LINE SMOOTH",
"313 31 OFFCURVE",
"338 -9 OFFCURVE",
"390 -9 CURVE SMOOTH",
"426 -9 OFFCURVE",
"454 3 OFFCURVE",
"470 9 CURVE",
"462 58 LINE",
"450 54 OFFCURVE",
"439 51 OFFCURVE",
"426 51 CURVE SMOOTH"
);
}
);
};
components = (
{
name = l;
transform = "{1, 0, 0, 1, 283, 0}";
}
);
layerId = "CFA4B904-E3F1-48B6-A7F6-47DC1FF2A3E1";
paths = (
{
closed = 1;
nodes = (
"307 503 OFFCURVE",
"322 501 OFFCURVE",
"339 497 CURVE",
"352 543 LINE",
"330 550 OFFCURVE",
"305 554 OFFCURVE",
"277 554 CURVE SMOOTH",
"182 554 OFFCURVE",
"144 508 OFFCURVE",
"128 425 CURVE SMOOTH",
"120 384 LINE",
"65 384 LINE",
"55 333 LINE",
"112 333 LINE",
"47 0 LINE",
"112 0 LINE",
"177 333 LINE",
"303 333 LINE",
"313 384 LINE",
"186 384 LINE",
"192 417 LINE SMOOTH",
"204 479 OFFCURVE",
"229 503 OFFCURVE",
"295 503 CURVE SMOOTH"
);
}
);
width = 507;
}
);
unicode = FB02;
},
{
glyphname = acute;
lastChange = "2014-11-24 05:17:59 +0000";
layers = (
{
anchors = (
{
name = _top;
position = "{73, 384}";
}
);
background = {
paths = (
{
closed = 1;
nodes = (
"15 427 LINE",
"188 550 LINE",
"158 593 LINE",
"-12 465 LINE"
);
}
);
};
layerId = "CFA4B904-E3F1-48B6-A7F6-47DC1FF2A3E1";
paths = (
{
closed = 1;
nodes = (
"15 427 LINE",
"188 550 LINE",
"156 596 LINE",
"-14 468 LINE"
);
}
);
width = 193;
}
);
unicode = 00B4;
},
{
glyphname = breve;
lastChange = "2014-11-24 05:17:59 +0000";
layers = (
{
anchors = (
{
name = _top;
position = "{91, 384}";
}
);
background = {
paths = (
{
closed = 1;
nodes = (
"66 483 OFFCURVE",
"54 512 OFFCURVE",
"45 542 CURVE",
"2 527 LINE",
"10 485 OFFCURVE",
"37 434 OFFCURVE",
"104 434 CURVE SMOOTH",
"168 434 OFFCURVE",
"212 481 OFFCURVE",
"236 523 CURVE",
"195 546 LINE",
"176 516 OFFCURVE",
"150 483 OFFCURVE",
"106 483 CURVE SMOOTH"
);
}
);
};
layerId = "CFA4B904-E3F1-48B6-A7F6-47DC1FF2A3E1";
paths = (
{
closed = 1;
nodes = (
"66 482 OFFCURVE",
"54 512 OFFCURVE",
"45 542 CURVE",
"2 527 LINE",
"10 485 OFFCURVE",
"37 434 OFFCURVE",
"104 434 CURVE SMOOTH",
"168 434 OFFCURVE",
"213 480 OFFCURVE",
"237 522 CURVE",
"195 546 LINE",
"176 516 OFFCURVE",
"150 482 OFFCURVE",
"106 482 CURVE SMOOTH"
);
}
);
width = 245;
}
);
unicode = 02D8;
},
{
glyphname = caron;
lastChange = "2014-11-24 05:17:59 +0000";
layers = (
{
anchors = (
{
name = _top;
position = "{122, 384}";
}
);
background = {
paths = (
{
closed = 1;
nodes = (
"203 592 LINE",
"122 510 LINE",
"41 592 LINE",
"5 557 LINE",
"122 435 LINE",
"239 557 LINE"
);
}
);
};
layerId = "CFA4B904-E3F1-48B6-A7F6-47DC1FF2A3E1";
paths = (
{
closed = 1;
nodes = (
"233 591 LINE",
"135 509 LINE",
"68 592 LINE",
"29 558 LINE",
"128 432 LINE",
"267 554 LINE"
);
}
);
width = 244;
}
);
unicode = 02C7;
},
{
glyphname = cedilla;
lastChange = "2014-11-24 05:17:59 +0000";
layers = (
{
anchors = (
{
name = _bottom;
position = "{-17, 0}";
}
);
layerId = "CFA4B904-E3F1-48B6-A7F6-47DC1FF2A3E1";
paths = (
{
closed = 1;
nodes = (
"-56 -160 OFFCURVE",
"-71 -157 OFFCURVE",
"-116 -142 CURVE",
"-137 -185 LINE",
"-89 -201 OFFCURVE",
"-75 -207 OFFCURVE",
"-43 -207 CURVE SMOOTH",
"14 -207 OFFCURVE",
"47 -180 OFFCURVE",
"55 -141 CURVE SMOOTH",
"66 -84 OFFCURVE",
"35 -63 OFFCURVE",
"-15 -49 CURVE",
"13 11 LINE",
"-38 11 LINE",
"-79 -81 LINE",
"-24 -95 LINE",
"-7 -99 OFFCURVE",
"11 -107 OFFCURVE",
"8 -126 CURVE SMOOTH",
"3 -151 OFFCURVE",
"-12 -164 OFFCURVE",
"-43 -161 CURVE"
);
}
);
width = 194;
}
);
unicode = 00B8;
},
{
glyphname = circumflex;
lastChange = "2014-11-24 05:17:59 +0000";
layers = (
{
anchors = (
{
name = _top;
position = "{90, 384}";
}
);
background = {
paths = (
{
closed = 1;
nodes = (
"-11 470 LINE",
"21 435 LINE",
"118 517 LINE",
"183 435 LINE",
"223 470 LINE",
"128 592 LINE"
);
}
);
};
layerId = "CFA4B904-E3F1-48B6-A7F6-47DC1FF2A3E1";
paths = (
{
closed = 1;
nodes = (
"-11 470 LINE",
"23 433 LINE",
"121 515 LINE",
"188 432 LINE",
"227 466 LINE",
"128 592 LINE"
);
}
);
width = 244;
}
);
unicode = 02C6;
},
{
glyphname = dieresis;
lastChange = "2014-11-24 05:17:59 +0000";
layers = (
{
anchors = (
{
name = _top;
position = "{74, 384}";
}
);
background = {
paths = (
{
closed = 1;
nodes = (
"343 470 LINE",
"407 470 LINE",
"407 534 LINE",
"343 534 LINE"
);
},
{
closed = 1;
nodes = (
"205 470 LINE",
"268 470 LINE",
"268 534 LINE",
"205 534 LINE"
);
}
);
};
layerId = "CFA4B904-E3F1-48B6-A7F6-47DC1FF2A3E1";
paths = (
{
closed = 1;
nodes = (
"42 465 OFFCURVE",
"60 480 OFFCURVE",
"64 497 CURVE SMOOTH",
"68 520 OFFCURVE",
"53 539 OFFCURVE",
"31 539 CURVE SMOOTH",
"13 539 OFFCURVE",
"-5 524 OFFCURVE",
"-8 507 CURVE SMOOTH",
"-13 484 OFFCURVE",
"2 465 OFFCURVE",
"24 465 CURVE SMOOTH"
);
},
{
closed = 1;
nodes = (
"180 465 OFFCURVE",
"198 480 OFFCURVE",
"202 497 CURVE SMOOTH",
"206 520 OFFCURVE",
"191 539 OFFCURVE",
"169 539 CURVE SMOOTH",
"151 539 OFFCURVE",
"133 524 OFFCURVE",
"130 507 CURVE SMOOTH",
"125 484 OFFCURVE",
"140 465 OFFCURVE",
"162 465 CURVE SMOOTH"
);
}
);
width = 212;
}
);
unicode = 00A8;
},
{
glyphname = dotaccent;
lastChange = "2014-11-24 05:17:59 +0000";
layers = (
{
anchors = (
{
name = _top;
position = "{11, 384}";
}
);
background = {
paths = (
{
closed = 1;
nodes = (
"205 470 LINE",
"280 470 LINE",
"280 545 LINE",
"205 545 LINE"
);
}
);
};
layerId = "CFA4B904-E3F1-48B6-A7F6-47DC1FF2A3E1";
paths = (
{
closed = 1;
nodes = (
"51 466 OFFCURVE",
"71 482 OFFCURVE",
"75 503 CURVE SMOOTH",
"80 529 OFFCURVE",
"63 550 OFFCURVE",
"38 550 CURVE SMOOTH",
"17 550 OFFCURVE",
"-3 534 OFFCURVE",
"-7 513 CURVE SMOOTH",
"-12 487 OFFCURVE",
"5 466 OFFCURVE",
"30 466 CURVE SMOOTH"
);
}
);
width = 85;
}
);
unicode = 02D9;
},
{
glyphname = grave;
lastChange = "2014-11-24 05:17:59 +0000";
layers = (
{
anchors = (
{
name = _top;
position = "{73, 384}";
}
);
layerId = "CFA4B904-E3F1-48B6-A7F6-47DC1FF2A3E1";
paths = (
{
closed = 1;
nodes = (
"5 550 LINE",
"132 427 LINE",
"171 465 LINE",
"47 593 LINE"
);
}
);
width = 193;
}
);
unicode = 0060;
},
{
glyphname = macron;
lastChange = "2014-11-24 05:17:59 +0000";
layers = (
{
anchors = (
{
name = _top;
position = "{78, 384}";
}
);
layerId = "CFA4B904-E3F1-48B6-A7F6-47DC1FF2A3E1";
paths = (
{
closed = 1;
nodes = (
"-11 466 LINE",
"196 466 LINE",
"206 518 LINE",
"-1 518 LINE"
);
}
);
width = 217;
}
);
unicode = 00AF;
},
{
glyphname = ogonek;
lastChange = "2014-11-24 05:17:59 +0000";
layers = (
{
background = {
paths = (
{
closed = 0;
nodes = (
"349 -8 LINE",
"302 -47 OFFCURVE",
"275 -92 OFFCURVE",
"275 -135 CURVE SMOOTH",
"275 -176 OFFCURVE",
"301 -211 OFFCURVE",
"360 -211 CURVE SMOOTH",
"395 -211 OFFCURVE",
"420 -200 OFFCURVE",
"457 -175 CURVE",
"440 -142 LINE",
"424 -153 OFFCURVE",
"396 -164 OFFCURVE",
"376 -164 CURVE SMOOTH",
"348 -164 OFFCURVE",
"334 -149 OFFCURVE",
"334 -120 CURVE SMOOTH",
"334 -91 OFFCURVE",
"354 -59 OFFCURVE",
"393 -26 CURVE SMOOTH",
"412 -10 OFFCURVE",
"441 5 OFFCURVE",
"468 13 CURVE",
"456 61 LINE"
);
}
);
};
layerId = "CFA4B904-E3F1-48B6-A7F6-47DC1FF2A3E1";
paths = (
{
closed = 1;
nodes = (
"92 22 OFFCURVE",
"-40 -38 OFFCURVE",
"-57 -125 CURVE SMOOTH",
"-66 -172 OFFCURVE",
"-45 -211 OFFCURVE",
"16 -211 CURVE SMOOTH",
"49 -211 OFFCURVE",
"85 -196 OFFCURVE",
"118 -176 CURVE",
"103 -141 LINE",
"86 -152 OFFCURVE",
"56 -164 OFFCURVE",
"34 -164 CURVE SMOOTH",
"8 -164 OFFCURVE",
"-2 -151 OFFCURVE",
"3 -125 CURVE SMOOTH",
"15 -64 OFFCURVE",
"111 -18 OFFCURVE",
"166 12 CURVE",
"146 51 LINE"
);
}
);
width = 206;
}
);
unicode = 02DB;
},
{
glyphname = ring;
lastChange = "2014-11-24 05:17:59 +0000";
layers = (
{
anchors = (
{
name = _top;
position = "{59, 384}";
}
);
background = {
paths = (
{
closed = 1;
nodes = (
"127 498 OFFCURVE",
"101 475 OFFCURVE",
"71 475 CURVE SMOOTH",
"46 475 OFFCURVE",
"34 493 OFFCURVE",
"39 517 CURVE SMOOTH",
"45 548 OFFCURVE",
"69 569 OFFCURVE",
"99 569 CURVE SMOOTH",
"124 569 OFFCURVE",
"137 551 OFFCURVE",
"133 527 CURVE SMOOTH"
);
},
{
closed = 1;
nodes = (
"-9 477 OFFCURVE",
"24 435 OFFCURVE",
"73 435 CURVE SMOOTH",
"118 435 OFFCURVE",
"161 474 OFFCURVE",
"170 517 CURVE SMOOTH",
"179 567 OFFCURVE",
"146 609 OFFCURVE",
"98 609 CURVE SMOOTH",
"53 609 OFFCURVE",
"9 571 OFFCURVE",
"1 527 CURVE SMOOTH"
);
}
);
};
layerId = "CFA4B904-E3F1-48B6-A7F6-47DC1FF2A3E1";
paths = (
{
closed = 1;
nodes = (
"127 498 OFFCURVE",
"101 475 OFFCURVE",
"71 475 CURVE SMOOTH",
"46 475 OFFCURVE",
"34 493 OFFCURVE",
"39 517 CURVE SMOOTH",
"45 548 OFFCURVE",
"69 569 OFFCURVE",
"99 569 CURVE SMOOTH",
"124 569 OFFCURVE",
"137 551 OFFCURVE",
"133 527 CURVE SMOOTH"
);
},
{
closed = 1;
nodes = (
"-11 477 OFFCURVE",
"14 435 OFFCURVE",
"73 435 CURVE SMOOTH",
"118 435 OFFCURVE",
"163 474 OFFCURVE",
"172 517 CURVE SMOOTH",
"181 567 OFFCURVE",
"156 609 OFFCURVE",
"98 609 CURVE SMOOTH",
"53 609 OFFCURVE",
"7 571 OFFCURVE",
"-1 527 CURVE SMOOTH"
);
}
);
width = 181;
}
);
unicode = 02DA;
},
{
glyphname = tilde;
lastChange = "2014-11-24 05:17:59 +0000";
layers = (
{
anchors = (
{
name = _top;
position = "{105, 384}";
}
);
background = {
paths = (
{
closed = 1;
nodes = (
"46 536 OFFCURVE",
"16 504 OFFCURVE",
"5 457 CURVE",
"50 442 LINE",
"58 469 OFFCURVE",
"67 486 OFFCURVE",
"90 486 CURVE SMOOTH",
"114 486 OFFCURVE",
"140 443 OFFCURVE",
"186 443 CURVE SMOOTH",
"233 443 OFFCURVE",
"264 476 OFFCURVE",
"273 521 CURVE",
"227 536 LINE",
"220 508 OFFCURVE",
"210 491 OFFCURVE",
"184 491 CURVE SMOOTH",
"159 491 OFFCURVE",
"127 536 OFFCURVE",
"89 536 CURVE SMOOTH"
);
}
);
};
layerId = "CFA4B904-E3F1-48B6-A7F6-47DC1FF2A3E1";
paths = (
{
closed = 1;
nodes = (
"41 536 OFFCURVE",
"7 506 OFFCURVE",
"-13 459 CURVE",
"30 440 LINE",
"43 467 OFFCURVE",
"57 486 OFFCURVE",
"78 486 CURVE SMOOTH",
"104 486 OFFCURVE",
"121 443 OFFCURVE",
"169 443 CURVE SMOOTH",
"214 443 OFFCURVE",
"249 474 OFFCURVE",
"267 519 CURVE",
"224 538 LINE",
"211 510 OFFCURVE",
"197 491 OFFCURVE",
"173 491 CURVE SMOOTH",
"146 491 OFFCURVE",
"122 536 OFFCURVE",
"82 536 CURVE SMOOTH"
);
}
);
width = 278;
}
);
unicode = 02DC;
},
{
glyphname = acute.cap;
lastChange = "2014-11-24 05:17:59 +0000";
layers = (
{
anchors = (
{
name = _top.cap;
position = "{100, 550}";
}
);
layerId = "CFA4B904-E3F1-48B6-A7F6-47DC1FF2A3E1";
paths = (
{
closed = 1;
nodes = (
"20 627 LINE",
"35 586 LINE",
"217 652 LINE",
"200 705 LINE"
);
}
);
width = 203;
}
);
},
{
glyphname = breve.cap;
lastChange = "2014-11-24 05:17:59 +0000";
layers = (
{
anchors = (
{
name = _top.cap;
position = "{124, 550}";
}
);
background = {
paths = (
{
closed = 1;
nodes = (
"188 598 OFFCURVE",
"233 626 OFFCURVE",
"269 670 CURVE",
"234 700 LINE",
"204 670 OFFCURVE",
"175 646 OFFCURVE",
"140 646 CURVE SMOOTH",
"108 646 OFFCURVE",
"89 666 OFFCURVE",
"69 696 CURVE",
"30 674 LINE",
"50 630 OFFCURVE",
"84 598 OFFCURVE",
"138 598 CURVE SMOOTH"
);
}
);
};
layerId = "CFA4B904-E3F1-48B6-A7F6-47DC1FF2A3E1";
paths = (
{
closed = 1;
nodes = (
"188 598 OFFCURVE",
"235 624 OFFCURVE",
"271 668 CURVE",
"234 700 LINE",
"204 670 OFFCURVE",
"175 646 OFFCURVE",
"140 646 CURVE SMOOTH",
"108 646 OFFCURVE",
"89 666 OFFCURVE",
"69 696 CURVE",
"27 672 LINE",
"50 628 OFFCURVE",
"84 598 OFFCURVE",
"138 598 CURVE SMOOTH"
);
}
);
width = 250;
}
);
},
{
glyphname = caron.cap;
lastChange = "2014-11-24 05:17:59 +0000";
layers = (
{
anchors = (
{
name = _top.cap;
position = "{128, 550}";
}
);
background = {
paths = (
{
closed = 1;
nodes = (
"250 720 LINE",
"147 655 LINE",
"70 720 LINE",
"31 683 LINE",
"137 592 LINE",
"276 683 LINE"
);
}
);
};
layerId = "CFA4B904-E3F1-48B6-A7F6-47DC1FF2A3E1";
paths = (
{
closed = 1;
nodes = (
"244 723 LINE",
"140 654 LINE",
"57 724 LINE",
"22 690 LINE",
"136 592 LINE",
"273 684 LINE"
);
}
);
width = 255;
}
);
},
{
glyphname = cedilla.cap;
lastChange = "2014-11-24 05:17:59 +0000";
layers = (
{
anchors = (
{
name = _bottom;
position = "{87, 0}";
}
);
background = {
paths = (
{
closed = 1;
nodes = (
"89 -171 OFFCURVE",
"67 -166 OFFCURVE",
"33 -157 CURVE",
"20 -153 LINE",
"5 -206 LINE",
"19 -209 LINE",
"40 -217 OFFCURVE",
"57 -220 OFFCURVE",
"64 -221 CURVE",
"76 -225 OFFCURVE",
"84 -226 OFFCURVE",
"103 -226 CURVE SMOOTH",
"160 -226 OFFCURVE",
"199 -190 OFFCURVE",
"199 -145 CURVE SMOOTH",
"199 -82 OFFCURVE",
"152 -67 OFFCURVE",
"116 -57 CURVE",
"104 -52 LINE",
"118 9 LINE",
"57 9 LINE",
"36 -91 LINE",
"99 -106 LINE SMOOTH",
"117 -110 OFFCURVE",
"142 -121 OFFCURVE",
"142 -142 CURVE SMOOTH",
"142 -164 OFFCURVE",
"124 -174 OFFCURVE",
"99 -172 CURVE SMOOTH"
);
}
);
};
layerId = "CFA4B904-E3F1-48B6-A7F6-47DC1FF2A3E1";
paths = (
{
closed = 1;
nodes = (
"37 -171 OFFCURVE",
"16 -162 OFFCURVE",
"-13 -153 CURVE",
"-36 -205 LINE",
"1 -216 OFFCURVE",
"29 -226 OFFCURVE",
"65 -226 CURVE SMOOTH",
"116 -226 OFFCURVE",
"160 -196 OFFCURVE",
"168 -154 CURVE SMOOTH",
"181 -86 OFFCURVE",
"144 -67 OFFCURVE",
"91 -52 CURVE",
"122 11 LINE",
"65 22 LINE",
"15 -90 LINE",
"79 -105 LINE SMOOTH",
"104 -111 OFFCURVE",
"116 -123 OFFCURVE",
"112 -141 CURVE SMOOTH",
"108 -166 OFFCURVE",
"85 -173 OFFCURVE",
"60 -172 CURVE SMOOTH"
);
}
);
width = 204;
}
);
},
{
glyphname = circumflex.cap;
lastChange = "2014-11-24 05:17:59 +0000";
layers = (
{
anchors = (
{
name = _top.cap;
position = "{137, 550}";
}
);
background = {
paths = (
{
closed = 1;
nodes = (
"20 628 LINE",
"47 592 LINE",
"150 656 LINE",
"227 592 LINE",
"265 628 LINE",
"160 720 LINE"
);
}
);
};
layerId = "CFA4B904-E3F1-48B6-A7F6-47DC1FF2A3E1";
paths = (
{
closed = 1;
nodes = (
"20 628 LINE",
"49 589 LINE",
"153 658 LINE",
"236 588 LINE",
"271 622 LINE",
"157 720 LINE"
);
}
);
width = 255;
}
);
},
{
glyphname = dieresis.cap;
lastChange = "2014-11-24 05:17:59 +0000";
layers = (
{
anchors = (
{
name = _top.cap;
position = "{117, 550}";
}
);
background = {
paths = (
{
closed = 1;
nodes = (
"363 620 LINE",
"427 620 LINE",
"427 684 LINE",
"363 684 LINE"
);
},
{
closed = 1;
nodes = (
"205 620 LINE",
"269 620 LINE",
"269 684 LINE",
"205 684 LINE"
);
}
);
};
layerId = "CFA4B904-E3F1-48B6-A7F6-47DC1FF2A3E1";
paths = (
{
closed = 1;
nodes = (
"72 615 OFFCURVE",
"90 630 OFFCURVE",
"93 647 CURVE SMOOTH",
"97 670 OFFCURVE",
"82 689 OFFCURVE",
"60 689 CURVE SMOOTH",
"42 689 OFFCURVE",
"24 674 OFFCURVE",
"21 657 CURVE SMOOTH",
"16 634 OFFCURVE",
"32 615 OFFCURVE",
"54 615 CURVE SMOOTH"
);
},
{
closed = 1;
nodes = (
"230 615 OFFCURVE",
"248 630 OFFCURVE",
"251 647 CURVE SMOOTH",
"255 670 OFFCURVE",
"240 689 OFFCURVE",
"218 689 CURVE SMOOTH",
"200 689 OFFCURVE",
"182 674 OFFCURVE",
"179 657 CURVE SMOOTH",
"174 634 OFFCURVE",
"190 615 OFFCURVE",
"212 615 CURVE SMOOTH"
);
}
);
width = 232;
}
);
},
{
glyphname = dotaccent.cap;
lastChange = "2014-11-24 05:17:59 +0000";
layers = (
{
anchors = (
{
name = _top.cap;
position = "{43, 550}";
}
);
background = {
paths = (
{
closed = 1;
nodes = (
"205 624 LINE",
"280 624 LINE",
"280 697 LINE",
"205 697 LINE"
);
}
);
};
layerId = "CFA4B904-E3F1-48B6-A7F6-47DC1FF2A3E1";
paths = (
{
closed = 1;
nodes = (
"80 619 OFFCURVE",
"101 636 OFFCURVE",
"105 656 CURVE SMOOTH",
"110 682 OFFCURVE",
"93 703 OFFCURVE",
"68 703 CURVE SMOOTH",
"47 703 OFFCURVE",
"26 686 OFFCURVE",
"23 666 CURVE SMOOTH",
"17 640 OFFCURVE",
"34 619 OFFCURVE",
"59 619 CURVE SMOOTH"
);
}
);
width = 85;
}
);
},
{
glyphname = grave.cap;
lastChange = "2014-11-24 05:17:59 +0000";
layers = (
{
anchors = (
{
name = _top.cap;
position = "{94, 550}";
}
);
layerId = "CFA4B904-E3F1-48B6-A7F6-47DC1FF2A3E1";
paths = (
{
closed = 1;
nodes = (
"183 586 LINE",
"211 627 LINE",
"59 705 LINE",
"25 652 LINE"
);
}
);
width = 201;
}
);
},
{
glyphname = macron.cap;
lastChange = "2014-11-24 05:17:59 +0000";
layers = (
{
anchors = (
{
name = _top.cap;
position = "{127, 550}";
}
);
layerId = "CFA4B904-E3F1-48B6-A7F6-47DC1FF2A3E1";
paths = (
{
closed = 1;
nodes = (
"18 617 LINE",
"257 617 LINE",
"267 667 LINE",
"28 667 LINE"
);
}
);
width = 249;
}
);
},
{
glyphname = ring.cap;
lastChange = "2014-11-24 05:17:59 +0000";
layers = (
{
anchors = (
{
name = _top.cap;
position = "{91, 550}";
}
);
background = {
paths = (
{
closed = 1;
nodes = (
"155 648 OFFCURVE",
"131 625 OFFCURVE",
"100 625 CURVE SMOOTH",
"75 625 OFFCURVE",
"62 643 OFFCURVE",
"67 669 CURVE SMOOTH",
"73 698 OFFCURVE",
"97 721 OFFCURVE",
"127 721 CURVE SMOOTH",
"152 721 OFFCURVE",
"165 700 OFFCURVE",
"161 679 CURVE SMOOTH"
);
},
{
closed = 1;
nodes = (
"20 627 OFFCURVE",
"52 586 OFFCURVE",
"101 586 CURVE SMOOTH",
"146 586 OFFCURVE",
"190 623 OFFCURVE",
"199 669 CURVE SMOOTH",
"209 718 OFFCURVE",
"176 760 OFFCURVE",
"127 760 CURVE SMOOTH",
"82 760 OFFCURVE",
"39 723 OFFCURVE",
"30 679 CURVE SMOOTH"
);
}
);
};
layerId = "CFA4B904-E3F1-48B6-A7F6-47DC1FF2A3E1";
paths = (
{
closed = 1;
nodes = (
"155 648 OFFCURVE",
"131 625 OFFCURVE",
"100 625 CURVE SMOOTH",
"75 625 OFFCURVE",
"62 643 OFFCURVE",
"67 669 CURVE SMOOTH",
"73 698 OFFCURVE",
"97 721 OFFCURVE",
"127 721 CURVE SMOOTH",
"152 721 OFFCURVE",
"165 700 OFFCURVE",
"161 679 CURVE SMOOTH"
);
},
{
closed = 1;
nodes = (
"20 627 OFFCURVE",
"50 586 OFFCURVE",
"101 586 CURVE SMOOTH",
"148 586 OFFCURVE",
"190 623 OFFCURVE",
"199 669 CURVE SMOOTH",
"209 718 OFFCURVE",
"178 760 OFFCURVE",
"127 760 CURVE SMOOTH",
"80 760 OFFCURVE",
"39 723 OFFCURVE",
"30 679 CURVE SMOOTH"
);
}
);
width = 181;
}
);
},
{
glyphname = tilde.cap;
lastChange = "2014-11-24 05:17:59 +0000";
layers = (
{
anchors = (
{
name = _top.cap;
position = "{137, 550}";
}
);
background = {
paths = (
{
closed = 1;
nodes = (
"71 687 OFFCURVE",
"37 657 OFFCURVE",
"16 609 CURVE",
"59 591 LINE",
"72 618 OFFCURVE",
"86 637 OFFCURVE",
"111 637 CURVE SMOOTH",
"133 637 OFFCURVE",
"151 594 OFFCURVE",
"199 594 CURVE SMOOTH",
"244 594 OFFCURVE",
"278 624 OFFCURVE",
"297 671 CURVE",
"253 689 LINE",
"240 660 OFFCURVE",
"226 642 OFFCURVE",
"198 642 CURVE SMOOTH",
"175 642 OFFCURVE",
"152 687 OFFCURVE",
"112 687 CURVE SMOOTH"
);
}
);
};
layerId = "CFA4B904-E3F1-48B6-A7F6-47DC1FF2A3E1";
paths = (
{
closed = 1;
nodes = (
"69 687 OFFCURVE",
"37 657 OFFCURVE",
"16 609 CURVE",
"59 591 LINE",
"72 618 OFFCURVE",
"86 637 OFFCURVE",
"108 637 CURVE SMOOTH",
"133 637 OFFCURVE",
"153 594 OFFCURVE",
"201 594 CURVE SMOOTH",
"246 594 OFFCURVE",
"278 624 OFFCURVE",
"297 671 CURVE",
"253 689 LINE",
"240 660 OFFCURVE",
"226 642 OFFCURVE",
"203 642 CURVE SMOOTH",
"175 642 OFFCURVE",
"150 687 OFFCURVE",
"110 687 CURVE SMOOTH"
);
}
);
width = 278;
}
);
},
{
glyphname = commaaccent;
lastChange = "2014-11-24 05:17:59 +0000";
layers = (
{
anchors = (
{
name = _bottom;
position = "{73, 0}";
}
);
layerId = "CFA4B904-E3F1-48B6-A7F6-47DC1FF2A3E1";
paths = (
{
closed = 1;
nodes = (
"-61 -199 LINE",
"-5 -199 LINE",
"104 -48 LINE",
"34 -48 LINE"
);
}
);
width = 146;
}
);
unicode = 0326;
},
{
glyphname = firsttonechinese;
lastChange = "2014-11-24 05:17:59 +0000";
layers = (
{
layerId = "CFA4B904-E3F1-48B6-A7F6-47DC1FF2A3E1";
paths = (
{
closed = 1;
nodes = (
"325 518 LINE",
"315 466 LINE",
"108 466 LINE",
"118 518 LINE"
);
}
);
width = 317;
}
);
unicode = 02C9;
},
{
glyphname = ordfeminine;
lastChange = "2014-11-24 05:17:59 +0000";
layers = (
{
background = {
paths = (
{
closed = 1;
nodes = (
"377 505 OFFCURVE",
"352 500 OFFCURVE",
"333 495 CURVE",
"323 529 LINE",
"347 538 OFFCURVE",
"373 544 OFFCURVE",
"396 544 CURVE SMOOTH",
"423 544 OFFCURVE",
"445 538 OFFCURVE",
"458 530 CURVE",
"481 514 OFFCURVE",
"494 491 OFFCURVE",
"494 455 CURVE SMOOTH",
"494 312 LINE",
"458 312 LINE",
"450 332 LINE",
"427 315 OFFCURVE",
"404 306 OFFCURVE",
"381 306 CURVE SMOOTH",
"334 306 OFFCURVE",
"310 338 OFFCURVE",
"310 375 CURVE SMOOTH",
"310 411 OFFCURVE",
"329 428 OFFCURVE",
"355 437 CURVE SMOOTH",
"381 446 OFFCURVE",
"415 446 OFFCURVE",
"448 446 CURVE",
"448 447 LINE SMOOTH",
"448 466 OFFCURVE",
"446 470 OFFCURVE",
"443 478 CURVE SMOOTH",
"436 497 OFFCURVE",
"421 505 OFFCURVE",
"392 505 CURVE SMOOTH"
);
},
{
closed = 1;
nodes = (
"414 344 OFFCURVE",
"432 354 OFFCURVE",
"448 370 CURVE",
"448 410 LINE",
"438 410 OFFCURVE",
"428 410 OFFCURVE",
"417 411 CURVE",
"395 411 OFFCURVE",
"376 408 OFFCURVE",
"364 400 CURVE",
"358 395 OFFCURVE",
"355 388 OFFCURVE",
"355 379 CURVE SMOOTH",
"355 359 OFFCURVE",
"367 344 OFFCURVE",
"387 344 CURVE SMOOTH"
);
}
);
};
layerId = "CFA4B904-E3F1-48B6-A7F6-47DC1FF2A3E1";
paths = (
{
closed = 1;
nodes = (
"164 505 OFFCURVE",
"139 500 OFFCURVE",
"115 493 CURVE",
"115 529 LINE",
"141 538 OFFCURVE",
"168 544 OFFCURVE",
"193 544 CURVE SMOOTH",
"249 544 OFFCURVE",
"283 511 OFFCURVE",
"272 448 CURVE SMOOTH",
"248 312 LINE",
"216 312 LINE",
"211 334 LINE",
"187 316 OFFCURVE",
"161 306 OFFCURVE",
"136 306 CURVE SMOOTH",
"101 306 OFFCURVE",
"75 329 OFFCURVE",
"75 363 CURVE SMOOTH",
"75 418 OFFCURVE",
"103 449 OFFCURVE",
"228 445 CURVE SMOOTH",
"235 482 OFFCURVE",
"227 505 OFFCURVE",
"180 505 CURVE SMOOTH"
);
},
{
closed = 1;
nodes = (
"176 344 OFFCURVE",
"196 352 OFFCURVE",
"215 368 CURVE",
"221 411 LINE",
"188 411 LINE",
"156 411 OFFCURVE",
"127 404 OFFCURVE",
"123 384 CURVE SMOOTH",
"119 361 OFFCURVE",
"129 344 OFFCURVE",
"151 344 CURVE SMOOTH"
);
}
);
width = 265;
}
);
unicode = 00AA;
},
{
glyphname = ordmasculine;
lastChange = "2014-11-24 05:17:59 +0000";
layers = (
{
background = {
paths = (
{
closed = 1;
nodes = (
"172 506 OFFCURVE",
"143 476 OFFCURVE",
"134 430 CURVE SMOOTH",
"123 378 OFFCURVE",
"145 344 OFFCURVE",
"186 344 CURVE SMOOTH",
"223 344 OFFCURVE",
"252 372 OFFCURVE",
"262 420 CURVE SMOOTH",
"272 472 OFFCURVE",
"250 506 OFFCURVE",
"209 506 CURVE SMOOTH"
);
},
{
closed = 1;
nodes = (
"101 307 OFFCURVE",
"73 351 OFFCURVE",
"87 420 CURVE SMOOTH",
"101 495 OFFCURVE",
"154 543 OFFCURVE",
"225 543 CURVE SMOOTH",
"294 543 OFFCURVE",
"322 499 OFFCURVE",
"309 430 CURVE SMOOTH",
"294 355 OFFCURVE",
"243 307 OFFCURVE",
"170 307 CURVE SMOOTH"
);
}
);
};
layerId = "CFA4B904-E3F1-48B6-A7F6-47DC1FF2A3E1";
paths = (
{
closed = 1;
nodes = (
"155 506 OFFCURVE",
"132 447 OFFCURVE",
"131 406 CURVE SMOOTH",
"132 368 OFFCURVE",
"152 344 OFFCURVE",
"186 344 CURVE SMOOTH",
"242 344 OFFCURVE",
"264 397 OFFCURVE",
"264 445 CURVE SMOOTH",
"264 483 OFFCURVE",
"243 506 OFFCURVE",
"209 506 CURVE SMOOTH"
);
},
{
closed = 1;
nodes = (
"118 307 OFFCURVE",
"84 348 OFFCURVE",
"84 398 CURVE SMOOTH",
"84 465 OFFCURVE",
"115 543 OFFCURVE",
"220 543 CURVE SMOOTH",
"278 543 OFFCURVE",
"312 502 OFFCURVE",
"312 452 CURVE SMOOTH",
"312 387 OFFCURVE",
"282 307 OFFCURVE",
"176 307 CURVE SMOOTH"
);
}
);
width = 305;
}
);
unicode = 00BA;
},
{
glyphname = zero;
lastChange = "2014-11-24 05:17:59 +0000";
layers = (
{
background = {
paths = (
{
closed = 1;
nodes = (
"613 363 OFFCURVE",
"594 435 OFFCURVE",
"556 483 CURVE SMOOTH",
"515 533 OFFCURVE",
"464 558 OFFCURVE",
"404 558 CURVE SMOOTH",
"344 558 OFFCURVE",
"293 533 OFFCURVE",
"252 483 CURVE SMOOTH",
"214 435 OFFCURVE",
"195 363 OFFCURVE",
"195 275 CURVE SMOOTH",
"195 187 OFFCURVE",
"214 120 OFFCURVE",
"252 72 CURVE SMOOTH",
"293 22 OFFCURVE",
"344 -8 OFFCURVE",
"404 -8 CURVE SMOOTH",
"464 -8 OFFCURVE",
"515 22 OFFCURVE",
"556 72 CURVE SMOOTH",
"594 120 OFFCURVE",
"613 187 OFFCURVE",
"613 275 CURVE SMOOTH"
);
},
{
closed = 1;
nodes = (
"548 165 OFFCURVE",
"504 52 OFFCURVE",
"408 52 CURVE SMOOTH",
"307 52 OFFCURVE",
"260 165 OFFCURVE",
"260 280 CURVE SMOOTH",
"260 390 OFFCURVE",
"307 498 OFFCURVE",
"408 498 CURVE SMOOTH",
"504 498 OFFCURVE",
"548 390 OFFCURVE",
"548 280 CURVE SMOOTH"
);
}
);
};
layerId = "CFA4B904-E3F1-48B6-A7F6-47DC1FF2A3E1";
paths = (
{
closed = 1;
nodes = (
"29 45 OFFCURVE",
"21 137 OFFCURVE",
"37 223 CURVE SMOOTH",
"55 314 OFFCURVE",
"104 411 OFFCURVE",
"197 411 CURVE SMOOTH",
"286 411 OFFCURVE",
"294 319 OFFCURVE",
"277 233 CURVE SMOOTH",
"260 142 OFFCURVE",
"210 45 OFFCURVE",
"117 45 CURVE SMOOTH"
);
},
{
closed = 1;
nodes = (
"80 464 OFFCURVE",
"3 359 OFFCURVE",
"-22 233 CURVE SMOOTH",
"-47 102 OFFCURVE",
"-8 -8 OFFCURVE",
"117 -8 CURVE SMOOTH",
"233 -8 OFFCURVE",
"311 97 OFFCURVE",
"335 223 CURVE SMOOTH",
"361 356 OFFCURVE",
"325 464 OFFCURVE",
"199 464 CURVE"
);
}
);
width = 440;
}
);
unicode = 0030;
},
{
glyphname = one;
lastChange = "2014-11-24 05:17:59 +0000";
layers = (
{
background = {
paths = (
{
closed = 1;
nodes = (
"87 456 LINE",
"-5 420 LINE",
"8 372 LINE",
"84 400 LINE",
"16 50 LINE",
"-70 50 LINE",
"-80 0 LINE",
"143 0 LINE",
"153 50 LINE",
"75 50 LINE",
"154 456 LINE"
);
}
);
};
layerId = "CFA4B904-E3F1-48B6-A7F6-47DC1FF2A3E1";
paths = (
{
closed = 1;
nodes = (
"87 456 LINE",
"-5 420 LINE",
"8 372 LINE",
"84 400 LINE",
"16 50 LINE",
"-60 50 LINE",
"-70 0 LINE",
"148 0 LINE",
"158 50 LINE",
"75 50 LINE",
"154 456 LINE"
);
}
);
width = 270;
}
);
unicode = 0031;
},
{
glyphname = two;
lastChange = "2014-11-24 05:17:59 +0000";
layers = (
{
background = {
paths = (
{
closed = 1;
nodes = (
"305 394 OFFCURVE",
"318 404 OFFCURVE",
"373 404 CURVE SMOOTH",
"427 404 OFFCURVE",
"450 370 OFFCURVE",
"450 323 CURVE SMOOTH",
"450 266 OFFCURVE",
"430 256 OFFCURVE",
"351 174 CURVE SMOOTH",
"231 49 LINE",
"231 0 LINE",
"527 0 LINE",
"527 58 LINE",
"327 58 LINE",
"405 139 LINE SMOOTH",
"460 196 OFFCURVE",
"518 244 OFFCURVE",
"518 332 CURVE SMOOTH",
"518 424 OFFCURVE",
"443 465 OFFCURVE",
"381 465 CURVE SMOOTH",
"307 465 OFFCURVE",
"288 452 OFFCURVE",
"230 429 CURVE",
"253 374 LINE"
);
}
);
};
layerId = "CFA4B904-E3F1-48B6-A7F6-47DC1FF2A3E1";
paths = (
{
closed = 1;
nodes = (
"58 385 OFFCURVE",
"91 407 OFFCURVE",
"148 407 CURVE SMOOTH",
"200 407 OFFCURVE",
"226 381 OFFCURVE",
"218 337 CURVE SMOOTH",
"210 298 OFFCURVE",
"197 275 OFFCURVE",
"128 214 CURVE SMOOTH",
"89 175 OFFCURVE",
"26 124 OFFCURVE",
"-58 45 CURVE",
"-59 0 LINE",
"214 0 LINE",
"225 55 LINE",
"35 55 LINE",
"129 138 LINE SMOOTH",
"209 208 OFFCURVE",
"261 255 OFFCURVE",
"275 327 CURVE SMOOTH",
"293 422 OFFCURVE",
"224 465 OFFCURVE",
"160 465 CURVE SMOOTH",
"88 465 OFFCURVE",
"39 439 OFFCURVE",
"3 421 CURVE",
"19 367 LINE"
);
}
);
width = 357;
}
);
unicode = 0032;
},
{
glyphname = three;
lastChange = "2014-11-24 05:17:59 +0000";
layers = (
{
layerId = "CFA4B904-E3F1-48B6-A7F6-47DC1FF2A3E1";
paths = (
{
closed = 1;
nodes = (
"113 466 OFFCURVE",
"69 453 OFFCURVE",
"12 427 CURVE",
"27 372 LINE",
"77 393 OFFCURVE",
"110 408 OFFCURVE",
"153 408 CURVE SMOOTH",
"198 408 OFFCURVE",
"231 396 OFFCURVE",
"222 347 CURVE SMOOTH",
"212 300 OFFCURVE",
"170 265 OFFCURVE",
"73 261 CURVE",
"64 205 LINE",
"166 205 OFFCURVE",
"213 191 OFFCURVE",
"202 132 CURVE SMOOTH",
"192 84 OFFCURVE",
"155 54 OFFCURVE",
"81 54 CURVE SMOOTH",
"40 54 OFFCURVE",
"2 68 OFFCURVE",
"-40 90 CURVE",
"-69 35 LINE",
"-24 13 OFFCURVE",
"16 -5 OFFCURVE",
"82 -5 CURVE SMOOTH",
"175 -5 OFFCURVE",
"246 39 OFFCURVE",
"263 119 CURVE SMOOTH",
"277 183 OFFCURVE",
"240 219 OFFCURVE",
"194 234 CURVE",
"236 255 OFFCURVE",
"273 294 OFFCURVE",
"283 342 CURVE SMOOTH",
"299 425 OFFCURVE",
"246 466 OFFCURVE",
"161 466 CURVE SMOOTH"
);
}
);
width = 387;
}
);
unicode = 0033;
},
{
glyphname = four;
lastChange = "2014-11-24 05:17:59 +0000";
layers = (
{
layerId = "CFA4B904-E3F1-48B6-A7F6-47DC1FF2A3E1";
paths = (
{
closed = 1;
nodes = (
"203 456 LINE",
"-58 154 LINE",
"-58 109 LINE",
"160 109 LINE",
"139 -1 LINE",
"198 -1 LINE",
"219 109 LINE",
"298 109 LINE",
"309 165 LINE",
"230 165 LINE",
"287 456 LINE"
);
},
{
closed = 1;
nodes = (
"22 165 LINE",
"217 394 LINE",
"171 165 LINE"
);
}
);
width = 397;
}
);
unicode = 0034;
},
{
glyphname = five;
lastChange = "2014-11-24 05:17:59 +0000";
layers = (
{
background = {
paths = (
{
closed = 1;
nodes = (
"394 237 OFFCURVE",
"429 234 OFFCURVE",
"456 210 CURVE SMOOTH",
"475 193 OFFCURVE",
"483 168 OFFCURVE",
"483 139 CURVE SMOOTH",
"483 104 OFFCURVE",
"464 82 OFFCURVE",
"443 67 CURVE SMOOTH",
"416 48 OFFCURVE",
"378 46 OFFCURVE",
"347 46 CURVE SMOOTH",
"307 46 OFFCURVE",
"277 56 OFFCURVE",
"245 67 CURVE",
"230 15 LINE",
"270 1 OFFCURVE",
"317 -7 OFFCURVE",
"352 -7 CURVE SMOOTH",
"372 -7 OFFCURVE",
"394 -5 OFFCURVE",
"417 1 CURVE",
"444 7 OFFCURVE",
"466 18 OFFCURVE",
"486 35 CURVE SMOOTH",
"521 63 OFFCURVE",
"537 99 OFFCURVE",
"537 146 CURVE SMOOTH",
"537 166 OFFCURVE",
"533 186 OFFCURVE",
"524 204 CURVE SMOOTH",
"499 256 OFFCURVE",
"452 286 OFFCURVE",
"369 286 CURVE SMOOTH",
"350 286 OFFCURVE",
"328 284 OFFCURVE",
"303 281 CURVE",
"303 410 LINE",
"510 410 LINE",
"510 456 LINE",
"250 456 LINE",
"250 235 LINE",
"265 230 LINE",
"293 234 OFFCURVE",
"318 237 OFFCURVE",
"345 237 CURVE SMOOTH"
);
},
{
closed = 1;
nodes = (
"439 237 OFFCURVE",
"475 208 OFFCURVE",
"475 145 CURVE SMOOTH",
"475 79 OFFCURVE",
"428 54 OFFCURVE",
"351 54 CURVE SMOOTH",
"315 54 OFFCURVE",
"278 64 OFFCURVE",
"246 74 CURVE",
"230 15 LINE",
"270 1 OFFCURVE",
"317 -7 OFFCURVE",
"352 -7 CURVE SMOOTH",
"445 -7 OFFCURVE",
"537 29 OFFCURVE",
"537 146 CURVE SMOOTH",
"537 229 OFFCURVE",
"482 294 OFFCURVE",
"369 294 CURVE SMOOTH",
"350 294 OFFCURVE",
"338 294 OFFCURVE",
"313 291 CURVE",
"313 401 LINE",
"510 401 LINE",
"510 456 LINE",
"250 456 LINE",
"250 235 LINE",
"265 230 LINE",
"293 234 OFFCURVE",
"318 237 OFFCURVE",
"345 237 CURVE SMOOTH"
);
}
);
};
layerId = "CFA4B904-E3F1-48B6-A7F6-47DC1FF2A3E1";
paths = (
{
closed = 1;
nodes = (
"181 239 OFFCURVE",
"212 214 OFFCURVE",
"199 150 CURVE SMOOTH",
"186 81 OFFCURVE",
"134 52 OFFCURVE",
"50 52 CURVE SMOOTH",
"16 52 OFFCURVE",
"-19 61 OFFCURVE",
"-49 71 CURVE",
"-72 16 LINE",
"-35 2 OFFCURVE",
"11 -7 OFFCURVE",
"48 -7 CURVE SMOOTH",
"139 -7 OFFCURVE",
"235 27 OFFCURVE",
"257 141 CURVE SMOOTH",
"274 227 OFFCURVE",
"230 294 OFFCURVE",
"115 294 CURVE SMOOTH",
"98 294 OFFCURVE",
"83 294 OFFCURVE",
"58 291 CURVE",
"81 403 LINE",
"281 403 LINE",
"292 456 LINE",
"32 456 LINE",
"-11 237 LINE",
"5 232 LINE",
"34 236 OFFCURVE",
"60 239 OFFCURVE",
"89 239 CURVE SMOOTH"
);
}
);
width = 367;
}
);
unicode = 0035;
},
{
glyphname = six;
lastChange = "2014-11-24 05:17:59 +0000";
layers = (
{
background = {
paths = (
{
closed = 1;
nodes = (
"337 455 OFFCURVE",
"245 372 OFFCURVE",
"245 197 CURVE SMOOTH",
"245 87 OFFCURVE",
"284 -7 OFFCURVE",
"405 -7 CURVE SMOOTH",
"504 -7 OFFCURVE",
"560 66 OFFCURVE",
"560 142 CURVE SMOOTH",
"560 239 OFFCURVE",
"492 284 OFFCURVE",
"417 286 CURVE SMOOTH",
"372 286 OFFCURVE",
"324 271 OFFCURVE",
"300 260 CURVE",
"302 273 OFFCURVE",
"306 287 OFFCURVE",
"309 295 CURVE SMOOTH",
"341 372 OFFCURVE",
"391 406 OFFCURVE",
"506 406 CURVE",
"501 455 LINE"
);
},
{
closed = 1;
nodes = (
"323 41 OFFCURVE",
"293 114 OFFCURVE",
"297 201 CURVE",
"317 221 OFFCURVE",
"364 237 OFFCURVE",
"406 237 CURVE SMOOTH",
"477 237 OFFCURVE",
"508 198 OFFCURVE",
"508 141 CURVE SMOOTH",
"508 82 OFFCURVE",
"469 41 OFFCURVE",
"406 41 CURVE SMOOTH"
);
},
{
closed = 1;
nodes = (
"306 183 OFFCURVE",
"341 227 OFFCURVE",
"406 227 CURVE SMOOTH",
"477 227 OFFCURVE",
"498 188 OFFCURVE",
"498 141 CURVE SMOOTH",
"498 92 OFFCURVE",
"469 51 OFFCURVE",
"406 51 CURVE SMOOTH",
"332 51 OFFCURVE",
"287 110 OFFCURVE",
"294 218 CURVE SMOOTH",
"294 221 OFFCURVE",
"297 224 OFFCURVE",
"297 227 CURVE",
"297 316 OFFCURVE",
"352 401 OFFCURVE",
"506 396 CURVE",
"501 455 LINE",
"337 455 OFFCURVE",
"235 372 OFFCURVE",
"235 197 CURVE SMOOTH",
"235 87 OFFCURVE",
"284 -7 OFFCURVE",
"405 -7 CURVE SMOOTH",
"510 -7 OFFCURVE",
"560 66 OFFCURVE",
"560 142 CURVE SMOOTH",
"560 239 OFFCURVE",
"492 284 OFFCURVE",
"417 284 CURVE SMOOTH",
"352 284 OFFCURVE",
"304 255 OFFCURVE",
"280 223 CURVE",
"286 154 LINE"
);
}
);
};
layerId = "CFA4B904-E3F1-48B6-A7F6-47DC1FF2A3E1";
paths = (
{
closed = 1;
nodes = (
"47 205 OFFCURVE",
"80 228 OFFCURVE",
"147 228 CURVE SMOOTH",
"216 228 OFFCURVE",
"228 190 OFFCURVE",
"219 146 CURVE SMOOTH",
"209 94 OFFCURVE",
"170 51 OFFCURVE",
"105 51 CURVE SMOOTH",
"33 51 OFFCURVE",
"0 108 OFFCURVE",
"27 213 CURVE SMOOTH",
"29 219 OFFCURVE",
"32 222 OFFCURVE",
"32 222 CURVE",
"51 321 OFFCURVE",
"127 405 OFFCURVE",
"280 400 CURVE",
"281 455 LINE",
"117 455 OFFCURVE",
"1 374 OFFCURVE",
"-33 202 CURVE SMOOTH",
"-55 89 OFFCURVE",
"-22 -7 OFFCURVE",
"101 -7 CURVE SMOOTH",
"204 -7 OFFCURVE",
"263 64 OFFCURVE",
"277 137 CURVE SMOOTH",
"296 237 OFFCURVE",
"232 284 OFFCURVE",
"154 284 CURVE SMOOTH",
"98 284 OFFCURVE",
"52 268 OFFCURVE",
"18 243 CURVE",
"12 180 LINE"
);
}
);
width = 385;
}
);
unicode = 0036;
},
{
glyphname = seven;
lastChange = "2014-11-24 05:17:59 +0000";
layers = (
{
background = {
paths = (
{
closed = 1;
nodes = (
"220 457 LINE",
"220 401 LINE",
"446 401 LINE",
"255 0 LINE",
"322 0 LINE",
"521 417 LINE",
"521 457 LINE"
);
}
);
};
layerId = "CFA4B904-E3F1-48B6-A7F6-47DC1FF2A3E1";
paths = (
{
closed = 1;
nodes = (
"2 457 LINE",
"-9 401 LINE",
"218 401 LINE",
"-21 0 LINE",
"46 0 LINE",
"296 417 LINE",
"296 457 LINE"
);
}
);
width = 341;
}
);
unicode = 0037;
},
{
glyphname = eight;
lastChange = "2014-11-24 05:17:59 +0000";
layers = (
{
background = {
paths = (
{
closed = 1;
nodes = (
"198 409 OFFCURVE",
"232 396 OFFCURVE",
"225 358 CURVE SMOOTH",
"216 315 OFFCURVE",
"166 287 OFFCURVE",
"133 270 CURVE",
"90 294 OFFCURVE",
"71 315 OFFCURVE",
"78 349 CURVE SMOOTH",
"85 384 OFFCURVE",
"126 409 OFFCURVE",
"164 409 CURVE SMOOTH"
);
},
{
closed = 1;
nodes = (
"30 48 OFFCURVE",
"0 82 OFFCURVE",
"8 123 CURVE SMOOTH",
"19 179 OFFCURVE",
"77 210 OFFCURVE",
"129 224 CURVE",
"138 222 OFFCURVE",
"151 219 OFFCURVE",
"161 216 CURVE",
"202 194 OFFCURVE",
"214 171 OFFCURVE",
"206 129 CURVE SMOOTH",
"197 83 OFFCURVE",
"149 48 OFFCURVE",
"90 48 CURVE SMOOTH"
);
},
{
closed = 1;
nodes = (
"97 465 OFFCURVE",
"32 424 OFFCURVE",
"20 365 CURVE",
"7 299 OFFCURVE",
"44 271 OFFCURVE",
"61 253 CURVE",
"11 230 OFFCURVE",
"-39 186 OFFCURVE",
"-50 129 CURVE SMOOTH",
"-55 100 OFFCURVE",
"-53 76 OFFCURVE",
"-42 58 CURVE SMOOTH",
"-22 18 OFFCURVE",
"14 -11 OFFCURVE",
"87 -11 CURVE SMOOTH",
"181 -11 OFFCURVE",
"250 48 OFFCURVE",
"265 124 CURVE SMOOTH",
"271 152 OFFCURVE",
"267 177 OFFCURVE",
"255 196 CURVE SMOOTH",
"246 217 OFFCURVE",
"226 238 OFFCURVE",
"202 249 CURVE",
"233 270 OFFCURVE",
"276 304 OFFCURVE",
"286 353 CURVE",
"300 426 OFFCURVE",
"251 465 OFFCURVE",
"169 465 CURVE SMOOTH"
);
}
);
};
layerId = "CFA4B904-E3F1-48B6-A7F6-47DC1FF2A3E1";
paths = (
{
closed = 1;
nodes = (
"198 409 OFFCURVE",
"232 396 OFFCURVE",
"225 358 CURVE SMOOTH",
"216 315 OFFCURVE",
"166 287 OFFCURVE",
"133 270 CURVE",
"90 294 OFFCURVE",
"71 318 OFFCURVE",
"78 352 CURVE SMOOTH",
"85 387 OFFCURVE",
"126 409 OFFCURVE",
"164 409 CURVE SMOOTH"
);
},
{
closed = 1;
nodes = (
"30 48 OFFCURVE",
"0 82 OFFCURVE",
"8 123 CURVE SMOOTH",
"19 179 OFFCURVE",
"74 210 OFFCURVE",
"126 224 CURVE",
"179 212 OFFCURVE",
"218 185 OFFCURVE",
"206 129 CURVE SMOOTH",
"196 83 OFFCURVE",
"156 48 OFFCURVE",
"90 48 CURVE SMOOTH"
);
},
{
closed = 1;
nodes = (
"93 465 OFFCURVE",
"30 424 OFFCURVE",
"18 365 CURVE",
"5 299 OFFCURVE",
"44 271 OFFCURVE",
"61 253 CURVE",
"7 230 OFFCURVE",
"-41 186 OFFCURVE",
"-52 129 CURVE SMOOTH",
"-65 56 OFFCURVE",
"-20 -11 OFFCURVE",
"87 -11 CURVE SMOOTH",
"185 -11 OFFCURVE",
"250 43 OFFCURVE",
"267 119 CURVE SMOOTH",
"280 178 OFFCURVE",
"247 228 OFFCURVE",
"201 249 CURVE",
"232 270 OFFCURVE",
"275 304 OFFCURVE",
"285 353 CURVE",
"299 426 OFFCURVE",
"251 465 OFFCURVE",
"169 465 CURVE SMOOTH"
);
}
);
width = 380;
}
);
unicode = 0038;
},
{
glyphname = nine;
lastChange = "2014-11-24 05:17:59 +0000";
layers = (
{
background = {
paths = (
{
closed = 1;
nodes = (
"219 248 OFFCURVE",
"186 222 OFFCURVE",
"119 222 CURVE SMOOTH",
"49 222 OFFCURVE",
"35 258 OFFCURVE",
"44 303 CURVE SMOOTH",
"54 354 OFFCURVE",
"96 397 OFFCURVE",
"161 397 CURVE SMOOTH",
"233 397 OFFCURVE",
"260 340 OFFCURVE",
"233 235 CURVE",
"232 230 OFFCURVE",
"232 227 OFFCURVE",
"232 227 CURVE SMOOTH",
"208 127 OFFCURVE",
"138 43 OFFCURVE",
"-14 48 CURVE",
"-14 -7 LINE",
"157 -7 OFFCURVE",
"260 74 OFFCURVE",
"292 236 CURVE SMOOTH",
"316 359 OFFCURVE",
"288 455 OFFCURVE",
"165 455 CURVE SMOOTH",
"63 455 OFFCURVE",
"3 384 OFFCURVE",
"-11 312 CURVE SMOOTH",
"-31 211 OFFCURVE",
"34 164 OFFCURVE",
"112 164 CURVE SMOOTH",
"167 164 OFFCURVE",
"213 180 OFFCURVE",
"248 204 CURVE",
"254 273 LINE"
);
}
);
};
layerId = "CFA4B904-E3F1-48B6-A7F6-47DC1FF2A3E1";
paths = (
{
closed = 1;
nodes = (
"219 248 OFFCURVE",
"186 222 OFFCURVE",
"119 222 CURVE SMOOTH",
"61 222 OFFCURVE",
"42 246 OFFCURVE",
"42 290 CURVE SMOOTH",
"42 337 OFFCURVE",
"75 398 OFFCURVE",
"161 398 CURVE SMOOTH",
"233 398 OFFCURVE",
"260 340 OFFCURVE",
"233 235 CURVE",
"232 230 OFFCURVE",
"232 227 OFFCURVE",
"232 227 CURVE SMOOTH",
"208 127 OFFCURVE",
"138 43 OFFCURVE",
"-14 48 CURVE",
"-14 -7 LINE",
"157 -7 OFFCURVE",
"260 74 OFFCURVE",
"292 236 CURVE SMOOTH",
"316 359 OFFCURVE",
"281 455 OFFCURVE",
"165 455 CURVE SMOOTH",
"37 455 OFFCURVE",
"-18 364 OFFCURVE",
"-18 284 CURVE SMOOTH",
"-18 199 OFFCURVE",
"44 164 OFFCURVE",
"112 164 CURVE SMOOTH",
"167 164 OFFCURVE",
"213 180 OFFCURVE",
"248 204 CURVE",
"254 273 LINE"
);
}
);
width = 387;
}
);
unicode = 0039;
},
{
glyphname = fraction;
lastChange = "2014-11-24 05:17:59 +0000";
layers = (
{
background = {
paths = (
{
closed = 1;
nodes = (
"329 550 LINE",
"-93 0 LINE",
"-156 0 LINE",
"269 550 LINE"
);
}
);
};
layerId = "CFA4B904-E3F1-48B6-A7F6-47DC1FF2A3E1";
paths = (
{
closed = 1;
nodes = (
"334 550 LINE",
"-88 0 LINE",
"-156 0 LINE",
"269 550 LINE"
);
}
);
width = 280;
}
);
unicode = 2044;
},
{
glyphname = onehalf;
lastChange = "2014-11-24 05:17:59 +0000";
layers = (
{
background = {
paths = (
{
closed = 1;
nodes = (
"519 550 LINE",
"62 0 LINE",
"2 0 LINE",
"460 550 LINE"
);
},
{
closed = 1;
nodes = (
"115 239 LINE",
"62 239 LINE",
"112 498 LINE",
"52 483 LINE",
"41 523 LINE",
"131 550 LINE",
"175 550 LINE"
);
},
{
closed = 1;
nodes = (
"375 287 LINE",
"410 300 OFFCURVE",
"444 312 OFFCURVE",
"481 312 CURVE SMOOTH",
"506 312 OFFCURVE",
"533 308 OFFCURVE",
"551 293 CURVE SMOOTH",
"565 276 OFFCURVE",
"572 251 OFFCURVE",
"566 221 CURVE SMOOTH",
"561 195 OFFCURVE",
"549 175 OFFCURVE",
"525 151 CURVE SMOOTH",
"503 123 OFFCURVE",
"465 92 OFFCURVE",
"416 51 CURVE",
"532 49 LINE",
"522 0 LINE",
"318 0 LINE",
"325 32 LINE",
"424 107 LINE",
"475 150 OFFCURVE",
"505 181 OFFCURVE",
"511 209 CURVE SMOOTH",
"516 237 OFFCURVE",
"507 263 OFFCURVE",
"460 263 CURVE SMOOTH",
"437 263 OFFCURVE",
"407 253 OFFCURVE",
"378 242 CURVE"
);
}
);
};
layerId = "CFA4B904-E3F1-48B6-A7F6-47DC1FF2A3E1";
paths = (
{
closed = 1;
nodes = (
"527 550 LINE",
"61 0 LINE",
"-6 0 LINE",
"461 550 LINE"
);
},
{
closed = 1;
nodes = (
"115 239 LINE",
"65 239 LINE",
"112 498 LINE",
"52 483 LINE",
"41 523 LINE",
"131 550 LINE",
"175 550 LINE"
);
},
{
closed = 1;
nodes = (
"375 290 LINE",
"402 300 OFFCURVE",
"434 312 OFFCURVE",
"471 312 CURVE SMOOTH",
"527 312 OFFCURVE",
"567 291 OFFCURVE",
"567 229 CURVE SMOOTH",
"567 180 OFFCURVE",
"526 131 OFFCURVE",
"424 46 CURVE",
"542 46 LINE",
"532 0 LINE",
"335 0 LINE",
"335 32 LINE",
"424 107 LINE",
"475 150 OFFCURVE",
"505 181 OFFCURVE",
"511 209 CURVE SMOOTH",
"516 237 OFFCURVE",
"511 263 OFFCURVE",
"464 263 CURVE SMOOTH",
"441 263 OFFCURVE",
"407 253 OFFCURVE",
"378 242 CURVE"
);
}
);
width = 690;
}
);
leftMetricsKey = one.numr;
unicode = 00BD;
},
{
glyphname = onequarter;
lastChange = "2014-11-24 05:17:59 +0000";
layers = (
{
background = {
paths = (
{
closed = 1;
nodes = (
"519 550 LINE",
"62 0 LINE",
"2 0 LINE",
"460 550 LINE"
);
},
{
closed = 1;
nodes = (
"115 240 LINE",
"62 240 LINE",
"112 498 LINE",
"52 483 LINE",
"41 524 LINE",
"131 550 LINE",
"175 550 LINE"
);
},
{
closed = 1;
nodes = (
"480 113 LINE",
"534 113 LINE",
"525 66 LINE",
"471 66 LINE",
"458 0 LINE",
"407 0 LINE",
"420 66 LINE",
"270 66 LINE",
"279 107 LINE",
"457 309 LINE",
"518 309 LINE"
);
},
{
closed = 1;
nodes = (
"453 240 LINE",
"341 113 LINE",
"429 113 LINE"
);
}
);
};
layerId = "CFA4B904-E3F1-48B6-A7F6-47DC1FF2A3E1";
paths = (
{
closed = 1;
nodes = (
"480 113 LINE",
"528 113 LINE",
"519 66 LINE",
"469 66 LINE",
"456 0 LINE",
"407 0 LINE",
"420 66 LINE",
"275 66 LINE",
"279 107 LINE",
"457 309 LINE",
"518 309 LINE"
);
},
{
closed = 1;
nodes = (
"457 240 LINE",
"344 113 LINE",
"429 113 LINE"
);
},
{
closed = 1;
nodes = (
"527 550 LINE",
"61 0 LINE",
"-6 0 LINE",
"461 550 LINE"
);
},
{
closed = 1;
nodes = (
"115 239 LINE",
"65 239 LINE",
"112 498 LINE",
"52 483 LINE",
"41 523 LINE",
"131 550 LINE",
"175 550 LINE"
);
}
);
width = 674;
}
);
leftMetricsKey = one.numr;
unicode = 00BC;
},
{
glyphname = threequarters;
lastChange = "2014-11-24 05:17:59 +0000";
layers = (
{
background = {
paths = (
{
closed = 1;
nodes = (
"567 550 LINE",
"110 0 LINE",
"50 0 LINE",
"507 550 LINE"
);
},
{
closed = 1;
nodes = (
"528 113 LINE",
"576 113 LINE",
"567 66 LINE",
"519 66 LINE",
"506 0 LINE",
"455 0 LINE",
"468 66 LINE",
"316 66 LINE",
"325 107 LINE",
"504 309 LINE",
"566 309 LINE"
);
},
{
closed = 1;
nodes = (
"501 240 LINE",
"390 113 LINE",
"477 113 LINE"
);
},
{
closed = 1;
nodes = (
"211 556 OFFCURVE",
"246 529 OFFCURVE",
"235 474 CURVE SMOOTH",
"230 445 OFFCURVE",
"215 422 OFFCURVE",
"185 403 CURVE",
"216 384 OFFCURVE",
"226 367 OFFCURVE",
"218 323 CURVE SMOOTH",
"208 273 OFFCURVE",
"161 233 OFFCURVE",
"89 233 CURVE SMOOTH",
"51 233 OFFCURVE",
"15 242 OFFCURVE",
"-3 250 CURVE",
"23 295 LINE",
"53 285 OFFCURVE",
"77 279 OFFCURVE",
"96 279 CURVE SMOOTH",
"145 279 OFFCURVE",
"164 294 OFFCURVE",
"170 324 CURVE SMOOTH",
"178 363 OFFCURVE",
"150 376 OFFCURVE",
"94 376 CURVE SMOOTH",
"85 376 LINE",
"93 418 LINE",
"102 418 LINE SMOOTH",
"165 418 OFFCURVE",
"181 440 OFFCURVE",
"185 460 CURVE SMOOTH",
"192 498 OFFCURVE",
"171 510 OFFCURVE",
"139 510 CURVE SMOOTH",
"124 510 OFFCURVE",
"97 506 OFFCURVE",
"67 493 CURVE",
"60 534 LINE",
"96 547 OFFCURVE",
"128 556 OFFCURVE",
"158 556 CURVE SMOOTH"
);
}
);
};
layerId = "CFA4B904-E3F1-48B6-A7F6-47DC1FF2A3E1";
paths = (
{
closed = 1;
nodes = (
"202 556 OFFCURVE",
"234 528 OFFCURVE",
"234 486 CURVE SMOOTH",
"234 452 OFFCURVE",
"215 421 OFFCURVE",
"185 398 CURVE",
"210 383 OFFCURVE",
"221 363 OFFCURVE",
"221 335 CURVE SMOOTH",
"221 286 OFFCURVE",
"193 233 OFFCURVE",
"89 233 CURVE SMOOTH",
"51 233 OFFCURVE",
"18 246 OFFCURVE",
"0 254 CURVE",
"23 295 LINE",
"53 285 OFFCURVE",
"73 278 OFFCURVE",
"92 278 CURVE SMOOTH",
"154 278 OFFCURVE",
"171 305 OFFCURVE",
"171 336 CURVE SMOOTH",
"171 366 OFFCURVE",
"144 376 OFFCURVE",
"94 376 CURVE SMOOTH",
"85 376 LINE",
"93 418 LINE",
"102 418 LINE SMOOTH",
"173 418 OFFCURVE",
"186 447 OFFCURVE",
"186 473 CURVE SMOOTH",
"186 501 OFFCURVE",
"167 510 OFFCURVE",
"139 510 CURVE SMOOTH",
"121 510 OFFCURVE",
"97 505 OFFCURVE",
"67 497 CURVE",
"59 541 LINE",
"95 551 OFFCURVE",
"114 556 OFFCURVE",
"151 556 CURVE SMOOTH"
);
},
{
closed = 1;
nodes = (
"576 550 LINE",
"110 0 LINE",
"43 0 LINE",
"510 550 LINE"
);
},
{
closed = 1;
nodes = (
"529 113 LINE",
"577 113 LINE",
"568 66 LINE",
"518 66 LINE",
"505 0 LINE",
"456 0 LINE",
"469 66 LINE",
"324 66 LINE",
"328 107 LINE",
"506 309 LINE",
"567 309 LINE"
);
},
{
closed = 1;
nodes = (
"506 240 LINE",
"393 113 LINE",
"478 113 LINE"
);
}
);
width = 721;
}
);
leftMetricsKey = three.numr;
unicode = 00BE;
},
{
glyphname = onesuperior;
lastChange = "2014-11-24 05:17:59 +0000";
layers = (
{
background = {
paths = (
{
closed = 1;
nodes = (
"98 275 LINE",
"46 275 LINE",
"95 530 LINE",
"35 514 LINE",
"24 555 LINE",
"113 582 LINE",
"157 582 LINE"
);
}
);
};
layerId = "CFA4B904-E3F1-48B6-A7F6-47DC1FF2A3E1";
paths = (
{
closed = 1;
nodes = (
"97 276 LINE",
"47 276 LINE",
"94 535 LINE",
"34 520 LINE",
"23 560 LINE",
"113 587 LINE",
"157 587 LINE"
);
}
);
width = 179;
}
);
leftMetricsKey = one;
unicode = 00B9;
},
{
glyphname = twosuperior;
lastChange = "2014-11-24 05:17:59 +0000";
layers = (
{
background = {
paths = (
{
closed = 1;
nodes = (
"50 562 LINE",
"86 575 OFFCURVE",
"119 587 OFFCURVE",
"156 587 CURVE SMOOTH",
"181 587 OFFCURVE",
"208 583 OFFCURVE",
"226 568 CURVE SMOOTH",
"240 551 OFFCURVE",
"247 526 OFFCURVE",
"242 496 CURVE SMOOTH",
"236 470 OFFCURVE",
"225 450 OFFCURVE",
"201 426 CURVE SMOOTH",
"178 398 OFFCURVE",
"140 367 OFFCURVE",
"91 326 CURVE",
"207 324 LINE",
"198 275 LINE",
"-6 275 LINE",
"1 307 LINE",
"99 382 LINE",
"151 425 OFFCURVE",
"181 456 OFFCURVE",
"186 484 CURVE SMOOTH",
"192 512 OFFCURVE",
"183 538 OFFCURVE",
"136 538 CURVE SMOOTH",
"113 538 OFFCURVE",
"83 528 OFFCURVE",
"54 517 CURVE"
);
}
);
};
layerId = "CFA4B904-E3F1-48B6-A7F6-47DC1FF2A3E1";
paths = (
{
closed = 1;
nodes = (
"41 565 LINE",
"68 575 OFFCURVE",
"100 587 OFFCURVE",
"137 587 CURVE SMOOTH",
"193 587 OFFCURVE",
"233 566 OFFCURVE",
"233 504 CURVE SMOOTH",
"233 455 OFFCURVE",
"192 406 OFFCURVE",
"90 321 CURVE",
"208 321 LINE",
"198 275 LINE",
"1 275 LINE",
"1 307 LINE",
"90 382 LINE",
"141 425 OFFCURVE",
"171 456 OFFCURVE",
"177 484 CURVE SMOOTH",
"182 512 OFFCURVE",
"177 538 OFFCURVE",
"130 538 CURVE SMOOTH",
"107 538 OFFCURVE",
"73 528 OFFCURVE",
"44 517 CURVE"
);
}
);
width = 299;
}
);
leftMetricsKey = two;
unicode = 00B2;
},
{
glyphname = threesuperior;
lastChange = "2014-11-24 05:17:59 +0000";
layers = (
{
background = {
paths = (
{
closed = 1;
nodes = (
"200 591 OFFCURVE",
"235 564 OFFCURVE",
"224 509 CURVE SMOOTH",
"218 480 OFFCURVE",
"204 457 OFFCURVE",
"174 438 CURVE",
"205 419 OFFCURVE",
"215 402 OFFCURVE",
"207 358 CURVE SMOOTH",
"197 308 OFFCURVE",
"150 268 OFFCURVE",
"78 268 CURVE SMOOTH",
"40 268 OFFCURVE",
"4 277 OFFCURVE",
"-15 285 CURVE",
"12 330 LINE",
"42 320 OFFCURVE",
"66 314 OFFCURVE",
"85 314 CURVE SMOOTH",
"134 314 OFFCURVE",
"153 329 OFFCURVE",
"159 359 CURVE SMOOTH",
"166 398 OFFCURVE",
"139 411 OFFCURVE",
"83 411 CURVE SMOOTH",
"74 411 LINE",
"82 453 LINE",
"91 453 LINE SMOOTH",
"154 453 OFFCURVE",
"169 475 OFFCURVE",
"173 495 CURVE SMOOTH",
"181 533 OFFCURVE",
"160 545 OFFCURVE",
"128 545 CURVE SMOOTH",
"113 545 OFFCURVE",
"86 541 OFFCURVE",
"56 528 CURVE",
"49 569 LINE",
"85 582 OFFCURVE",
"117 591 OFFCURVE",
"147 591 CURVE SMOOTH"
);
}
);
};
layerId = "CFA4B904-E3F1-48B6-A7F6-47DC1FF2A3E1";
paths = (
{
closed = 1;
nodes = (
"190 590 OFFCURVE",
"222 562 OFFCURVE",
"222 520 CURVE SMOOTH",
"222 486 OFFCURVE",
"203 455 OFFCURVE",
"173 432 CURVE",
"198 417 OFFCURVE",
"209 397 OFFCURVE",
"209 369 CURVE SMOOTH",
"209 320 OFFCURVE",
"181 267 OFFCURVE",
"77 267 CURVE SMOOTH",
"39 267 OFFCURVE",
"6 280 OFFCURVE",
"-12 288 CURVE",
"11 329 LINE",
"41 319 OFFCURVE",
"61 312 OFFCURVE",
"80 312 CURVE SMOOTH",
"142 312 OFFCURVE",
"159 339 OFFCURVE",
"159 370 CURVE SMOOTH",
"159 400 OFFCURVE",
"132 410 OFFCURVE",
"82 410 CURVE SMOOTH",
"73 410 LINE",
"81 452 LINE",
"90 452 LINE SMOOTH",
"161 452 OFFCURVE",
"174 481 OFFCURVE",
"174 507 CURVE SMOOTH",
"174 535 OFFCURVE",
"155 544 OFFCURVE",
"127 544 CURVE SMOOTH",
"109 544 OFFCURVE",
"85 539 OFFCURVE",
"55 531 CURVE",
"47 575 LINE",
"83 585 OFFCURVE",
"102 590 OFFCURVE",
"139 590 CURVE SMOOTH"
);
}
);
width = 292;
}
);
leftMetricsKey = three;
unicode = 00B3;
},
{
glyphname = "aShort-deva";
lastChange = "2014-11-24 05:17:59 +0000";
layers = (
{
layerId = "CFA4B904-E3F1-48B6-A7F6-47DC1FF2A3E1";
paths = (
{
closed = 1;
nodes = (
"656 456 LINE",
"556 454 LINE",
"564 542 OFFCURVE",
"491 564 OFFCURVE",
"441 564 CURVE SMOOTH",
"431 564 OFFCURVE",
"420 564 OFFCURVE",
"408 564 CURVE SMOOTH",
"366 570 OFFCURVE",
"348 579 OFFCURVE",
"351 636 CURVE",
"301 623 LINE",
"289 522 OFFCURVE",
"380 516 OFFCURVE",
"418 516 CURVE SMOOTH",
"482 516 OFFCURVE",
"506 499 OFFCURVE",
"505 458 CURVE",
"410 456 LINE",
"401 408 LINE",
"495 408 LINE",
"462 251 LINE",
"438 240 OFFCURVE",
"414 230 OFFCURVE",
"374 230 CURVE SMOOTH",
"349 230 OFFCURVE",
"319 237 OFFCURVE",
"286 252 CURVE",
"336 275 OFFCURVE",
"361 309 OFFCURVE",
"369 348 CURVE SMOOTH",
"381 411 OFFCURVE",
"339 457 OFFCURVE",
"265 457 CURVE SMOOTH",
"205 457 OFFCURVE",
"161 425 OFFCURVE",
"138 409 CURVE",
"163 364 LINE",
"188 383 OFFCURVE",
"216 406 OFFCURVE",
"262 406 CURVE SMOOTH",
"300 406 OFFCURVE",
"325 388 OFFCURVE",
"318 352 CURVE SMOOTH",
"313 328 OFFCURVE",
"295 274 OFFCURVE",
"192 275 CURVE SMOOTH",
"171 275 LINE",
"161 226 LINE",
"182 226 LINE",
"291 230 OFFCURVE",
"301 189 OFFCURVE",
"294 152 CURVE SMOOTH",
"284 102 OFFCURVE",
"240 77 OFFCURVE",
"190 77 CURVE SMOOTH",
"119 77 OFFCURVE",
"88 125 OFFCURVE",
"59 205 CURVE",
"13 182 LINE",
"49 83 OFFCURVE",
"92 25 OFFCURVE",
"189 25 CURVE SMOOTH",
"263 25 OFFCURVE",
"330 72 OFFCURVE",
"342 132 CURVE SMOOTH",
"346 154 OFFCURVE",
"346 170 OFFCURVE",
"344 184 CURVE",
"358 183 OFFCURVE",
"372 182 OFFCURVE",
"386 182 CURVE SMOOTH",
"412 182 OFFCURVE",
"437 187 OFFCURVE",
"455 193 CURVE",
"415 0 LINE",
"469 0 LINE",
"549 408 LINE",
"647 408 LINE"
);
}
);
width = 581;
}
);
unicode = 0904;
},
{
glyphname = "aCandra-deva";
lastChange = "2014-11-24 05:17:59 +0000";
layers = (
{
layerId = "CFA4B904-E3F1-48B6-A7F6-47DC1FF2A3E1";
paths = (
{
closed = 1;
nodes = (
"616 509 OFFCURVE",
"668 548 OFFCURVE",
"695 606 CURVE",
"655 629 LINE",
"629 584 OFFCURVE",
"600 557 OFFCURVE",
"547 557 CURVE SMOOTH",
"499 557 OFFCURVE",
"482 580 OFFCURVE",
"474 625 CURVE",
"428 610 LINE",
"434 552 OFFCURVE",
"473 509 OFFCURVE",
"546 509 CURVE SMOOTH"
);
},
{
closed = 1;
nodes = (
"411 456 LINE",
"401 408 LINE",
"495 408 LINE",
"463 251 LINE",
"439 240 OFFCURVE",
"415 230 OFFCURVE",
"375 230 CURVE SMOOTH",
"350 230 OFFCURVE",
"320 237 OFFCURVE",
"287 252 CURVE",
"337 275 OFFCURVE",
"362 309 OFFCURVE",
"370 348 CURVE SMOOTH",
"382 411 OFFCURVE",
"340 457 OFFCURVE",
"266 457 CURVE SMOOTH",
"206 457 OFFCURVE",
"162 425 OFFCURVE",
"139 409 CURVE",
"164 364 LINE",
"189 383 OFFCURVE",
"217 406 OFFCURVE",
"263 406 CURVE SMOOTH",
"301 406 OFFCURVE",
"326 388 OFFCURVE",
"319 352 CURVE SMOOTH",
"314 328 OFFCURVE",
"296 274 OFFCURVE",
"193 275 CURVE SMOOTH",
"172 275 LINE",
"162 226 LINE",
"183 226 LINE",
"292 230 OFFCURVE",
"302 189 OFFCURVE",
"295 152 CURVE SMOOTH",
"285 102 OFFCURVE",
"241 77 OFFCURVE",
"191 77 CURVE SMOOTH",
"120 77 OFFCURVE",
"88 125 OFFCURVE",
"60 205 CURVE",
"14 182 LINE",
"50 83 OFFCURVE",
"93 25 OFFCURVE",
"190 25 CURVE SMOOTH",
"264 25 OFFCURVE",
"331 72 OFFCURVE",
"343 132 CURVE SMOOTH",
"347 154 OFFCURVE",
"347 170 OFFCURVE",
"345 184 CURVE",
"359 183 OFFCURVE",
"373 182 OFFCURVE",
"387 182 CURVE SMOOTH",
"413 182 OFFCURVE",
"437 187 OFFCURVE",
"456 193 CURVE",
"416 0 LINE",
"470 0 LINE",
"549 408 LINE",
"647 408 LINE",
"657 456 LINE"
);
}
);
width = 591;
}
);
unicode = 0972;
},
{
glyphname = "a-deva";
lastChange = "2014-11-24 05:17:59 +0000";
layers = (
{
anchors = (
{
name = top;
position = "{529, 447}";
}
);
layerId = "CFA4B904-E3F1-48B6-A7F6-47DC1FF2A3E1";
paths = (
{
closed = 1;
nodes = (
"656 456 LINE",
"410 456 LINE",
"401 408 LINE",
"495 408 LINE",
"462 251 LINE",
"438 240 OFFCURVE",
"414 230 OFFCURVE",
"374 230 CURVE SMOOTH",
"349 230 OFFCURVE",
"319 237 OFFCURVE",
"286 252 CURVE",
"336 275 OFFCURVE",
"361 309 OFFCURVE",
"369 348 CURVE SMOOTH",
"381 411 OFFCURVE",
"339 457 OFFCURVE",
"265 457 CURVE SMOOTH",
"205 457 OFFCURVE",
"161 425 OFFCURVE",
"138 409 CURVE",
"163 364 LINE",
"188 383 OFFCURVE",
"216 406 OFFCURVE",
"262 406 CURVE SMOOTH",
"300 406 OFFCURVE",
"325 388 OFFCURVE",
"318 352 CURVE SMOOTH",
"313 328 OFFCURVE",
"295 274 OFFCURVE",
"192 275 CURVE SMOOTH",
"171 275 LINE",
"161 226 LINE",
"182 226 LINE",
"291 230 OFFCURVE",
"301 189 OFFCURVE",
"294 152 CURVE SMOOTH",
"284 102 OFFCURVE",
"240 77 OFFCURVE",
"190 77 CURVE SMOOTH",
"119 77 OFFCURVE",
"88 125 OFFCURVE",
"59 205 CURVE",
"13 182 LINE",
"49 83 OFFCURVE",
"92 25 OFFCURVE",
"189 25 CURVE SMOOTH",
"263 25 OFFCURVE",
"330 72 OFFCURVE",
"342 132 CURVE SMOOTH",
"346 154 OFFCURVE",
"346 170 OFFCURVE",
"344 184 CURVE",
"358 183 OFFCURVE",
"372 182 OFFCURVE",
"386 182 CURVE SMOOTH",
"412 182 OFFCURVE",
"437 187 OFFCURVE",
"455 193 CURVE",
"415 0 LINE",
"469 0 LINE",
"549 408 LINE",
"647 408 LINE"
);
}
);
width = 581;
}
);
unicode = 0905;
},
{
glyphname = "aa-deva";
lastChange = "2014-11-24 05:17:59 +0000";
layers = (
{
anchors = (
{
name = top;
position = "{741, 447}";
}
);
layerId = "CFA4B904-E3F1-48B6-A7F6-47DC1FF2A3E1";
paths = (
{
closed = 1;
nodes = (
"866 456 LINE",
"411 456 LINE",
"401 408 LINE",
"495 408 LINE",
"463 251 LINE",
"439 239 OFFCURVE",
"415 230 OFFCURVE",
"375 230 CURVE SMOOTH",
"350 230 OFFCURVE",
"320 237 OFFCURVE",
"287 252 CURVE",
"337 275 OFFCURVE",
"362 309 OFFCURVE",
"370 348 CURVE SMOOTH",
"382 411 OFFCURVE",
"340 457 OFFCURVE",
"266 457 CURVE SMOOTH",
"206 457 OFFCURVE",
"162 425 OFFCURVE",
"139 409 CURVE",
"164 364 LINE",
"189 383 OFFCURVE",
"217 406 OFFCURVE",
"263 406 CURVE SMOOTH",
"301 406 OFFCURVE",
"326 388 OFFCURVE",
"319 352 CURVE SMOOTH",
"314 328 OFFCURVE",
"296 274 OFFCURVE",
"193 275 CURVE SMOOTH",
"172 275 LINE",
"162 226 LINE",
"183 226 LINE",
"292 230 OFFCURVE",
"302 189 OFFCURVE",
"295 152 CURVE SMOOTH",
"285 102 OFFCURVE",
"241 77 OFFCURVE",
"191 77 CURVE SMOOTH",
"120 77 OFFCURVE",
"88 125 OFFCURVE",
"60 205 CURVE",
"14 182 LINE",
"50 83 OFFCURVE",
"93 25 OFFCURVE",
"190 25 CURVE SMOOTH",
"264 25 OFFCURVE",
"331 72 OFFCURVE",
"343 132 CURVE SMOOTH",
"347 154 OFFCURVE",
"347 170 OFFCURVE",
"344 184 CURVE",
"359 183 OFFCURVE",
"372 182 OFFCURVE",
"387 182 CURVE SMOOTH",
"413 182 OFFCURVE",
"437 187 OFFCURVE",
"455 192 CURVE",
"416 0 LINE",
"470 0 LINE",
"549 408 LINE",
"704 408 LINE",
"625 0 LINE",
"680 0 LINE",
"759 408 LINE",
"856 408 LINE"
);
}
);
width = 791;
}
);
unicode = 0906;
},
{
glyphname = "i-deva";
lastChange = "2014-11-24 05:17:59 +0000";
layers = (
{
anchors = (
{
name = top;
position = "{321, 447}";
}
);
background = {
paths = (
{
closed = 1;
nodes = (
"318 189 OFFCURVE",
"367 163 OFFCURVE",
"416 163 CURVE SMOOTH",
"443 163 OFFCURVE",
"469 169 OFFCURVE",
"489 169 CURVE SMOOTH",
"531 169 OFFCURVE",
"548 146 OFFCURVE",
"548 116 CURVE SMOOTH",
"548 77 OFFCURVE",
"504 59 OFFCURVE",
"469 59 CURVE SMOOTH",
"449 59 OFFCURVE",
"434 59 OFFCURVE",
"417 65 CURVE",
"364 134 LINE",
"337 136 OFFCURVE",
"312 121 OFFCURVE",
"312 96 CURVE SMOOTH",
"312 36 OFFCURVE",
"406 9 OFFCURVE",
"463 9 CURVE SMOOTH",
"543 9 OFFCURVE",
"602 50 OFFCURVE",
"602 115 CURVE SMOOTH",
"602 185 OFFCURVE",
"558 222 OFFCURVE",
"491 222 CURVE SMOOTH",
"470 222 OFFCURVE",
"447 216 OFFCURVE",
"426 216 CURVE SMOOTH",
"393 216 OFFCURVE",
"371 223 OFFCURVE",
"371 256 CURVE SMOOTH",
"371 284 OFFCURVE",
"395 294 OFFCURVE",
"445 294 CURVE SMOOTH",
"507 294 OFFCURVE",
"524 289 OFFCURVE",
"559 285 CURVE",
"569 292 LINE",
"569 456 LINE",
"513 456 LINE",
"513 341 LINE",
"487 344 OFFCURVE",
"479 345 OFFCURVE",
"446 345 CURVE SMOOTH",
"373 345 OFFCURVE",
"318 323 OFFCURVE",
"318 260 CURVE SMOOTH"
);
}
);
};
layerId = "CFA4B904-E3F1-48B6-A7F6-47DC1FF2A3E1";
paths = (
{
closed = 1;
nodes = (
"259 294 OFFCURVE",
"275 289 OFFCURVE",
"309 285 CURVE",
"320 292 LINE",
"341 408 LINE",
"446 408 LINE",
"456 456 LINE",
"28 456 LINE",
"18 408 LINE",
"285 408 LINE",
"270 341 LINE",
"245 344 OFFCURVE",
"239 345 OFFCURVE",
"204 345 CURVE SMOOTH",
"130 345 OFFCURVE",
"74 321 OFFCURVE",
"63 260 CURVE SMOOTH",
"45 169 OFFCURVE",
"135 164 OFFCURVE",
"167 164 CURVE SMOOTH",
"180 164 OFFCURVE",
"194 165 OFFCURVE",
"209 165 CURVE SMOOTH",
"256 165 OFFCURVE",
"268 146 OFFCURVE",
"264 121 CURVE SMOOTH",
"255 79 OFFCURVE",
"207 59 OFFCURVE",
"160 59 CURVE SMOOTH",
"142 59 OFFCURVE",
"129 59 OFFCURVE",
"116 63 CURVE",
"78 131 LINE",
"38 131 OFFCURVE",
"25 111 OFFCURVE",
"22 95 CURVE SMOOTH",
"14 58 OFFCURVE",
"42 35 OFFCURVE",
"77 23 CURVE",
"139 -99 LINE",
"193 -69 LINE",
"147 9 LINE",
"160 9 LINE SMOOTH",
"240 9 OFFCURVE",
"303 48 OFFCURVE",
"315 110 CURVE SMOOTH",
"329 182 OFFCURVE",
"282 215 OFFCURVE",
"218 215 CURVE SMOOTH",
"206 215 OFFCURVE",
"193 214 OFFCURVE",
"178 214 CURVE SMOOTH",
"128 214 OFFCURVE",
"107 222 OFFCURVE",
"113 251 CURVE SMOOTH",
"119 280 OFFCURVE",
"147 294 OFFCURVE",
"199 294 CURVE SMOOTH"
);
}
);
width = 381;
}
);
unicode = 0907;
},
{
glyphname = "ii-deva";
lastChange = "2014-11-24 05:17:59 +0000";
layers = (
{
anchors = (
{
name = top;
position = "{321, 447}";
}
);
background = {
paths = (
{
closed = 1;
nodes = (
"359 461 OFFCURVE",
"293 496 OFFCURVE",
"293 550 CURVE SMOOTH",
"293 584 OFFCURVE",
"323 602 OFFCURVE",
"358 602 CURVE SMOOTH",
"379 602 OFFCURVE",
"412 592 OFFCURVE",
"429 580 CURVE",
"429 580 OFFCURVE",
"455 620 OFFCURVE",
"455 620 CURVE",
"431 642 OFFCURVE",
"387 654 OFFCURVE",
"355 654 CURVE SMOOTH",
"294 654 OFFCURVE",
"239 614 OFFCURVE",
"239 550 CURVE SMOOTH",
"239 505 OFFCURVE",
"279 461 OFFCURVE",
"328 437 CURVE",
"396 437 LINE"
);
}
);
};
layerId = "CFA4B904-E3F1-48B6-A7F6-47DC1FF2A3E1";
paths = (
{
closed = 1;
nodes = (
"259 294 OFFCURVE",
"275 289 OFFCURVE",
"309 285 CURVE",
"320 292 LINE",
"341 408 LINE",
"446 408 LINE",
"456 456 LINE",
"354 455 LINE",
"323 477 OFFCURVE",
"291 506 OFFCURVE",
"299 545 CURVE SMOOTH",
"308 592 OFFCURVE",
"346 602 OFFCURVE",
"376 602 CURVE SMOOTH",
"400 602 OFFCURVE",
"429 589 OFFCURVE",
"444 579 CURVE",
"477 621 LINE",
"455 636 OFFCURVE",
"420 654 OFFCURVE",
"379 654 CURVE SMOOTH",
"320 654 OFFCURVE",
"261 624 OFFCURVE",
"249 562 CURVE SMOOTH",
"241 519 OFFCURVE",
"257 483 OFFCURVE",
"285 458 CURVE",
"28 456 LINE",
"18 408 LINE",
"285 408 LINE",
"270 341 LINE",
"245 344 OFFCURVE",
"239 345 OFFCURVE",
"204 345 CURVE SMOOTH",
"130 345 OFFCURVE",
"74 321 OFFCURVE",
"63 260 CURVE SMOOTH",
"45 169 OFFCURVE",
"135 164 OFFCURVE",
"167 164 CURVE SMOOTH",
"180 164 OFFCURVE",
"194 165 OFFCURVE",
"209 165 CURVE SMOOTH",
"256 165 OFFCURVE",
"268 146 OFFCURVE",
"264 121 CURVE SMOOTH",
"255 79 OFFCURVE",
"207 59 OFFCURVE",
"160 59 CURVE SMOOTH",
"142 59 OFFCURVE",
"129 59 OFFCURVE",
"116 63 CURVE",
"78 131 LINE",
"38 131 OFFCURVE",
"25 111 OFFCURVE",
"22 95 CURVE SMOOTH",
"14 58 OFFCURVE",
"42 35 OFFCURVE",
"77 23 CURVE",
"139 -99 LINE",
"193 -69 LINE",
"147 9 LINE",
"160 9 LINE SMOOTH",
"240 9 OFFCURVE",
"303 48 OFFCURVE",
"315 110 CURVE SMOOTH",
"329 182 OFFCURVE",
"282 215 OFFCURVE",
"218 215 CURVE SMOOTH",
"206 215 OFFCURVE",
"193 214 OFFCURVE",
"178 214 CURVE SMOOTH",
"128 214 OFFCURVE",
"107 222 OFFCURVE",
"113 251 CURVE SMOOTH",
"119 280 OFFCURVE",
"147 294 OFFCURVE",
"199 294 CURVE SMOOTH"
);
}
);
width = 381;
}
);
unicode = 0908;
},
{
glyphname = "u-deva";
lastChange = "2014-11-24 05:17:59 +0000";
layers = (
{
anchors = (
{
name = top;
position = "{304, 447}";
}
);
background = {
paths = (
{
closed = 1;
nodes = (
"246 456 LINE",
"246 408 LINE",
"723 408 LINE",
"723 456 LINE"
);
},
{
closed = 1;
nodes = (
"628 204 OFFCURVE",
"597 236 OFFCURVE",
"550 252 CURVE",
"595 275 OFFCURVE",
"613 305 OFFCURVE",
"613 344 CURVE SMOOTH",
"613 373 OFFCURVE",
"601 403 OFFCURVE",
"568 424 CURVE SMOOTH",
"537 444 OFFCURVE",
"487 456 OFFCURVE",
"452 456 CURVE",
"500 408 LINE",
"546 400 OFFCURVE",
"563 378 OFFCURVE",
"563 344 CURVE SMOOTH",
"563 323 OFFCURVE",
"556 274 OFFCURVE",
"452 275 CURVE SMOOTH",
"439 275 LINE",
"439 226 LINE",
"448 226 LINE",
"556 230 OFFCURVE",
"576 187 OFFCURVE",
"576 147 CURVE SMOOTH",
"576 100 OFFCURVE",
"539 77 OFFCURVE",
"491 77 CURVE SMOOTH",
"418 77 OFFCURVE",
"376 127 OFFCURVE",
"332 207 CURVE",
"288 180 LINE",
"344 81 OFFCURVE",
"397 25 OFFCURVE",
"492 25 CURVE SMOOTH",
"568 25 OFFCURVE",
"628 74 OFFCURVE",
"628 141 CURVE SMOOTH"
);
}
);
};
layerId = "CFA4B904-E3F1-48B6-A7F6-47DC1FF2A3E1";
paths = (
{
closed = 1;
nodes = (
"505 456 LINE",
"28 456 LINE",
"18 408 LINE",
"274 408 LINE",
"319 400 OFFCURVE",
"331 380 OFFCURVE",
"324 344 CURVE SMOOTH",
"318 315 OFFCURVE",
"298 264 OFFCURVE",
"195 265 CURVE SMOOTH",
"184 265 LINE",
"174 216 LINE",
"185 216 LINE",
"294 220 OFFCURVE",
"304 179 OFFCURVE",
"296 137 CURVE SMOOTH",
"285 82 OFFCURVE",
"241 57 OFFCURVE",
"191 57 CURVE SMOOTH",
"120 57 OFFCURVE",
"88 105 OFFCURVE",
"60 185 CURVE",
"14 162 LINE",
"50 63 OFFCURVE",
"93 5 OFFCURVE",
"190 5 CURVE SMOOTH",
"264 5 OFFCURVE",
"331 52 OFFCURVE",
"345 121 CURVE SMOOTH",
"358 192 OFFCURVE",
"332 225 OFFCURVE",
"290 240 CURVE",
"341 264 OFFCURVE",
"363 294 OFFCURVE",
"371 334 CURVE SMOOTH",
"377 363 OFFCURVE",
"372 387 OFFCURVE",
"358 406 CURVE",
"495 408 LINE"
);
}
);
width = 430;
}
);
unicode = 0909;
},
{
glyphname = "uu-deva";
lastChange = "2014-11-24 05:17:59 +0000";
layers = (
{
anchors = (
{
name = top;
position = "{304, 447}";
}
);
background = {
paths = (
{
closed = 1;
nodes = (
"246 456 LINE",
"246 408 LINE",
"876 408 LINE",
"876 456 LINE"
);
},
{
closed = 1;
nodes = (
"628 204 OFFCURVE",
"597 236 OFFCURVE",
"550 252 CURVE",
"595 275 OFFCURVE",
"613 305 OFFCURVE",
"613 344 CURVE SMOOTH",
"613 373 OFFCURVE",
"601 403 OFFCURVE",
"568 424 CURVE SMOOTH",
"537 444 OFFCURVE",
"487 456 OFFCURVE",
"452 456 CURVE",
"500 408 LINE",
"546 400 OFFCURVE",
"563 378 OFFCURVE",
"563 344 CURVE SMOOTH",
"563 323 OFFCURVE",
"556 274 OFFCURVE",
"452 275 CURVE SMOOTH",
"439 275 LINE",
"439 226 LINE",
"448 226 LINE",
"556 230 OFFCURVE",
"576 187 OFFCURVE",
"576 147 CURVE SMOOTH",
"576 100 OFFCURVE",
"539 77 OFFCURVE",
"491 77 CURVE SMOOTH",
"418 77 OFFCURVE",
"376 127 OFFCURVE",
"332 207 CURVE",
"288 180 LINE",
"344 81 OFFCURVE",
"397 25 OFFCURVE",
"492 25 CURVE SMOOTH",
"568 25 OFFCURVE",
"628 74 OFFCURVE",
"628 141 CURVE SMOOTH"
);
},
{
closed = 1;
nodes = (
"598 141 OFFCURVE",
"604 155 OFFCURVE",
"615 170 CURVE SMOOTH",
"633 195 OFFCURVE",
"664 227 OFFCURVE",
"702 227 CURVE SMOOTH",
"743 227 OFFCURVE",
"754 198 OFFCURVE",
"754 175 CURVE SMOOTH",
"754 130 OFFCURVE",
"725 112 OFFCURVE",
"699 91 CURVE",
"699 91 OFFCURVE",
"733 54 OFFCURVE",
"733 54 CURVE",
"764 76 OFFCURVE",
"804 113 OFFCURVE",
"804 175 CURVE SMOOTH",
"804 238 OFFCURVE",
"757 275 OFFCURVE",
"700 275 CURVE SMOOTH",
"636 275 OFFCURVE",
"582 208 OFFCURVE",
"582 208 CURVE",
"598 141 LINE"
);
}
);
};
layerId = "CFA4B904-E3F1-48B6-A7F6-47DC1FF2A3E1";
paths = (
{
closed = 1;
nodes = (
"658 456 LINE",
"28 456 LINE",
"18 408 LINE",
"274 408 LINE",
"319 400 OFFCURVE",
"331 380 OFFCURVE",
"324 344 CURVE SMOOTH",
"318 315 OFFCURVE",
"298 264 OFFCURVE",
"195 265 CURVE SMOOTH",
"184 265 LINE",
"174 216 LINE",
"185 216 LINE",
"294 220 OFFCURVE",
"304 179 OFFCURVE",
"296 137 CURVE SMOOTH",
"285 82 OFFCURVE",
"241 57 OFFCURVE",
"191 57 CURVE SMOOTH",
"120 57 OFFCURVE",
"88 105 OFFCURVE",
"60 185 CURVE",
"14 162 LINE",
"50 63 OFFCURVE",
"93 5 OFFCURVE",
"190 5 CURVE SMOOTH",
"264 5 OFFCURVE",
"331 52 OFFCURVE",
"345 121 CURVE SMOOTH",
"349 143 OFFCURVE",
"349 160 OFFCURVE",
"348 173 CURVE",
"372 199 OFFCURVE",
"407 227 OFFCURVE",
"443 227 CURVE SMOOTH",
"482 227 OFFCURVE",
"486 200 OFFCURVE",
"482 180 CURVE SMOOTH",
"473 132 OFFCURVE",
"438 114 OFFCURVE",
"408 93 CURVE",
"439 52 LINE",
"473 74 OFFCURVE",
"521 111 OFFCURVE",
"532 170 CURVE SMOOTH",
"545 236 OFFCURVE",
"504 277 OFFCURVE",
"443 277 CURVE SMOOTH",
"396 277 OFFCURVE",
"347 241 OFFCURVE",
"324 220 CURVE",
"315 228 OFFCURVE",
"303 236 OFFCURVE",
"290 240 CURVE",
"341 264 OFFCURVE",
"363 294 OFFCURVE",
"371 334 CURVE SMOOTH",
"377 363 OFFCURVE",
"372 387 OFFCURVE",
"358 406 CURVE",
"648 408 LINE"
);
}
);
width = 583;
}
);
unicode = 090A;
},
{
glyphname = "rVocalic-deva";
lastChange = "2014-11-24 05:17:59 +0000";
layers = (
{
anchors = (
{
name = top;
position = "{388, 447}";
}
);
layerId = "CFA4B904-E3F1-48B6-A7F6-47DC1FF2A3E1";
paths = (
{
closed = 1;
nodes = (
"696 408 LINE",
"706 456 LINE",
"28 456 LINE",
"18 408 LINE",
"352 408 LINE",
"324 266 LINE",
"289 310 OFFCURVE",
"254 337 OFFCURVE",
"204 337 CURVE SMOOTH",
"135 337 OFFCURVE",
"86 298 OFFCURVE",
"29 248 CURVE",
"64 207 LINE",
"104 242 OFFCURVE",
"151 285 OFFCURVE",
"199 283 CURVE",
"235 283 OFFCURVE",
"264 258 OFFCURVE",
"287 223 CURVE",
"54 52 LINE",
"55 52 OFFCURVE",
"82 14 OFFCURVE",
"82 14 CURVE",
"308 176 LINE",
"273 0 LINE",
"329 0 LINE",
"367 187 LINE",
"384 178 OFFCURVE",
"400 172 OFFCURVE",
"431 172 CURVE SMOOTH",
"462 172 OFFCURVE",
"491 182 OFFCURVE",
"520 203 CURVE",
"537 148 LINE",
"477 141 OFFCURVE",
"442 107 OFFCURVE",
"434 68 CURVE SMOOTH",
"425 20 OFFCURVE",
"450 -21 OFFCURVE",
"516 -21 CURVE SMOOTH",
"539 -21 OFFCURVE",
"561 -17 OFFCURVE",
"582 -7 CURVE",
"567 35 LINE",
"557 30 OFFCURVE",
"538 23 OFFCURVE",
"517 23 CURVE SMOOTH",
"492 23 OFFCURVE",
"475 33 OFFCURVE",
"481 59 CURVE SMOOTH",
"486 86 OFFCURVE",
"513 104 OFFCURVE",
"552 104 CURVE SMOOTH",
"570 104 LINE",
"592 148 LINE",
"591 149 LINE",
"555 246 LINE",
"563 256 OFFCURVE",
"566 266 OFFCURVE",
"568 275 CURVE SMOOTH",
"576 316 OFFCURVE",
"553 342 OFFCURVE",
"527 342 CURVE SMOOTH",
"504 342 OFFCURVE",
"483 331 OFFCURVE",
"468 316 CURVE",
"500 250 LINE",
"483 234 OFFCURVE",
"460 221 OFFCURVE",
"431 221 CURVE SMOOTH",
"406 221 OFFCURVE",
"389 229 OFFCURVE",
"373 238 CURVE",
"408 408 LINE"
);
}
);
width = 631;
}
);
unicode = 090B;
},
{
glyphname = "rrVocalic-deva";
lastChange = "2014-11-24 05:17:59 +0000";
layers = (
{
anchors = (
{
name = top;
position = "{388, 447}";
}
);
background = {
paths = (
{
closed = 1;
nodes = (
"860 111 OFFCURVE",
"883 107 OFFCURVE",
"900 101 CURVE",
"894 153 LINE",
"881 156 OFFCURVE",
"862 161 OFFCURVE",
"830 161 CURVE SMOOTH",
"770 161 OFFCURVE",
"723 126 OFFCURVE",
"723 75 CURVE SMOOTH",
"723 34 OFFCURVE",
"746 10 OFFCURVE",
"777 -6 CURVE",
"746 -20 OFFCURVE",
"723 -43 OFFCURVE",
"723 -84 CURVE SMOOTH",
"723 -136 OFFCURVE",
"762 -174 OFFCURVE",
"825 -174 CURVE SMOOTH",
"871 -174 OFFCURVE",
"895 -164 OFFCURVE",
"922 -149 CURVE",
"898 -107 LINE",
"878 -119 OFFCURVE",
"858 -126 OFFCURVE",
"832 -126 CURVE SMOOTH",
"802 -126 OFFCURVE",
"775 -117 OFFCURVE",
"775 -79 CURVE SMOOTH",
"775 -42 OFFCURVE",
"805 -29 OFFCURVE",
"842 -29 CURVE SMOOTH",
"879 -29 LINE",
"879 21 LINE",
"842 21 LINE SMOOTH",
"808 21 OFFCURVE",
"776 35 OFFCURVE",
"776 68 CURVE SMOOTH",
"776 99 OFFCURVE",
"796 111 OFFCURVE",
"839 111 CURVE SMOOTH"
);
}
);
};
layerId = "CFA4B904-E3F1-48B6-A7F6-47DC1FF2A3E1";
paths = (
{
closed = 1;
nodes = (
"696 408 LINE",
"706 456 LINE",
"28 456 LINE",
"18 408 LINE",
"352 408 LINE",
"324 266 LINE",
"289 310 OFFCURVE",
"254 337 OFFCURVE",
"204 337 CURVE SMOOTH",
"135 337 OFFCURVE",
"86 298 OFFCURVE",
"29 248 CURVE",
"64 207 LINE",
"104 242 OFFCURVE",
"151 285 OFFCURVE",
"199 283 CURVE",
"235 283 OFFCURVE",
"264 258 OFFCURVE",
"287 223 CURVE",
"54 52 LINE",
"55 52 OFFCURVE",
"82 14 OFFCURVE",
"82 14 CURVE",
"308 176 LINE",
"273 0 LINE",
"329 0 LINE",
"367 187 LINE",
"384 178 OFFCURVE",
"400 172 OFFCURVE",
"431 172 CURVE SMOOTH",
"462 172 OFFCURVE",
"491 182 OFFCURVE",
"520 203 CURVE",
"537 148 LINE",
"477 141 OFFCURVE",
"442 107 OFFCURVE",
"434 68 CURVE SMOOTH",
"428 35 OFFCURVE",
"439 9 OFFCURVE",
"462 -5 CURVE",
"430 -21 OFFCURVE",
"412 -45 OFFCURVE",
"406 -75 CURVE SMOOTH",
"397 -125 OFFCURVE",
"425 -166 OFFCURVE",
"490 -166 CURVE SMOOTH",
"532 -166 OFFCURVE",
"560 -157 OFFCURVE",
"589 -142 CURVE",
"569 -98 LINE",
"548 -110 OFFCURVE",
"526 -118 OFFCURVE",
"498 -118 CURVE SMOOTH",
"472 -118 OFFCURVE",
"452 -109 OFFCURVE",
"458 -79 CURVE SMOOTH",
"465 -44 OFFCURVE",
"496 -29 OFFCURVE",
"531 -29 CURVE SMOOTH",
"566 -29 LINE",
"576 21 LINE",
"528 21 LINE SMOOTH",
"497 21 OFFCURVE",
"475 33 OFFCURVE",
"481 59 CURVE SMOOTH",
"486 86 OFFCURVE",
"513 104 OFFCURVE",
"552 104 CURVE SMOOTH",
"570 104 LINE",
"592 148 LINE",
"591 149 LINE",
"555 246 LINE",
"563 256 OFFCURVE",
"566 266 OFFCURVE",
"568 275 CURVE SMOOTH",
"576 316 OFFCURVE",
"553 342 OFFCURVE",
"527 342 CURVE SMOOTH",
"504 342 OFFCURVE",
"483 331 OFFCURVE",
"468 316 CURVE",
"500 250 LINE",
"483 234 OFFCURVE",
"460 221 OFFCURVE",
"431 221 CURVE SMOOTH",
"406 221 OFFCURVE",
"389 229 OFFCURVE",
"373 238 CURVE",
"408 408 LINE"
);
}
);
width = 631;
}
);
unicode = 0960;
},
{
glyphname = "lVocalic-deva";
lastChange = "2014-11-24 05:17:59 +0000";
layers = (
{
anchors = (
{
name = top;
position = "{436, 447}";
}
);
background = {
paths = (
{
closed = 1;
nodes = (
"628 270 LINE",
"684 270 LINE",
"684 456 LINE",
"628 456 LINE"
);
},
{
closed = 1;
nodes = (
"246 456 LINE",
"246 408 LINE",
"824 408 LINE",
"824 456 LINE"
);
},
{
closed = 1;
nodes = (
"545 268 OFFCURVE",
"504 310 OFFCURVE",
"447 310 CURVE SMOOTH",
"364 310 OFFCURVE",
"314 253 OFFCURVE",
"314 172 CURVE SMOOTH",
"314 74 OFFCURVE",
"407 -12 OFFCURVE",
"407 -12 CURVE",
"460 11 LINE",
"437 36 OFFCURVE",
"371 102 OFFCURVE",
"371 172 CURVE SMOOTH",
"371 221 OFFCURVE",
"399 256 OFFCURVE",
"446 256 CURVE SMOOTH",
"500 256 OFFCURVE",
"525 182 OFFCURVE",
"525 182 CURVE",
"562 227 LINE"
);
},
{
closed = 1;
nodes = (
"691 -100 OFFCURVE",
"715 -91 OFFCURVE",
"742 -75 CURVE",
"718 -33 LINE",
"698 -45 OFFCURVE",
"678 -52 OFFCURVE",
"652 -52 CURVE SMOOTH",
"622 -52 OFFCURVE",
"595 -35 OFFCURVE",
"595 3 CURVE SMOOTH",
"595 37 OFFCURVE",
"615 54 OFFCURVE",
"651 57 CURVE",
"635 36 OFFCURVE",
"619 21 OFFCURVE",
"610 11 CURVE",
"664 -12 LINE",
"664 -12 OFFCURVE",
"756 74 OFFCURVE",
"756 172 CURVE SMOOTH",
"756 253 OFFCURVE",
"711 308 OFFCURVE",
"635 308 CURVE SMOOTH",
"569 308 OFFCURVE",
"505 266 OFFCURVE",
"505 164 CURVE SMOOTH",
"505 154 OFFCURVE",
"507 128 OFFCURVE",
"509 118 CURVE",
"562 110 LINE",
"561 120 OFFCURVE",
"558 140 OFFCURVE",
"558 162 CURVE SMOOTH",
"558 217 OFFCURVE",
"584 257 OFFCURVE",
"632 256 CURVE SMOOTH",
"681 256 OFFCURVE",
"700 221 OFFCURVE",
"700 172 CURVE SMOOTH",
"700 150 OFFCURVE",
"694 130 OFFCURVE",
"684 110 CURVE",
"662 110 LINE SMOOTH",
"584 110 OFFCURVE",
"543 63 OFFCURVE",
"543 2 CURVE SMOOTH",
"543 -54 OFFCURVE",
"582 -100 OFFCURVE",
"652 -100 CURVE SMOOTH"
);
}
);
};
layerId = "CFA4B904-E3F1-48B6-A7F6-47DC1FF2A3E1";
paths = (
{
closed = 1;
nodes = (
"596 408 LINE",
"606 456 LINE",
"28 456 LINE",
"18 408 LINE",
"400 408 LINE",
"379 308 LINE",
"345 306 OFFCURVE",
"310 295 OFFCURVE",
"280 266 CURVE",
"264 289 OFFCURVE",
"236 310 OFFCURVE",
"196 310 CURVE SMOOTH",
"115 310 OFFCURVE",
"57 255 OFFCURVE",
"41 177 CURVE SMOOTH",
"22 76 OFFCURVE",
"96 -11 OFFCURVE",
"96 -11 CURVE",
"154 9 LINE",
"136 34 OFFCURVE",
"84 100 OFFCURVE",
"97 167 CURVE SMOOTH",
"107 219 OFFCURVE",
"144 256 OFFCURVE",
"193 256 CURVE SMOOTH",
"222 256 OFFCURVE",
"238 235 OFFCURVE",
"246 216 CURVE",
"238 200 OFFCURVE",
"234 184 OFFCURVE",
"231 169 CURVE SMOOTH",
"228 156 OFFCURVE",
"225 130 OFFCURVE",
"225 120 CURVE",
"276 108 LINE",
"277 118 OFFCURVE",
"278 138 OFFCURVE",
"282 157 CURVE SMOOTH",
"293 215 OFFCURVE",
"329 257 OFFCURVE",
"379 256 CURVE SMOOTH",
"426 256 OFFCURVE",
"438 223 OFFCURVE",
"433 194 CURVE SMOOTH",
"425 155 OFFCURVE",
"392 133 OFFCURVE",
"372 122 CURVE SMOOTH",
"334 101 OFFCURVE",
"300 78 OFFCURVE",
"291 28 CURVE SMOOTH",
"282 -17 OFFCURVE",
"301 -62 OFFCURVE",
"367 -62 CURVE SMOOTH",
"402 -62 OFFCURVE",
"435 -48 OFFCURVE",
"461 -29 CURVE",
"441 19 LINE",
"426 9 OFFCURVE",
"397 -11 OFFCURVE",
"374 -11 CURVE SMOOTH",
"349 -11 OFFCURVE",
"339 0 OFFCURVE",
"343 21 CURVE SMOOTH",
"350 58 OFFCURVE",
"378 66 OFFCURVE",
"413 88 CURVE SMOOTH",
"448 113 OFFCURVE",
"475 140 OFFCURVE",
"485 185 CURVE SMOOTH",
"495 232 OFFCURVE",
"475 279 OFFCURVE",
"433 298 CURVE",
"456 408 LINE"
);
}
);
width = 531;
}
);
unicode = 090C;
},
{
glyphname = "llVocalic-deva";
lastChange = "2014-11-24 05:17:59 +0000";
layers = (
{
anchors = (
{
name = top;
position = "{436, 447}";
}
);
background = {
paths = (
{
closed = 1;
nodes = (
"628 270 LINE",
"684 270 LINE",
"684 456 LINE",
"628 456 LINE"
);
},
{
closed = 1;
nodes = (
"246 456 LINE",
"246 408 LINE",
"824 408 LINE",
"824 456 LINE"
);
},
{
closed = 1;
nodes = (
"545 268 OFFCURVE",
"504 310 OFFCURVE",
"447 310 CURVE SMOOTH",
"364 310 OFFCURVE",
"314 253 OFFCURVE",
"314 172 CURVE SMOOTH",
"314 74 OFFCURVE",
"407 -12 OFFCURVE",
"407 -12 CURVE",
"460 11 LINE",
"437 36 OFFCURVE",
"371 102 OFFCURVE",
"371 172 CURVE SMOOTH",
"371 221 OFFCURVE",
"399 256 OFFCURVE",
"446 256 CURVE SMOOTH",
"500 256 OFFCURVE",
"525 182 OFFCURVE",
"525 182 CURVE",
"562 227 LINE"
);
},
{
closed = 1;
nodes = (
"719 -62 OFFCURVE",
"749 -46 OFFCURVE",
"772 -27 CURVE",
"746 17 LINE",
"733 7 OFFCURVE",
"708 -11 OFFCURVE",
"687 -11 CURVE SMOOTH",
"662 -11 OFFCURVE",
"646 2 OFFCURVE",
"646 23 CURVE SMOOTH",
"646 60 OFFCURVE",
"670 68 OFFCURVE",
"700 91 CURVE SMOOTH",
"731 115 OFFCURVE",
"755 142 OFFCURVE",
"756 190 CURVE SMOOTH",
"757 249 OFFCURVE",
"711 308 OFFCURVE",
"635 308 CURVE SMOOTH",
"569 308 OFFCURVE",
"505 266 OFFCURVE",
"505 164 CURVE SMOOTH",
"505 154 OFFCURVE",
"507 128 OFFCURVE",
"509 118 CURVE",
"562 110 LINE",
"561 120 OFFCURVE",
"558 140 OFFCURVE",
"558 162 CURVE SMOOTH",
"558 217 OFFCURVE",
"584 257 OFFCURVE",
"632 256 CURVE SMOOTH",
"681 256 OFFCURVE",
"702 221 OFFCURVE",
"702 189 CURVE SMOOTH",
"702 153 OFFCURVE",
"674 136 OFFCURVE",
"657 124 CURVE SMOOTH",
"625 101 OFFCURVE",
"592 76 OFFCURVE",
"592 23 CURVE SMOOTH",
"592 -19 OFFCURVE",
"618 -62 OFFCURVE",
"682 -62 CURVE SMOOTH"
);
},
{
closed = 1;
nodes = (
"628 270 LINE",
"684 270 LINE",
"684 456 LINE",
"628 456 LINE"
);
},
{
closed = 1;
nodes = (
"246 456 LINE",
"246 408 LINE",
"824 408 LINE",
"824 456 LINE"
);
},
{
closed = 1;
nodes = (
"545 268 OFFCURVE",
"504 310 OFFCURVE",
"447 310 CURVE SMOOTH",
"364 310 OFFCURVE",
"314 253 OFFCURVE",
"314 172 CURVE SMOOTH",
"314 74 OFFCURVE",
"407 -12 OFFCURVE",
"407 -12 CURVE",
"460 11 LINE",
"437 36 OFFCURVE",
"371 102 OFFCURVE",
"371 172 CURVE SMOOTH",
"371 221 OFFCURVE",
"399 256 OFFCURVE",
"446 256 CURVE SMOOTH",
"500 256 OFFCURVE",
"525 182 OFFCURVE",
"525 182 CURVE",
"562 227 LINE"
);
}
);
};
layerId = "CFA4B904-E3F1-48B6-A7F6-47DC1FF2A3E1";
paths = (
{
closed = 1;
nodes = (
"596 408 LINE",
"606 456 LINE",
"28 456 LINE",
"18 408 LINE",
"400 408 LINE",
"379 308 LINE",
"345 306 OFFCURVE",
"310 295 OFFCURVE",
"280 266 CURVE",
"264 289 OFFCURVE",
"236 310 OFFCURVE",
"196 310 CURVE SMOOTH",
"115 310 OFFCURVE",
"57 255 OFFCURVE",
"41 177 CURVE SMOOTH",
"22 76 OFFCURVE",
"96 -11 OFFCURVE",
"96 -11 CURVE",
"154 9 LINE",
"136 34 OFFCURVE",
"84 100 OFFCURVE",
"97 167 CURVE SMOOTH",
"107 219 OFFCURVE",
"144 256 OFFCURVE",
"193 256 CURVE SMOOTH",
"222 256 OFFCURVE",
"238 235 OFFCURVE",
"246 216 CURVE",
"238 200 OFFCURVE",
"234 184 OFFCURVE",
"231 169 CURVE SMOOTH",
"228 156 OFFCURVE",
"225 130 OFFCURVE",
"225 120 CURVE",
"276 108 LINE",
"277 118 OFFCURVE",
"278 138 OFFCURVE",
"282 157 CURVE SMOOTH",
"293 215 OFFCURVE",
"329 257 OFFCURVE",
"379 256 CURVE SMOOTH",
"426 256 OFFCURVE",
"438 223 OFFCURVE",
"433 194 CURVE SMOOTH",
"425 155 OFFCURVE",
"391 135 OFFCURVE",
"371 125 CURVE SMOOTH",
"336 101 OFFCURVE",
"299 78 OFFCURVE",
"292 40 CURVE SMOOTH",
"286 11 OFFCURVE",
"296 -18 OFFCURVE",
"324 -29 CURVE",
"288 -39 OFFCURVE",
"260 -65 OFFCURVE",
"254 -99 CURVE SMOOTH",
"245 -143 OFFCURVE",
"266 -188 OFFCURVE",
"338 -188 CURVE SMOOTH",
"365 -188 OFFCURVE",
"400 -180 OFFCURVE",
"430 -164 CURVE",
"410 -120 LINE",
"388 -132 OFFCURVE",
"367 -140 OFFCURVE",
"339 -140 CURVE SMOOTH",
"311 -140 OFFCURVE",
"298 -128 OFFCURVE",
"303 -105 CURVE SMOOTH",
"308 -75 OFFCURVE",
"338 -56 OFFCURVE",
"371 -55 CURVE SMOOTH",
"412 -55 LINE",
"419 -10 LINE",
"340 -15 OFFCURVE",
"338 9 OFFCURVE",
"341 27 CURVE SMOOTH",
"347 58 OFFCURVE",
"378 66 OFFCURVE",
"413 88 CURVE SMOOTH",
"448 113 OFFCURVE",
"475 140 OFFCURVE",
"485 185 CURVE SMOOTH",
"495 232 OFFCURVE",
"475 279 OFFCURVE",
"433 298 CURVE",
"456 408 LINE"
);
}
);
width = 531;
}
);
unicode = 0961;
},
{
glyphname = "eCandra-deva";
lastChange = "2014-11-24 05:17:59 +0000";
layers = (
{
anchors = (
{
name = top;
position = "{250, 447}";
}
);
layerId = "CFA4B904-E3F1-48B6-A7F6-47DC1FF2A3E1";
paths = (
{
closed = 1;
nodes = (
"253 123 LINE",
"322 149 OFFCURVE",
"341 186 OFFCURVE",
"353 246 CURVE SMOOTH",
"384 408 LINE",
"474 408 LINE",
"484 456 LINE",
"28 456 LINE",
"18 408 LINE",
"93 408 LINE",
"49 172 LINE",
"270 -44 LINE",
"310 -5 LINE",
"105 194 LINE",
"147 408 LINE",
"332 408 LINE",
"304 261 LINE",
"293 214 OFFCURVE",
"290 191 OFFCURVE",
"232 171 CURVE"
);
},
{
closed = 1;
nodes = (
"336 509 OFFCURVE",
"388 548 OFFCURVE",
"415 606 CURVE",
"375 629 LINE",
"349 584 OFFCURVE",
"320 557 OFFCURVE",
"267 557 CURVE SMOOTH",
"219 557 OFFCURVE",
"202 580 OFFCURVE",
"194 625 CURVE",
"148 610 LINE",
"154 552 OFFCURVE",
"193 509 OFFCURVE",
"266 509 CURVE SMOOTH"
);
}
);
width = 409;
}
);
unicode = 090D;
},
{
glyphname = "eShort-deva";
lastChange = "2014-11-24 05:17:59 +0000";
layers = (
{
anchors = (
{
name = top;
position = "{250, 447}";
}
);
layerId = "CFA4B904-E3F1-48B6-A7F6-47DC1FF2A3E1";
paths = (
{
closed = 1;
nodes = (
"253 123 LINE",
"322 149 OFFCURVE",
"341 186 OFFCURVE",
"353 246 CURVE SMOOTH",
"384 408 LINE",
"474 408 LINE",
"484 456 LINE",
"392 454 LINE",
"399 542 OFFCURVE",
"327 564 OFFCURVE",
"277 564 CURVE SMOOTH",
"267 564 OFFCURVE",
"256 564 OFFCURVE",
"244 564 CURVE SMOOTH",
"202 570 OFFCURVE",
"184 579 OFFCURVE",
"187 636 CURVE",
"137 623 LINE",
"125 522 OFFCURVE",
"215 516 OFFCURVE",
"253 516 CURVE SMOOTH",
"317 516 OFFCURVE",
"342 499 OFFCURVE",
"341 458 CURVE",
"28 456 LINE",
"18 408 LINE",
"93 408 LINE",
"49 172 LINE",
"270 -44 LINE",
"310 -5 LINE",
"105 194 LINE",
"147 408 LINE",
"332 408 LINE",
"304 261 LINE",
"293 214 OFFCURVE",
"290 191 OFFCURVE",
"232 171 CURVE"
);
}
);
width = 409;
}
);
unicode = 090E;
},
{
glyphname = "e-deva";
lastChange = "2014-11-24 05:17:59 +0000";
layers = (
{
anchors = (
{
name = top;
position = "{250, 447}";
}
);
background = {
paths = (
{
closed = 1;
nodes = (
"320 456 OFFCURVE",
"320 365 OFFCURVE",
"320 292 CURVE SMOOTH",
"320 80 OFFCURVE",
"481 27 OFFCURVE",
"599 -21 CURVE",
"620 26 LINE",
"530 60 OFFCURVE",
"457 97 OFFCURVE",
"415 152 CURVE SMOOTH",
"387 188 OFFCURVE",
"373 240 OFFCURVE",
"375 290 CURVE",
"375 336 OFFCURVE",
"375 456 OFFCURVE",
"375 456 CURVE SMOOTH",
"320 456 LINE SMOOTH"
);
},
{
closed = 1;
nodes = (
"246 456 LINE",
"246 408 LINE",
"692 408 LINE",
"692 456 LINE"
);
},
{
closed = 1;
nodes = (
"550 456 OFFCURVE",
"560 386 OFFCURVE",
"560 324 CURVE SMOOTH",
"563 212 OFFCURVE",
"521 202 OFFCURVE",
"480 187 CURVE",
"504 141 LINE",
"559 157 OFFCURVE",
"614 186 OFFCURVE",
"614 325 CURVE SMOOTH",
"614 387 OFFCURVE",
"604 456 OFFCURVE",
"602 456 CURVE SMOOTH",
"550 456 LINE SMOOTH"
);
}
);
};
layerId = "CFA4B904-E3F1-48B6-A7F6-47DC1FF2A3E1";
paths = (
{
closed = 1;
nodes = (
"253 123 LINE",
"322 149 OFFCURVE",
"341 186 OFFCURVE",
"353 246 CURVE SMOOTH",
"384 408 LINE",
"474 408 LINE",
"484 456 LINE",
"28 456 LINE",
"18 408 LINE",
"93 408 LINE",
"49 172 LINE",
"270 -44 LINE",
"310 -5 LINE",
"105 194 LINE",
"147 408 LINE",
"332 408 LINE",
"304 261 LINE",
"293 214 OFFCURVE",
"290 191 OFFCURVE",
"232 171 CURVE"
);
}
);
width = 409;
}
);
unicode = 090F;
},
{
glyphname = "ai-deva";
lastChange = "2014-11-24 05:17:59 +0000";
layers = (
{
anchors = (
{
name = top;
position = "{250, 447}";
}
);
layerId = "CFA4B904-E3F1-48B6-A7F6-47DC1FF2A3E1";
paths = (
{
closed = 1;
nodes = (
"253 123 LINE",
"322 149 OFFCURVE",
"341 186 OFFCURVE",
"353 246 CURVE SMOOTH",
"384 408 LINE",
"474 408 LINE",
"484 456 LINE",
"394 456 LINE",
"315 586 LINE",
"292 622 OFFCURVE",
"276 637 OFFCURVE",
"236 637 CURVE SMOOTH",
"206 637 OFFCURVE",
"174 620 OFFCURVE",
"174 620 CURVE",
"186 575 LINE",
"185 575 OFFCURVE",
"210 586 OFFCURVE",
"234 586 CURVE SMOOTH",
"253 586 OFFCURVE",
"260 580 OFFCURVE",
"272 561 CURVE SMOOTH",
"334 456 LINE",
"28 456 LINE",
"18 408 LINE",
"92 408 LINE",
"49 172 LINE",
"270 -44 LINE",
"310 -5 LINE",
"105 194 LINE",
"147 408 LINE",
"332 408 LINE",
"304 261 LINE",
"293 214 OFFCURVE",
"290 191 OFFCURVE",
"232 171 CURVE"
);
}
);
width = 409;
}
);
unicode = 0910;
},
{
glyphname = "ai_anusvara-deva";
lastChange = "2014-11-24 05:17:59 +0000";
layers = (
{
layerId = "CFA4B904-E3F1-48B6-A7F6-47DC1FF2A3E1";
paths = (
{
closed = 1;
nodes = (
"459 519 OFFCURVE",
"474 533 OFFCURVE",
"477 550 CURVE SMOOTH",
"482 574 OFFCURVE",
"469 592 OFFCURVE",
"444 592 CURVE SMOOTH",
"424 592 OFFCURVE",
"409 578 OFFCURVE",
"406 560 CURVE SMOOTH",
"401 537 OFFCURVE",
"414 519 OFFCURVE",
"438 519 CURVE SMOOTH"
);
},
{
closed = 1;
nodes = (
"315 586 LINE",
"292 622 OFFCURVE",
"276 637 OFFCURVE",
"236 637 CURVE SMOOTH",
"206 637 OFFCURVE",
"174 620 OFFCURVE",
"174 617 CURVE SMOOTH",
"176 620 OFFCURVE",
"185 576 OFFCURVE",
"187 577 CURVE SMOOTH",
"189 576 OFFCURVE",
"210 586 OFFCURVE",
"234 586 CURVE SMOOTH",
"253 586 OFFCURVE",
"260 580 OFFCURVE",
"272 561 CURVE",
"345 437 LINE",
"405 437 LINE"
);
},
{
closed = 1;
nodes = (
"49 172 LINE",
"270 -44 LINE",
"310 -5 LINE",
"105 194 LINE",
"157 456 LINE",
"102 456 LINE"
);
},
{
closed = 1;
nodes = (
"28 456 LINE",
"18 408 LINE",
"474 408 LINE",
"484 456 LINE"
);
},
{
closed = 1;
nodes = (
"304 261 LINE",
"293 214 OFFCURVE",
"290 191 OFFCURVE",
"232 171 CURVE",
"253 123 LINE",
"322 149 OFFCURVE",
"341 186 OFFCURVE",
"353 246 CURVE",
"394 456 LINE",
"342 456 LINE"
);
}
);
width = 409;
}
);
},
{
glyphname = "ai_candraBindu-deva";
lastChange = "2014-11-24 05:17:59 +0000";
layers = (
{
background = {
paths = (
{
closed = 1;
nodes = (
"490 592 OFFCURVE",
"499 603 OFFCURVE",
"501 612 CURVE SMOOTH",
"504 628 OFFCURVE",
"496 642 OFFCURVE",
"478 642 CURVE SMOOTH",
"464 642 OFFCURVE",
"455 632 OFFCURVE",
"453 622 CURVE SMOOTH",
"450 607 OFFCURVE",
"458 592 OFFCURVE",
"476 592 CURVE SMOOTH"
);
},
{
closed = 1;
nodes = (
"536 607 LINE",
"517 574 OFFCURVE",
"489 556 OFFCURVE",
"460 556 CURVE SMOOTH",
"436 556 OFFCURVE",
"416 570 OFFCURVE",
"410 603 CURVE",
"374 592 LINE",
"380 550 OFFCURVE",
"408 519 OFFCURVE",
"461 519 CURVE SMOOTH",
"511 519 OFFCURVE",
"548 545 OFFCURVE",
"568 587 CURVE"
);
}
);
};
layerId = "CFA4B904-E3F1-48B6-A7F6-47DC1FF2A3E1";
paths = (
{
closed = 1;
nodes = (
"314 586 LINE",
"291 622 OFFCURVE",
"275 637 OFFCURVE",
"235 637 CURVE SMOOTH",
"205 637 OFFCURVE",
"173 620 OFFCURVE",
"173 620 CURVE",
"185 575 LINE",
"184 575 OFFCURVE",
"209 586 OFFCURVE",
"233 586 CURVE SMOOTH",
"252 586 OFFCURVE",
"259 580 OFFCURVE",
"271 561 CURVE SMOOTH",
"333 456 LINE",
"28 456 LINE",
"18 408 LINE",
"93 408 LINE",
"49 172 LINE",
"270 -44 LINE",
"310 -5 LINE",
"105 194 LINE",
"147 408 LINE",
"332 408 LINE",
"304 261 LINE",
"293 214 OFFCURVE",
"290 191 OFFCURVE",
"232 171 CURVE",
"253 123 LINE",
"322 149 OFFCURVE",
"341 186 OFFCURVE",
"353 246 CURVE SMOOTH",
"384 408 LINE",
"474 408 LINE",
"484 456 LINE",
"393 456 LINE"
);
},
{
closed = 1;
nodes = (
"483 592 OFFCURVE",
"492 603 OFFCURVE",
"494 612 CURVE SMOOTH",
"497 628 OFFCURVE",
"489 642 OFFCURVE",
"471 642 CURVE SMOOTH",
"457 642 OFFCURVE",
"448 632 OFFCURVE",
"446 622 CURVE SMOOTH",
"443 607 OFFCURVE",
"451 592 OFFCURVE",
"469 592 CURVE SMOOTH"
);
},
{
closed = 1;
nodes = (
"536 607 LINE",
"517 574 OFFCURVE",
"489 556 OFFCURVE",
"460 556 CURVE SMOOTH",
"436 556 OFFCURVE",
"416 570 OFFCURVE",
"410 603 CURVE",
"374 592 LINE",
"381 550 OFFCURVE",
"408 519 OFFCURVE",
"461 519 CURVE SMOOTH",
"505 519 OFFCURVE",
"545 544 OFFCURVE",
"569 586 CURVE"
);
}
);
width = 467;
}
);
},
{
glyphname = "oCandra-deva";
lastChange = "2014-11-24 05:17:59 +0000";
layers = (
{
anchors = (
{
name = top;
position = "{741, 447}";
}
);
layerId = "CFA4B904-E3F1-48B6-A7F6-47DC1FF2A3E1";
paths = (
{
closed = 1;
nodes = (
"866 456 LINE",
"411 456 LINE",
"401 408 LINE",
"495 408 LINE",
"463 251 LINE",
"439 239 OFFCURVE",
"415 230 OFFCURVE",
"375 230 CURVE SMOOTH",
"350 230 OFFCURVE",
"320 237 OFFCURVE",
"287 252 CURVE",
"337 275 OFFCURVE",
"362 309 OFFCURVE",
"370 348 CURVE SMOOTH",
"382 411 OFFCURVE",
"340 457 OFFCURVE",
"266 457 CURVE SMOOTH",
"206 457 OFFCURVE",
"162 425 OFFCURVE",
"139 409 CURVE",
"164 364 LINE",
"189 383 OFFCURVE",
"217 406 OFFCURVE",
"263 406 CURVE SMOOTH",
"301 406 OFFCURVE",
"326 388 OFFCURVE",
"319 352 CURVE SMOOTH",
"314 328 OFFCURVE",
"296 274 OFFCURVE",
"193 275 CURVE SMOOTH",
"172 275 LINE",
"162 226 LINE",
"183 226 LINE",
"292 230 OFFCURVE",
"302 189 OFFCURVE",
"295 152 CURVE SMOOTH",
"285 102 OFFCURVE",
"241 77 OFFCURVE",
"191 77 CURVE SMOOTH",
"120 77 OFFCURVE",
"88 125 OFFCURVE",
"60 205 CURVE",
"14 182 LINE",
"50 83 OFFCURVE",
"93 25 OFFCURVE",
"190 25 CURVE SMOOTH",
"264 25 OFFCURVE",
"331 72 OFFCURVE",
"343 132 CURVE SMOOTH",
"347 154 OFFCURVE",
"347 170 OFFCURVE",
"344 184 CURVE",
"359 183 OFFCURVE",
"372 182 OFFCURVE",
"387 182 CURVE SMOOTH",
"413 182 OFFCURVE",
"437 187 OFFCURVE",
"455 192 CURVE",
"416 0 LINE",
"470 0 LINE",
"549 408 LINE",
"704 408 LINE",
"625 0 LINE",
"680 0 LINE",
"759 408 LINE",
"856 408 LINE"
);
},
{
closed = 1;
nodes = (
"827 509 OFFCURVE",
"879 548 OFFCURVE",
"906 606 CURVE",
"866 629 LINE",
"840 584 OFFCURVE",
"811 557 OFFCURVE",
"758 557 CURVE SMOOTH",
"710 557 OFFCURVE",
"693 580 OFFCURVE",
"685 625 CURVE",
"639 610 LINE",
"645 552 OFFCURVE",
"684 509 OFFCURVE",
"757 509 CURVE SMOOTH"
);
}
);
width = 802;
}
);
unicode = 0911;
},
{
glyphname = "o-deva";
lastChange = "2014-11-24 05:17:59 +0000";
layers = (
{
anchors = (
{
name = top;
position = "{741, 447}";
}
);
layerId = "CFA4B904-E3F1-48B6-A7F6-47DC1FF2A3E1";
paths = (
{
closed = 1;
nodes = (
"867 456 LINE",
"771 456 LINE",
"691 586 LINE SMOOTH",
"669 622 OFFCURVE",
"652 637 OFFCURVE",
"613 637 CURVE SMOOTH",
"582 637 OFFCURVE",
"550 620 OFFCURVE",
"550 620 CURVE",
"562 575 LINE",
"561 575 OFFCURVE",
"586 586 OFFCURVE",
"611 586 CURVE SMOOTH",
"631 586 OFFCURVE",
"638 580 OFFCURVE",
"648 561 CURVE",
"710 456 LINE",
"411 456 LINE",
"401 408 LINE",
"495 408 LINE",
"463 251 LINE",
"439 240 OFFCURVE",
"415 230 OFFCURVE",
"375 230 CURVE SMOOTH",
"350 230 OFFCURVE",
"320 237 OFFCURVE",
"287 252 CURVE",
"337 275 OFFCURVE",
"362 309 OFFCURVE",
"370 348 CURVE SMOOTH",
"382 411 OFFCURVE",
"340 457 OFFCURVE",
"266 457 CURVE SMOOTH",
"206 457 OFFCURVE",
"162 425 OFFCURVE",
"139 409 CURVE",
"164 364 LINE",
"189 383 OFFCURVE",
"217 406 OFFCURVE",
"263 406 CURVE SMOOTH",
"301 406 OFFCURVE",
"326 388 OFFCURVE",
"319 352 CURVE SMOOTH",
"314 328 OFFCURVE",
"296 274 OFFCURVE",
"193 275 CURVE SMOOTH",
"172 275 LINE",
"162 226 LINE",
"183 226 LINE",
"292 230 OFFCURVE",
"302 189 OFFCURVE",
"295 152 CURVE SMOOTH",
"285 102 OFFCURVE",
"241 77 OFFCURVE",
"191 77 CURVE SMOOTH",
"120 77 OFFCURVE",
"88 125 OFFCURVE",
"60 205 CURVE",
"14 182 LINE",
"50 83 OFFCURVE",
"93 25 OFFCURVE",
"190 25 CURVE SMOOTH",
"264 25 OFFCURVE",
"331 72 OFFCURVE",
"343 132 CURVE SMOOTH",
"347 154 OFFCURVE",
"347 170 OFFCURVE",
"345 184 CURVE",
"359 183 OFFCURVE",
"373 182 OFFCURVE",
"387 182 CURVE SMOOTH",
"413 182 OFFCURVE",
"437 187 OFFCURVE",
"456 193 CURVE",
"416 0 LINE",
"470 0 LINE",
"549 408 LINE",
"705 408 LINE",
"626 0 LINE",
"681 0 LINE",
"760 408 LINE",
"857 408 LINE"
);
}
);
width = 792;
}
);
unicode = 0913;
},
{
glyphname = "o_anusvara-deva";
lastChange = "2014-11-24 05:17:59 +0000";
layers = (
{
layerId = "CFA4B904-E3F1-48B6-A7F6-47DC1FF2A3E1";
paths = (
{
closed = 1;
nodes = (
"870 456 LINE",
"774 456 LINE",
"694 586 LINE SMOOTH",
"672 622 OFFCURVE",
"655 637 OFFCURVE",
"616 637 CURVE SMOOTH",
"585 637 OFFCURVE",
"553 620 OFFCURVE",
"553 620 CURVE",
"565 575 LINE",
"564 575 OFFCURVE",
"589 586 OFFCURVE",
"614 586 CURVE SMOOTH",
"634 586 OFFCURVE",
"641 580 OFFCURVE",
"651 561 CURVE",
"713 456 LINE",
"414 456 LINE",
"404 408 LINE",
"498 408 LINE",
"466 251 LINE",
"442 240 OFFCURVE",
"418 230 OFFCURVE",
"378 230 CURVE SMOOTH",
"353 230 OFFCURVE",
"323 237 OFFCURVE",
"290 252 CURVE",
"340 275 OFFCURVE",
"365 309 OFFCURVE",
"373 348 CURVE SMOOTH",
"385 411 OFFCURVE",
"343 457 OFFCURVE",
"269 457 CURVE SMOOTH",
"209 457 OFFCURVE",
"165 425 OFFCURVE",
"142 409 CURVE",
"167 364 LINE",
"192 383 OFFCURVE",
"220 406 OFFCURVE",
"266 406 CURVE SMOOTH",
"304 406 OFFCURVE",
"329 388 OFFCURVE",
"322 352 CURVE SMOOTH",
"317 328 OFFCURVE",
"299 274 OFFCURVE",
"196 275 CURVE SMOOTH",
"175 275 LINE",
"165 226 LINE",
"186 226 LINE",
"295 230 OFFCURVE",
"305 189 OFFCURVE",
"298 152 CURVE SMOOTH",
"288 102 OFFCURVE",
"244 77 OFFCURVE",
"194 77 CURVE SMOOTH",
"123 77 OFFCURVE",
"91 125 OFFCURVE",
"63 205 CURVE",
"17 182 LINE",
"53 83 OFFCURVE",
"96 25 OFFCURVE",
"193 25 CURVE SMOOTH",
"267 25 OFFCURVE",
"334 72 OFFCURVE",
"346 132 CURVE SMOOTH",
"350 154 OFFCURVE",
"350 170 OFFCURVE",
"348 184 CURVE",
"362 183 OFFCURVE",
"376 182 OFFCURVE",
"390 182 CURVE SMOOTH",
"416 182 OFFCURVE",
"440 187 OFFCURVE",
"459 193 CURVE",
"419 0 LINE",
"473 0 LINE",
"552 408 LINE",
"708 408 LINE",
"629 0 LINE",
"684 0 LINE",
"763 408 LINE",
"860 408 LINE"
);
},
{
closed = 1;
nodes = (
"837 519 OFFCURVE",
"852 533 OFFCURVE",
"855 550 CURVE SMOOTH",
"860 574 OFFCURVE",
"847 592 OFFCURVE",
"822 592 CURVE SMOOTH",
"802 592 OFFCURVE",
"787 578 OFFCURVE",
"784 560 CURVE SMOOTH",
"780 537 OFFCURVE",
"792 519 OFFCURVE",
"816 519 CURVE SMOOTH"
);
}
);
width = 795;
}
);
},
{
glyphname = "o_candraBindu-deva";
lastChange = "2014-11-24 05:17:59 +0000";
layers = (
{
layerId = "CFA4B904-E3F1-48B6-A7F6-47DC1FF2A3E1";
paths = (
{
closed = 1;
nodes = (
"862 592 OFFCURVE",
"871 603 OFFCURVE",
"873 612 CURVE SMOOTH",
"876 628 OFFCURVE",
"868 642 OFFCURVE",
"850 642 CURVE SMOOTH",
"836 642 OFFCURVE",
"827 632 OFFCURVE",
"825 622 CURVE SMOOTH",
"822 607 OFFCURVE",
"830 592 OFFCURVE",
"848 592 CURVE SMOOTH"
);
},
{
closed = 1;
nodes = (
"693 586 LINE",
"670 622 OFFCURVE",
"654 637 OFFCURVE",
"614 637 CURVE SMOOTH",
"584 637 OFFCURVE",
"552 620 OFFCURVE",
"552 620 CURVE",
"564 575 LINE",
"563 575 OFFCURVE",
"588 586 OFFCURVE",
"612 586 CURVE SMOOTH",
"631 586 OFFCURVE",
"638 580 OFFCURVE",
"650 561 CURVE SMOOTH",
"712 456 LINE",
"414 456 LINE",
"404 408 LINE",
"498 408 LINE",
"466 251 LINE",
"442 240 OFFCURVE",
"418 230 OFFCURVE",
"378 230 CURVE SMOOTH",
"353 230 OFFCURVE",
"323 237 OFFCURVE",
"290 252 CURVE",
"340 275 OFFCURVE",
"365 309 OFFCURVE",
"373 348 CURVE SMOOTH",
"385 411 OFFCURVE",
"343 457 OFFCURVE",
"269 457 CURVE SMOOTH",
"209 457 OFFCURVE",
"165 425 OFFCURVE",
"142 409 CURVE",
"167 364 LINE",
"192 383 OFFCURVE",
"220 406 OFFCURVE",
"266 406 CURVE SMOOTH",
"304 406 OFFCURVE",
"329 388 OFFCURVE",
"322 352 CURVE SMOOTH",
"317 328 OFFCURVE",
"299 274 OFFCURVE",
"196 275 CURVE SMOOTH",
"175 275 LINE",
"165 226 LINE",
"186 226 LINE",
"295 230 OFFCURVE",
"305 189 OFFCURVE",
"298 152 CURVE SMOOTH",
"288 102 OFFCURVE",
"244 77 OFFCURVE",
"194 77 CURVE SMOOTH",
"123 77 OFFCURVE",
"91 125 OFFCURVE",
"63 205 CURVE",
"17 182 LINE",
"53 83 OFFCURVE",
"96 25 OFFCURVE",
"193 25 CURVE SMOOTH",
"267 25 OFFCURVE",
"334 72 OFFCURVE",
"346 132 CURVE SMOOTH",
"350 154 OFFCURVE",
"350 170 OFFCURVE",
"348 184 CURVE",
"362 183 OFFCURVE",
"376 182 OFFCURVE",
"390 182 CURVE SMOOTH",
"416 182 OFFCURVE",
"440 187 OFFCURVE",
"459 193 CURVE",
"419 0 LINE",
"473 0 LINE",
"552 408 LINE",
"708 408 LINE",
"629 0 LINE",
"684 0 LINE",
"763 408 LINE",
"860 408 LINE",
"870 456 LINE",
"772 456 LINE"
);
},
{
closed = 1;
nodes = (
"915 607 LINE",
"896 574 OFFCURVE",
"868 556 OFFCURVE",
"839 556 CURVE SMOOTH",
"815 556 OFFCURVE",
"795 570 OFFCURVE",
"789 603 CURVE",
"753 592 LINE",
"760 550 OFFCURVE",
"787 519 OFFCURVE",
"840 519 CURVE SMOOTH",
"884 519 OFFCURVE",
"924 544 OFFCURVE",
"948 586 CURVE"
);
}
);
width = 795;
}
);
},
